<svg width="35" height="31" viewBox="0 0 35 31" fill="none" xmlns="http://www.w3.org/2000/svg">
<path d="M1.13843 25.2151C-0.277174 25.5583 9.6308 12 9.6308 12L16 19.8947C16 19.8947 10.6921 27.961 9.63076 29.6773C8.56937 31.3935 7.68439 25.7299 6.79998 25.2151C5.91558 24.7002 2.55404 24.8718 1.13843 25.2151Z" fill="#9BDBA1" stroke="#FAFAFA" stroke-width="2"/>
<path d="M33.8339 25.2151C35.5326 25.5583 23.643 12 23.643 12L16 19.8947C16 19.8947 22.3694 27.961 23.6431 29.6773C24.9168 31.3935 25.9787 25.7299 27.04 25.2151C28.1013 24.7002 32.1352 24.8718 33.8339 25.2151Z" fill="#9BDBA1" stroke="#FAFAFA" stroke-width="2"/>
<path d="M27 11C27 16.5672 22.7034 21 17.5 21C12.2966 21 8 16.5672 8 11C8 5.4328 12.2966 1 17.5 1C22.7034 1 27 5.4328 27 11Z" fill="#9BDBA1" stroke="#FAFAFA" stroke-width="2"/>
<circle cx="17.5" cy="11" r="5.5" fill="#62C16B" stroke="#FAFAFA" stroke-width="2"/>
<rect x="15.5" y="9.5" width="4" height="3" rx="1.5" fill="#FAFAFA"/>
</svg>
