<svg width="32" height="32" viewBox="0 0 32 32" fill="none" xmlns="http://www.w3.org/2000/svg">
<path d="M19.2248 12.9077C19.2248 12.9077 13.7735 14.5774 12.7284 15.6235C11.6843 16.6648 11.6843 18.3571 12.7284 19.4031C13.7735 20.4464 15.4658 20.4464 16.509 19.4031C17.5523 18.3571 19.2248 12.9077 19.2248 12.9077Z" fill="#FAFAFA"/>
<path d="M26.4869 7.11407L29.2882 9.91638L31.6889 7.51292C31.6889 7.51292 30.0963 3.53853 24.4851 0.311035L22.0835 2.7126L24.8858 5.51303V5.51491L24.2791 6.12259C21.7054 3.91574 18.3688 2.57621 14.7123 2.57621C6.58574 2.57621 0 9.161 0 17.2895C0 25.4142 6.58574 32.0008 14.7123 32.0008C22.8389 32.0008 29.4246 25.4142 29.4246 17.2895C29.4246 13.6311 28.0832 10.2945 25.8792 7.7227L26.4869 7.11407ZM25.8105 17.5369C25.8086 17.5482 25.8077 17.5604 25.8077 17.5754H26.0184C25.9018 20.1896 24.8868 22.6391 23.123 24.5704L22.9904 24.4377C22.9631 24.4688 22.9386 24.5017 22.9113 24.5318L20.9039 22.5253L20.2746 23.1556L22.4062 25.2872C20.4712 27.051 18.0264 28.0669 15.4084 28.1845V28.129C15.3379 28.1346 15.2711 28.1422 15.1987 28.1459V25.1715H14.3963V28.1845C13.9965 28.1657 13.6051 28.1205 13.2157 28.0613C10.9675 27.7678 8.88195 26.797 7.18872 25.2505L9.32313 23.117L8.72956 22.5253L6.68263 24.5723C6.64406 24.5262 6.61208 24.4801 6.56975 24.4377L6.4738 24.5356C4.65733 22.5479 3.69125 20.0617 3.57743 17.5378H6.59138V16.5623H3.78814C3.78814 16.551 3.79002 16.5369 3.79002 16.5256H3.57743C3.69125 14.0008 4.65733 11.5155 6.47568 9.52787L6.60549 9.66051C6.63465 9.62947 6.65723 9.59654 6.68545 9.56456L8.69287 11.5767L9.32407 10.9445L7.19154 8.81201C9.12371 7.04634 11.5751 6.03228 14.1884 5.91658V5.97208C14.2561 5.96644 14.3276 5.95703 14.3972 5.95327V8.92771H15.1996V5.91658C15.5975 5.93351 15.9917 5.98055 16.3802 6.03981C18.6293 6.33519 20.713 7.30597 22.4043 8.85058L20.2746 10.9803L20.8682 11.5757L22.9113 9.52881C22.9518 9.57302 22.9847 9.621 23.0223 9.66521L23.122 9.56644C24.8858 11.4995 25.9008 13.9463 26.0175 16.5633H23.0026V17.5387H25.8105V17.5369Z" fill="#FAFAFA"/>
</svg>
