<svg width="1440" height="1546" viewBox="0 0 1440 1546" fill="none" xmlns="http://www.w3.org/2000/svg">
<rect y="312" width="89.0451" height="90" rx="7" fill="#F9C7AA"/>
<rect y="416" width="89.0451" height="90" rx="7" fill="#F9C7AA"/>
<rect x="103.886" y="312" width="89.0451" height="90" rx="7" fill="#EDF1F0"/>
<rect x="103.886" y="416" width="89.0451" height="90" rx="7" fill="#F9C7AA"/>
<rect y="520" width="89.0451" height="90" rx="7" fill="#F9C7AA"/>
<rect y="624" width="89.0451" height="90" rx="7" fill="#EDF1F0"/>
<rect x="103.886" y="520" width="89.0451" height="90" rx="7" fill="#F9C7AA"/>
<rect x="103.886" y="624" width="89.0451" height="90" rx="7" fill="#EDF1F0"/>
<rect x="207.771" y="312" width="89.0451" height="90" rx="7" fill="#EDF1F0"/>
<rect x="311.658" y="312" width="89.0451" height="90" rx="7" fill="#FF80FF"/>
<rect x="311.658" y="416" width="89.0451" height="90" rx="7" fill="#EDF1F0"/>
<rect x="207.771" y="520" width="89.0451" height="90" rx="7" fill="#F9C7AA"/>
<rect x="207.771" y="624" width="89.0451" height="90" rx="7" fill="#EDF1F0"/>
<rect x="311.658" y="520" width="89.0451" height="90" rx="7" fill="#EDF1F0"/>
<rect x="311.658" y="624" width="89.0451" height="90" rx="7" fill="#FF80FF"/>
<rect x="831.088" y="312" width="89.0451" height="90" rx="7" fill="#EDF1F0"/>
<rect x="831.088" y="416" width="89.0451" height="90" rx="7" fill="#F9C7AA"/>
<rect x="934.974" y="312" width="89.0451" height="90" rx="7" fill="#EDF1F0"/>
<rect x="934.974" y="416" width="89.0451" height="90" rx="7" fill="#EDF1F0"/>
<rect x="1038.86" y="312" width="89.0451" height="90" rx="7" fill="#EDF1F0"/>
<rect x="1038.86" y="416" width="89.0451" height="90" rx="7" fill="#EDF1F0"/>
<rect x="1142.75" y="312" width="89.0451" height="90" rx="7" fill="#EDF1F0"/>
<rect x="1142.75" y="416" width="89.0451" height="90" rx="7" fill="#9BDBA1"/>
<rect x="1038.86" y="520" width="89.0451" height="90" rx="7" fill="#EDF1F0"/>
<rect x="1142.75" y="520" width="89.0451" height="90" rx="7" fill="#EDF1F0"/>
<rect x="1142.75" y="624" width="89.0451" height="90" rx="7" fill="#FF7F7F"/>
<rect x="1246.63" y="312" width="89.0451" height="90" rx="7" fill="#F9C7AA"/>
<rect x="1246.63" y="416" width="89.0451" height="90" rx="7" fill="#9BDBA1"/>
<rect x="1246.63" y="520" width="89.0451" height="90" rx="7" fill="#9BDBA1"/>
<rect x="1246.63" y="624" width="89.0451" height="90" rx="7" fill="#EDF1F0"/>
<rect x="415.544" y="312" width="89.0451" height="90" rx="7" fill="#EDF1F0"/>
<rect x="415.544" y="416" width="89.0451" height="90" rx="7" fill="#EDF1F0"/>
<rect x="519.43" y="312" width="89.0451" height="90" rx="7" fill="#EDF1F0"/>
<rect x="519.43" y="416" width="89.0451" height="90" rx="7" fill="#9BDBA1"/>
<rect x="415.544" y="520" width="89.0451" height="90" rx="7" fill="#EDF1F0"/>
<rect x="207.771" y="416" width="89.0451" height="90" rx="7" fill="#EDF1F0"/>
<rect x="623.315" y="312" width="89.0451" height="90" rx="7" fill="#EDF1F0"/>
<rect x="623.315" y="416" width="89.0451" height="90" rx="7" fill="#EDF1F0"/>
<rect x="727.201" y="312" width="89.0451" height="90" rx="7" fill="#EDF1F0"/>
<rect x="727.201" y="416" width="89.0451" height="90" rx="7" fill="#EDF1F0"/>
<rect x="727.201" y="520" width="89.0451" height="90" rx="7" fill="#EDF1F0"/>
<rect x="1350.52" y="312" width="89.0451" height="90" rx="7" fill="#FF7F7F"/>
<rect y="208" width="89.0451" height="90" rx="7" fill="#EDF1F0"/>
<rect x="103.886" y="208" width="89.0451" height="90" rx="7" fill="#EDF1F0"/>
<rect x="207.771" y="208" width="89.0451" height="90" rx="7" fill="#FF80FF"/>
<rect x="311.658" y="208" width="89.0451" height="90" rx="7" fill="#FF80FF"/>
<rect x="831.088" y="208" width="89.0451" height="90" rx="7" fill="#EDF1F0"/>
<rect x="934.974" y="208" width="89.0451" height="90" rx="7" fill="#EDF1F0"/>
<rect x="1038.86" y="208" width="89.0451" height="90" rx="7" fill="#EDF1F0"/>
<rect x="1142.75" y="208" width="89.0451" height="90" rx="7" fill="#EDF1F0"/>
<rect x="1246.63" y="208" width="89.0451" height="90" rx="7" fill="#F9C7AA"/>
<rect x="415.544" y="208" width="89.0451" height="90" rx="7" fill="#EDF1F0"/>
<rect x="519.43" y="208" width="89.0451" height="90" rx="7" fill="#EDF1F0"/>
<rect x="623.315" y="208" width="89.0451" height="90" rx="7" fill="#EDF1F0"/>
<rect x="727.201" y="208" width="89.0451" height="90" rx="7" fill="#FFE3A6"/>
<rect x="1350.52" y="208" width="89.0451" height="90" rx="7" fill="#FF7F7F"/>
<rect y="104" width="89.0451" height="90" rx="7" fill="#F9C7AA"/>
<rect x="103.886" y="104" width="89.0451" height="90" rx="7" fill="#EDF1F0"/>
<rect x="207.771" y="104" width="89.0451" height="90" rx="7" fill="#FF80FF"/>
<rect x="311.658" y="104" width="89.0451" height="90" rx="7" fill="#FF80FF"/>
<rect x="831.088" y="104" width="89.0451" height="90" rx="7" fill="#FFE3A6"/>
<rect x="934.974" y="104" width="89.0451" height="90" rx="7" fill="#EDF1F0"/>
<rect x="1038.86" y="104" width="89.0451" height="90" rx="7" fill="#EDF1F0"/>
<rect x="1142.75" y="104" width="89.0451" height="90" rx="7" fill="#EDF1F0"/>
<rect x="1246.63" y="104" width="89.0451" height="90" rx="7" fill="#F9C7AA"/>
<rect x="415.544" y="104" width="89.0451" height="90" rx="7" fill="#EDF1F0"/>
<rect x="519.43" y="104" width="89.0451" height="90" rx="7" fill="#EDF1F0"/>
<rect x="623.315" y="104" width="89.0451" height="90" rx="7" fill="#FFE3A6"/>
<rect x="623.315" width="89.0451" height="90" rx="7" fill="#FFE3A6"/>
<rect x="727.201" y="104" width="89.0451" height="90" rx="7" fill="#FFE3A6"/>
<rect x="1350.52" y="104" width="89.0451" height="90" rx="7" fill="#FF7F7F"/>
<rect width="89.0451" height="90" rx="7" fill="#F9C7AA"/>
<rect x="103.886" width="89.0451" height="90" rx="7" fill="#F9C7AA"/>
<rect x="207.771" width="89.0451" height="90" rx="7" fill="#FF80FF"/>
<rect x="311.658" width="89.0451" height="90" rx="7" fill="#FF80FF"/>
<rect x="831.088" width="89.0451" height="90" rx="7" fill="#FFE3A6"/>
<rect x="934.974" width="89.0451" height="90" rx="7" fill="#FFE3A6"/>
<rect x="1038.86" width="89.0451" height="90" rx="7" fill="#EDF1F0"/>
<rect x="1142.75" width="89.0451" height="90" rx="7" fill="#EDF1F0"/>
<rect x="1246.63" width="89.0451" height="90" rx="7" fill="#F9C7AA"/>
<rect x="415.544" width="89.0451" height="90" rx="7" fill="#EDF1F0"/>
<rect x="519.43" width="89.0451" height="90" rx="7" fill="#FFE3A6"/>
<rect x="727.201" width="89.0451" height="90" rx="7" fill="#FFE3A6"/>
<rect x="1350.52" width="89.0451" height="90" rx="7" fill="#FF7F7F"/>
<rect x="1350.52" y="416" width="89.0451" height="90" rx="7" fill="#FF7F7F"/>
<rect x="415.544" y="520" width="89.0451" height="90" rx="7" fill="#EDF1F0"/>
<rect x="1350.52" y="520" width="89.0451" height="90" rx="7" fill="#9BDBA1"/>
<rect x="1350.52" y="624" width="89.0451" height="90" rx="7" fill="#9BDBA1"/>
<rect y="728" width="89.0451" height="90" rx="7" fill="#EDF1F0"/>
<rect y="832" width="89.0451" height="90" rx="7" fill="#FF7F7F"/>
<rect x="103.886" y="728" width="89.0451" height="90" rx="7" fill="#EDF1F0"/>
<rect x="103.886" y="832" width="89.0451" height="90" rx="7" fill="#FF7F7F"/>
<rect y="936" width="89.0451" height="90" rx="7" fill="#FF7F7F"/>
<rect x="103.886" y="936" width="89.0451" height="90" rx="7" fill="#FF7F7F"/>
<rect x="207.771" y="728" width="89.0451" height="90" rx="7" fill="#EDF1F0"/>
<rect x="207.771" y="832" width="89.0451" height="90" rx="7" fill="#FF7F7F"/>
<rect x="311.658" y="728" width="89.0451" height="90" rx="7" fill="#EDF1F0"/>
<rect x="311.658" y="832" width="89.0451" height="90" rx="7" fill="#EDF1F0"/>
<rect x="207.771" y="936" width="89.0451" height="90" rx="7" fill="#FBC98F"/>
<rect x="311.658" y="936" width="89.0451" height="90" rx="7" fill="#EDF1F0"/>
<rect x="831.088" y="728" width="89.0451" height="90" rx="7" fill="#EDF1F0"/>
<rect x="831.088" y="832" width="89.0451" height="90" rx="7" fill="#EDF1F0"/>
<rect x="934.974" y="832" width="89.0451" height="90" rx="7" fill="#C4B0D5"/>
<rect x="831.088" y="936" width="89.0451" height="90" rx="7" fill="#EDF1F0"/>
<rect x="934.974" y="936" width="89.0451" height="90" rx="7" fill="#EDF1F0"/>
<rect x="1038.86" y="728" width="89.0451" height="90" rx="7" fill="#EDF1F0"/>
<rect x="1038.86" y="832" width="89.0451" height="90" rx="7" fill="#EDF1F0"/>
<rect x="1142.75" y="728" width="89.0451" height="90" rx="7" fill="#EDF1F0"/>
<rect x="1142.75" y="832" width="89.0451" height="90" rx="7" fill="#EDF1F0"/>
<rect x="1038.86" y="936" width="89.0451" height="90" rx="7" fill="#EDF1F0"/>
<rect x="1142.75" y="936" width="89.0451" height="90" rx="7" fill="#EDF1F0"/>
<rect x="1246.63" y="728" width="89.0451" height="90" rx="7" fill="#EDF1F0"/>
<rect x="1246.63" y="832" width="89.0451" height="90" rx="7" fill="#EDF1F0"/>
<rect x="1246.63" y="936" width="89.0451" height="90" rx="7" fill="#EDF1F0"/>
<rect x="415.544" y="832" width="89.0451" height="90" rx="7" fill="#EDF1F0"/>
<rect x="519.43" y="728" width="89.0451" height="90" rx="7" fill="#FFE3A6"/>
<rect x="519.43" y="832" width="89.0451" height="90" rx="7" fill="#EDF1F0"/>
<rect x="415.544" y="936" width="89.0451" height="90" rx="7" fill="#EDF1F0"/>
<rect x="519.43" y="936" width="89.0451" height="90" rx="7" fill="#EDF1F0"/>
<rect x="727.201" y="832" width="89.0451" height="90" rx="7" fill="#EDF1F0"/>
<rect x="623.315" y="936" width="89.0451" height="90" rx="7" fill="#EDF1F0"/>
<rect x="727.201" y="936" width="89.0451" height="90" rx="7" fill="#EDF1F0"/>
<rect x="1350.52" y="728" width="89.0451" height="90" rx="7" fill="#EDF1F0"/>
<rect x="1350.52" y="832" width="89.0451" height="90" rx="7" fill="#EDF1F0"/>
<rect x="1350.52" y="936" width="89.0451" height="90" rx="7" fill="#FBC98F"/>
<rect y="1040" width="89.0451" height="90" rx="7" fill="#FF7F7F"/>
<rect x="103.886" y="1040" width="89.0451" height="90" rx="7" fill="#FBC98F"/>
<rect x="207.771" y="1040" width="89.0451" height="90" rx="7" fill="#FBC98F"/>
<rect x="311.658" y="1040" width="89.0451" height="90" rx="7" fill="#FBC98F"/>
<rect x="831.088" y="1040" width="89.0451" height="90" rx="7" fill="#EDF1F0"/>
<rect x="934.974" y="1040" width="89.0451" height="90" rx="7" fill="#EDF1F0"/>
<rect x="1038.86" y="1040" width="89.0451" height="90" rx="7" fill="#EDF1F0"/>
<rect x="1142.75" y="1040" width="89.0451" height="90" rx="7" fill="#EDF1F0"/>
<rect x="1246.63" y="1040" width="89.0451" height="90" rx="7" fill="#FBC98F"/>
<rect x="415.544" y="1040" width="89.0451" height="90" rx="7" fill="#EDF1F0"/>
<rect x="519.43" y="1040" width="89.0451" height="90" rx="7" fill="#EDF1F0"/>
<rect x="623.315" y="1040" width="89.0451" height="90" rx="7" fill="#EDF1F0"/>
<rect x="727.201" y="1040" width="89.0451" height="90" rx="7" fill="#C4B0D5"/>
<rect x="1350.52" y="1040" width="89.0451" height="90" rx="7" fill="#FBC98F"/>
<rect y="1144" width="89.0451" height="90" rx="7" fill="#EDF1F0"/>
<rect x="103.886" y="1144" width="89.0451" height="90" rx="7" fill="#EDF1F0"/>
<rect x="207.771" y="1144" width="89.0451" height="90" rx="7" fill="#FBC98F"/>
<rect x="311.658" y="1144" width="89.0451" height="90" rx="7" fill="#EDF1F0"/>
<rect x="831.088" y="1144" width="89.0451" height="90" rx="7" fill="#EDF1F0"/>
<rect x="934.974" y="1144" width="89.0451" height="90" rx="7" fill="#9BDBA1"/>
<rect x="1038.86" y="1144" width="89.0451" height="90" rx="7" fill="#EDF1F0"/>
<rect x="1142.75" y="1144" width="89.0451" height="90" rx="7" fill="#EDF1F0"/>
<rect x="1246.63" y="1144" width="89.0451" height="90" rx="7" fill="#EDF1F0"/>
<rect x="415.544" y="1144" width="89.0451" height="90" rx="7" fill="#EDF1F0"/>
<rect x="519.43" y="1144" width="89.0451" height="90" rx="7" fill="#EDF1F0"/>
<rect x="623.315" y="1144" width="89.0451" height="90" rx="7" fill="#F9C7AA"/>
<rect x="727.201" y="1144" width="89.0451" height="90" rx="7" fill="#C4B0D5"/>
<rect x="1350.52" y="1144" width="89.0451" height="90" rx="7" fill="#FBC98F"/>
<rect y="1248" width="89.0451" height="90" rx="7" fill="#C4B0D5"/>
<rect x="103.886" y="1248" width="89.0451" height="90" rx="7" fill="#EDF1F0"/>
<rect x="207.771" y="1248" width="89.0451" height="90" rx="7" fill="#EDF1F0"/>
<rect x="311.658" y="1248" width="89.0451" height="90" rx="7" fill="#EDF1F0"/>
<rect x="831.088" y="1248" width="89.0451" height="90" rx="7" fill="#EDF1F0"/>
<rect x="934.974" y="1248" width="89.0451" height="90" rx="7" fill="#9BDBA1"/>
<rect x="1038.86" y="1248" width="89.0451" height="90" rx="7" fill="#EDF1F0"/>
<rect x="1142.75" y="1248" width="89.0451" height="90" rx="7" fill="#FF7F7F"/>
<rect x="1246.63" y="1248" width="89.0451" height="90" rx="7" fill="#FF7F7F"/>
<rect x="415.544" y="1248" width="89.0451" height="90" rx="7" fill="#EDF1F0"/>
<rect x="519.43" y="1248" width="89.0451" height="90" rx="7" fill="#F9C7AA"/>
<rect x="623.315" y="1248" width="89.0451" height="90" rx="7" fill="#F9C7AA"/>
<rect x="727.201" y="1248" width="89.0451" height="90" rx="7" fill="#C4B0D5"/>
<rect x="1350.52" y="1248" width="89.0451" height="90" rx="7" fill="#FF7F7F"/>
<rect y="1352" width="89.0451" height="90" rx="7" fill="#C4B0D5"/>
<rect x="103.886" y="1352" width="89.0451" height="90" rx="7" fill="#C4B0D5"/>
<rect x="207.771" y="1352" width="89.0451" height="90" rx="7" fill="#C4B0D5"/>
<rect x="311.658" y="1352" width="89.0451" height="90" rx="7" fill="#EDF1F0"/>
<rect x="831.088" y="1352" width="89.0451" height="90" rx="7" fill="#EDF1F0"/>
<rect x="934.974" y="1352" width="89.0451" height="90" rx="7" fill="#9BDBA1"/>
<rect x="1038.86" y="1352" width="89.0451" height="90" rx="7" fill="#EDF1F0"/>
<rect x="1142.75" y="1352" width="89.0451" height="90" rx="7" fill="#EDF1F0"/>
<rect x="1246.63" y="1352" width="89.0451" height="90" rx="7" fill="#EDF1F0"/>
<rect x="415.544" y="1352" width="89.0451" height="90" rx="7" fill="#EDF1F0"/>
<rect x="519.43" y="1352" width="89.0451" height="90" rx="7" fill="#F9C7AA"/>
<rect x="623.315" y="1352" width="89.0451" height="90" rx="7" fill="#FFE3A6"/>
<rect x="727.201" y="1352" width="89.0451" height="90" rx="7" fill="#C4B0D5"/>
<rect x="1350.52" y="1352" width="89.0451" height="90" rx="7" fill="#FF7F7F"/>
<rect y="1456" width="89.0451" height="90" rx="7" fill="#C4B0D5"/>
<rect x="103.886" y="1456" width="89.0451" height="90" rx="7" fill="#C4B0D5"/>
<rect x="207.771" y="1456" width="89.0451" height="90" rx="7" fill="#C4B0D5"/>
<rect x="311.658" y="1456" width="89.0451" height="90" rx="7" fill="#EDF1F0"/>
<rect x="831.088" y="1456" width="89.0451" height="90" rx="7" fill="#EDF1F0"/>
<rect x="934.974" y="1456" width="89.0451" height="90" rx="7" fill="#9BDBA1"/>
<rect x="1038.86" y="1456" width="89.0451" height="90" rx="7" fill="#9BDBA1"/>
<rect x="1142.75" y="1456" width="89.0451" height="90" rx="7" fill="#EDF1F0"/>
<rect x="1246.63" y="1456" width="89.0451" height="90" rx="7" fill="#EDF1F0"/>
<rect x="415.544" y="1456" width="89.0451" height="90" rx="7" fill="#EDF1F0"/>
<rect x="519.43" y="1456" width="89.0451" height="90" rx="7" fill="#FFE3A6"/>
<rect x="623.315" y="1456" width="89.0451" height="90" rx="7" fill="#FFE3A6"/>
<rect x="727.201" y="1456" width="89.0451" height="90" rx="7" fill="#FFE3A6"/>
<rect x="1350.52" y="1456" width="89.0451" height="90" rx="7" fill="#FF7F7F"/>
</svg>
