<?xml version="1.0" encoding="iso-8859-1"?>
<!-- Generator: Adobe Illustrator 19.0.0, SVG Export Plug-In . SVG Version: 6.00 Build 0)  -->
<svg version="1.1" id="Layer_1" xmlns="http://www.w3.org/2000/svg" xmlns:xlink="http://www.w3.org/1999/xlink" x="0px" y="0px"
	 viewBox="0 0 512 512" style="enable-background:new 0 0 512 512;" xml:space="preserve">
<path style="fill:#EC7838;" d="M89.043,512H22.261c-9.223,0-16.696-7.473-16.696-16.696V350.609
	c0-27.619,22.468-50.087,50.087-50.087s50.087,22.468,50.087,50.087v144.696C105.739,504.527,98.266,512,89.043,512z"/>
<path style="fill:#FFDE33;" d="M489.739,512h-66.783c-9.223,0-16.696-7.473-16.696-16.696V50.087
	C406.261,22.468,428.729,0,456.348,0s50.087,22.468,50.087,50.087v445.217C506.435,504.527,498.962,512,489.739,512z"/>
<path style="fill:#DB632C;" d="M89.043,512c9.223,0,16.696-7.473,16.696-16.696V350.609c0-27.619-22.468-50.087-50.087-50.087V512
	H89.043z"/>
<path style="fill:#50B9FF;" d="M222.609,500.87h-66.783c-9.223,0-16.696-7.473-16.696-16.696V116.87
	c0-27.619,22.468-50.087,50.087-50.087s50.087,22.468,50.087,50.087v367.304C239.304,493.397,231.831,500.87,222.609,500.87z"/>
<path style="fill:#7BCC29;" d="M356.174,500.87h-66.783c-9.223,0-16.696-7.473-16.696-16.696V183.652
	c0-27.619,22.468-50.087,50.087-50.087s50.087,22.468,50.087,50.087v300.522C372.87,493.397,365.397,500.87,356.174,500.87z"/>
<path style="fill:#48A7E6;" d="M222.609,500.87c9.223,0,16.696-7.473,16.696-16.696V116.87c0-27.619-22.468-50.087-50.087-50.087
	V500.87H222.609z"/>
<path style="fill:#6EB825;" d="M356.174,500.87c9.223,0,16.696-7.473,16.696-16.696V183.652c0-27.619-22.468-50.087-50.087-50.087
	V500.87H356.174z"/>
<path style="fill:#FFBC33;" d="M489.739,512c9.223,0,16.696-7.473,16.696-16.696V50.087C506.435,22.468,483.967,0,456.348,0v512
	H489.739z"/>
<path style="fill:#5C5F66;" d="M489.734,512H22.261c-9.223,0-16.696-7.473-16.696-16.696s7.473-16.696,16.696-16.696h467.473
	c9.217,0,16.696,7.473,16.696,16.696S498.951,512,489.734,512z"/>
<path style="fill:#53565C;" d="M489.734,478.609H256V512h233.734c9.217,0,16.696-7.473,16.696-16.696
	S498.951,478.609,489.734,478.609z"/>
<g>
</g>
<g>
</g>
<g>
</g>
<g>
</g>
<g>
</g>
<g>
</g>
<g>
</g>
<g>
</g>
<g>
</g>
<g>
</g>
<g>
</g>
<g>
</g>
<g>
</g>
<g>
</g>
<g>
</g>
</svg>
