<svg width="19" height="19" viewBox="0 0 19 19" fill="none" xmlns="http://www.w3.org/2000/svg">
<path fill-rule="evenodd" clip-rule="evenodd" d="M1.56507 1.80264C0.80773 2.58489 0.731652 3.77529 1.32495 4.63949L1.29415 4.67131L1.57966 4.94772C1.59178 4.96001 1.60408 4.97219 1.61655 4.98426C1.62902 4.99633 1.64159 5.00823 1.65426 5.01995L13.5799 16.5658L13.6115 16.5332C14.4944 17.0981 15.6816 16.9835 16.4388 16.2013C17.1961 15.4191 17.2722 14.2289 16.6791 13.3647L16.7101 13.3327L16.4187 13.0507C16.4084 13.0403 16.3979 13.0299 16.3873 13.0197C16.3768 13.0094 16.3661 12.9993 16.3554 12.9893L4.42429 1.43821L4.39267 1.47086C3.50973 0.905836 2.32241 1.02039 1.56507 1.80264Z" fill="#E44236"/>
<path fill-rule="evenodd" clip-rule="evenodd" d="M1.74946 13.256C1.75948 13.2457 1.76956 13.2355 1.77973 13.2254L13.3313 1.29376L13.3638 1.3252C14.228 0.732149 15.4182 0.808306 16.2003 1.56555C16.9825 2.32279 17.0971 3.5099 16.5323 4.3928L16.5644 4.42389L16.2754 4.72244C16.2676 4.73072 16.2598 4.73897 16.2518 4.74716C16.2439 4.75536 16.2359 4.76349 16.2279 4.77154L4.66992 16.7097L4.63731 16.6781C3.77315 17.271 2.58305 17.1948 1.80095 16.4376C1.01884 15.6805 0.904185 14.4934 1.46885 13.6105L1.43682 13.5795L1.71978 13.2873C1.72956 13.2768 1.73945 13.2664 1.74946 13.256Z" fill="#E44236"/>
</svg>
