<svg width="79" height="79" viewBox="0 0 79 79" fill="none" xmlns="http://www.w3.org/2000/svg">
<path d="M0 20C0 8.95431 8.95431 0 20 0H58.2622C69.3079 0 78.2622 8.95431 78.2622 20V58.2622C78.2622 69.3079 69.3079 78.2622 58.2622 78.2622H20C8.95431 78.2622 0 69.3079 0 58.2622V20Z" fill="#5EDA6A"/>
<path d="M55.92 52.8978H53.76V38.3259L55.177 39.3034C55.5053 39.5305 55.938 39.5606 56.2973 39.3798C56.6566 39.1997 56.8819 38.8395 56.8819 38.4457V35.6428C56.8819 35.3022 56.7127 34.9827 56.4262 34.785L49.8 30.2141V25.7441C49.8 25.1632 49.3162 24.693 48.72 24.693C48.1238 24.693 47.64 25.1632 47.64 25.7441V28.7236L39.6242 23.1934C39.2498 22.9355 38.7494 22.9355 38.3758 23.1934L21.5753 34.785C21.2894 34.982 21.1195 35.3015 21.1195 35.6428V38.4457C21.1195 38.8388 21.3449 39.199 21.7042 39.3798C21.8604 39.4583 22.0303 39.4968 22.1995 39.4968C22.4198 39.4968 22.638 39.4317 22.8238 39.3034L24.24 38.3259V52.8978H22.08C21.4838 52.8978 21 53.368 21 53.9489C21 54.5298 21.4838 55 22.08 55H25.32H35.3539H42.6475H52.68H55.92C56.5162 55 57 54.5298 57 53.9489C57 53.368 56.5162 52.8978 55.92 52.8978ZM43.7268 52.8978V40.9761C43.7268 40.3952 43.243 39.925 42.6468 39.925H35.3532C34.757 39.925 34.2732 40.3952 34.2732 40.9761V52.8978H26.4V37.0723C26.4 36.9966 26.3914 36.9237 26.3755 36.8529L39 28.1427L51.6245 36.8522C51.6086 36.923 51.6 36.9966 51.6 37.0723V52.8978H43.7268Z" fill="#FAFAFA"/>
</svg>
