<svg width="78" height="80" viewBox="0 0 78 80" fill="none" xmlns="http://www.w3.org/2000/svg">
<path d="M70.625 47.24C70.9118 51.4058 68.2045 53.8189 65.3202 53.3206C62.9125 52.9047 63.4701 48.2884 64.194 44.098C64.9179 39.9075 64.8272 39.2086 67.5443 39.4748C70.2613 39.7411 70.3383 43.0741 70.625 47.24Z" fill="#B96A43"/>
<path d="M64.9267 37.5232C66.6436 54.331 60.7902 68.0286 40.4277 70.868C20.0652 73.7074 11.5954 59.9544 9.87841 43.1466C8.16142 26.3389 19.0925 11.4547 34.2937 9.90179C49.4948 8.34893 63.2097 20.7155 64.9267 37.5232Z" fill="#BD724A"/>
<mask id="mask0" mask-type="alpha" maskUnits="userSpaceOnUse" x="6" y="7" width="63" height="67">
<path d="M64.911 37.4473C66.628 54.255 60.7746 67.9526 40.4121 70.7921C20.0496 73.6315 11.5798 59.8785 9.86278 43.0707C8.1458 26.263 19.0769 11.3787 34.278 9.82586C49.4792 8.273 63.194 20.6395 64.911 37.4473Z" fill="#896551"/>
</mask>
<g mask="url(#mask0)">
<path fill-rule="evenodd" clip-rule="evenodd" d="M7.4613 42.4946L7.63603 37.5612C7.92056 37.5365 8.17679 37.5455 8.41212 37.5538C9.0008 37.5745 9.4587 37.5906 9.9015 37.0638C10.5384 36.306 20.3275 35.7588 24.2819 36.2191C26.9999 36.5355 31.5031 38.4707 33.0867 39.3707C33.0399 39.3314 33.5263 39.3443 34.8823 39.3802L34.8824 39.3802L34.8827 39.3802C35.6185 39.3997 36.6103 39.426 37.9118 39.4544C44.699 35.9708 53.4991 37.3781 57.1981 37.9696L57.2562 37.9789L62.9341 39.7955L65.1949 40.4025C65.1954 40.5469 65.2481 40.7702 65.3025 41.0009L65.3025 41.0009C65.3994 41.4116 65.5017 41.8452 65.3244 41.8969L65.3025 41.9033C64.8318 42.0403 64.7222 42.0722 63.8686 43.629C62.699 44.0315 61.0698 46.0797 60.025 49.0811C59.5175 51.3333 56.0473 54.1433 54.4533 54.2814C52.8593 54.4195 49.3724 54.7217 44.985 53.8974C41.9049 52.6386 39.5367 49.3251 38.811 47.5143L38.8206 47.5363C38.8487 47.6006 38.8652 47.6383 38.8656 47.6381C38.8662 47.6378 38.8346 47.5615 38.7581 47.3765C38.5954 46.9833 38.2296 46.0994 37.5385 44.4127C36.9031 42.8618 34.3512 42.3803 32.9299 44.5109C32.5746 45.0436 30.7408 48.206 30.1297 49.2627C29.661 50.0733 26.6375 52.978 24.463 53.3671C20.8766 53.6779 14.9861 52.8835 14.4535 52.5282C13.788 52.0842 11.7557 50.353 11.5219 49.9718C11.2039 49.4532 9.97642 47.1949 9.83829 45.6009C9.78995 45.043 8.38382 42.7158 7.4613 42.4946ZM11.4649 40.0475C11.7091 39.3906 12.9918 38.0972 14.4802 37.7788C15.583 37.5428 17.7146 37.6596 19.8143 37.7746L19.8143 37.7746C20.7167 37.824 21.6132 37.8731 22.4196 37.8938C24.2128 37.7384 29.4146 38.6928 30.1285 41.1403C30.2557 41.5764 30.2978 42.3698 30.3447 43.2542L30.3447 43.2543C30.3701 43.7325 30.3969 44.2373 30.4393 44.7268C30.5601 46.1215 28.6752 48.6938 28.2203 49.2351C27.7653 49.7763 25.5906 51.321 25.0057 51.5211C24.5829 51.6657 21.1612 51.4945 18.3715 51.355C17.3017 51.3015 16.3248 51.2527 15.6457 51.2281C13.9906 50.6612 11.5599 48.094 11.506 47.4715C11.4369 46.6745 11.174 42.4816 11.4649 40.0475ZM40.7274 41.8279C41.0655 41.096 42.0737 39.9894 43.8314 39.4234C45.8412 38.7762 52.5858 39.246 55.0639 39.4186C55.5958 39.4556 55.9311 39.479 55.9809 39.4747C56.2797 39.4488 58.6857 40.5728 58.7807 41.6687C58.7807 41.6687 59.0476 47.0657 58.8523 48.2871C58.6713 49.4191 57.869 50.3463 57.6077 50.6483C57.5871 50.6721 57.5698 50.6921 57.5565 50.7079C57.3745 50.9244 55.6112 52.5828 55.022 52.7343C54.6346 52.8338 51.017 52.7357 48.4725 52.6667C47.1482 52.6308 46.1146 52.6028 45.9781 52.6146C45.5797 52.6491 43.2412 51.1454 42.8081 50.7815C42.3751 50.4175 40.7559 47.9481 40.6131 47.4586C40.1895 46.0066 40.2419 43.1748 40.3156 42.8673C40.3365 42.7801 40.3515 42.7177 40.3699 42.6562C40.4165 42.501 40.4852 42.3523 40.7274 41.8279Z" fill="#B36841"/>
<path d="M14.6207 14.4322C0.20417 22.7916 6.90888 31.1164 6.81092 31.1364C6.40427 32.3083 6.90613 35.8735 7.84477 43.1732C8.8806 51.2289 12.0828 56.902 12.0246 52.627C11.9702 48.6267 12.1629 43.9908 12.7432 42.171C14.1901 36.7714 13.5609 35.1929 14.1661 35.069C56.9782 26.3094 53.0115 16.9882 52.8559 21.7152C52.7003 26.4423 53.1301 26.0481 53.7515 29.0852C54.3728 32.1222 51.9572 35.7806 56.8449 41.2109C57.8712 42.3512 57.9609 49.6585 58.5487 49.5382C61.4878 48.9368 65.2604 39.9381 63.8312 28.9621C62.4019 17.9861 54.1639 12.9759 50.2235 11.8428C43.1615 9.91943 26.154 7.74464 14.6207 14.4322Z" fill="black" fill-opacity="0.15"/>
</g>
<path d="M16.4059 11.2719C1.98933 19.6313 8.69404 27.9561 8.59607 27.9761C8.18942 29.1481 8.69129 32.7132 9.62992 40.0129C10.6658 48.0686 13.8679 53.7417 13.8098 49.4667C13.7554 45.4664 13.948 40.8306 14.5283 39.0107C15.9753 33.6111 15.3461 32.0326 15.9513 31.9088C58.7633 23.1491 54.7967 13.8279 54.6411 18.555C54.4855 23.282 54.9152 22.8879 55.5366 25.9249C56.158 28.9619 53.7424 32.6203 58.63 38.0506C59.6564 39.1909 59.7461 46.4982 60.3339 46.3779C63.2729 45.7766 67.0455 36.7779 65.6163 25.8018C64.1871 14.8258 55.949 9.81559 52.0087 8.6825C44.9466 6.75916 27.9392 4.58436 16.4059 11.2719Z" fill="black"/>
<path d="M19.2783 13.9458C15.2315 17.7134 14.8895 22.2609 15.2243 24.0636C14.9728 24.8296 10.1633 23.7723 10.1633 23.7723C7.63258 18.1124 21.2503 12.1099 19.2783 13.9458Z" fill="#72696A"/>
<path d="M15.9525 41.0111L14.3255 39.1764C19.0478 36.6208 22.1632 36.2242 28.0185 36.178L29.8398 36.3737C23.8654 37.0107 20.6002 37.5497 15.9525 41.0111Z" fill="black"/>
<path d="M55.6748 40.8189L57.5427 39.2572C53.3227 36.0036 50.3422 35.1311 44.6338 34.1822L42.8262 34.0945C48.5607 35.6456 51.6658 36.6819 55.6748 40.8189Z" fill="black"/>
<path d="M47.4877 36.6573L43.187 36.946L39.4549 42.1025L39.9727 45.867L41.3448 48.5046L45.7571 51.2287L49.0052 52.0941L53.3195 51.9045L57.8257 50.1744L60.0409 45.7312L60.5373 42.7357L60.2586 39.2411L57.4722 36.5962L53.2879 36.2633L47.4877 36.6573Z" fill="white" fill-opacity="0.15"/>
<path d="M53.4864 51.8164L56.5903 36.9552L52.2215 36.7486L48.6359 51.777L53.4864 51.8164Z" fill="white" fill-opacity="0.15"/>
<path d="M22.2442 52.1769L25.3481 37.3157L20.9793 37.109L17.3937 52.1374L22.2442 52.1769Z" fill="white" fill-opacity="0.15"/>
<path d="M15.0931 37.6157L11.5268 38.1062L11.2296 38.1471L10.8027 46.7856L12.9464 50.6293L17.0961 52.1783L23.7843 52.3687L28.1332 50.963L31.5235 46.2573L31.5964 43.1181L30.6242 39.719L27.6943 37.4975L19.3529 37.0298L15.0931 37.6157Z" fill="white" fill-opacity="0.15"/>
<path fill-rule="evenodd" clip-rule="evenodd" d="M7.78934 43.3567L7.71607 38.4208C7.999 38.3819 8.25536 38.378 8.49082 38.3744C9.07979 38.3655 9.53792 38.3586 9.95369 37.8102C10.5518 37.0214 20.301 35.9833 24.2736 36.2444C27.004 36.4239 31.5987 38.1305 33.2255 38.9497C33.1768 38.9128 33.6632 38.9013 35.0194 38.8691L35.0194 38.8691L35.0197 38.8691C35.7555 38.8516 36.7474 38.828 38.0488 38.791C44.6524 34.9709 53.512 35.9344 57.2361 36.3394L57.2946 36.3458L63.0566 37.8749L65.345 38.3676C65.3528 38.5118 65.4166 38.7322 65.4825 38.9598L65.4826 38.9599C65.5999 39.3651 65.7239 39.7931 65.5494 39.8536L65.5279 39.8611C65.0646 40.0216 64.9568 40.0589 64.1824 41.6567C63.0345 42.1174 61.5102 44.2449 60.6175 47.2949C60.2238 49.5697 56.899 52.5505 55.314 52.7685C53.729 52.9865 50.2617 53.4634 45.8384 52.8605C42.6989 51.758 40.1673 48.5676 39.3516 46.7956L39.3623 46.8171C39.3936 46.8798 39.4119 46.9167 39.4124 46.9165C39.413 46.9162 39.3776 46.8415 39.2918 46.6606C39.1096 46.2761 38.6998 45.4117 37.9249 43.7618C37.2124 42.2448 34.6396 41.8921 33.3271 44.0914C32.9989 44.6412 31.3263 47.8917 30.7691 48.9778C30.3417 49.8109 27.4679 52.8638 25.3157 53.3616C21.7494 53.8522 15.8265 53.3546 15.2766 53.0265C14.5897 52.6165 12.473 50.9896 12.2204 50.6205C11.8767 50.1186 10.5374 47.9248 10.3194 46.3397C10.243 45.785 8.7218 43.5313 7.78934 43.3567ZM11.665 40.7117C11.8759 40.0434 13.092 38.6872 14.5625 38.2943C15.6521 38.0033 17.7869 38.0128 19.8897 38.0222C20.7934 38.0263 21.6913 38.0303 22.4977 38.0104C24.2809 37.7652 29.5239 38.4572 30.3599 40.8657C30.5089 41.2949 30.5908 42.0851 30.682 42.9661L30.682 42.9661C30.7314 43.4424 30.7835 43.9453 30.8504 44.432C31.0412 45.8189 29.2878 48.4826 28.8606 49.0461C28.4334 49.6095 26.3391 51.2615 25.7649 51.4907C25.35 51.6563 21.924 51.6572 19.1308 51.658L19.1308 51.658C18.0596 51.6583 17.0815 51.6586 16.402 51.6681C14.7205 51.1851 12.164 48.7432 12.0789 48.1242C11.9699 47.3317 11.4967 43.1573 11.665 40.7117ZM40.9796 41.0201C41.2805 40.2721 42.2318 39.1163 43.9588 38.4627C45.9336 37.7154 52.6933 37.8459 55.1769 37.8938C55.71 37.9041 56.0461 37.9106 56.0956 37.9038C56.3928 37.8629 58.8522 38.8647 59.0021 39.9544C59.0021 39.9544 59.5397 45.3311 59.406 46.5608C59.2821 47.7005 58.5274 48.6668 58.2816 48.9816C58.2622 49.0064 58.2459 49.0272 58.2334 49.0437C58.0626 49.2691 56.3847 51.0139 55.8039 51.1947C55.422 51.3137 51.804 51.3974 49.2592 51.4563C47.9348 51.4869 46.9011 51.5108 46.7655 51.5295C46.3692 51.584 43.9581 50.1996 43.5074 49.8579C43.0566 49.5161 41.3154 47.1312 41.1482 46.6495C40.6523 45.2206 40.5623 42.3897 40.6205 42.0789C40.637 41.9908 40.6488 41.9276 40.6641 41.8654C40.7029 41.708 40.764 41.556 40.9796 41.0201Z" fill="#010000"/>
<path fill-rule="evenodd" clip-rule="evenodd" d="M7.73465 42.9605L7.66139 38.0246C7.94431 37.9856 8.20068 37.9818 8.43613 37.9782C9.0251 37.9693 9.48323 37.9624 9.89901 37.414C10.4971 36.6251 20.2463 35.587 24.2189 35.8481C26.9493 36.0276 31.544 37.7342 33.1708 38.5535C33.1221 38.5166 33.6085 38.505 34.9647 38.4728L34.9647 38.4728L34.965 38.4728C35.7008 38.4553 36.6927 38.4318 37.9941 38.3948C44.5977 34.5747 53.4573 35.5382 57.1814 35.9432L57.2399 35.9496L63.0019 37.4786L65.2904 37.9714C65.2981 38.1155 65.3619 38.336 65.4278 38.5636L65.4279 38.5636C65.5453 38.9689 65.6692 39.3968 65.4947 39.4574L65.4732 39.4649C65.0099 39.6254 64.9021 39.6627 64.1277 41.2604C62.9798 41.7211 61.4555 43.8486 60.5628 46.8987C60.1691 49.1735 56.8444 52.1542 55.2593 52.3723C53.6743 52.5903 50.207 53.0672 45.7837 52.4643C42.6443 51.3618 40.1126 48.1714 39.2969 46.3994L39.3076 46.4209C39.3389 46.4836 39.3572 46.5204 39.3577 46.5202C39.3583 46.5199 39.3229 46.4452 39.2371 46.2643C39.0549 45.8798 38.6451 45.0155 37.8702 43.3655C37.1577 41.8485 34.5849 41.4958 33.2724 43.6951C32.9442 44.245 31.2716 47.4955 30.7144 48.5815C30.287 49.4146 27.4132 52.4675 25.261 52.9654C21.6947 53.4559 15.7718 52.9584 15.2219 52.6302C14.535 52.2203 12.4183 50.5933 12.1657 50.2243C11.822 49.7224 10.4827 47.5286 10.2647 45.9435C10.1884 45.3887 8.66711 43.1351 7.73465 42.9605ZM11.6103 40.3154C11.8212 39.6471 13.0374 38.2909 14.5079 37.8981C15.5974 37.607 17.7322 37.6166 19.835 37.626C20.7387 37.6301 21.6366 37.6341 22.443 37.6142C24.2262 37.3689 29.4693 38.0609 30.3052 40.4694C30.4542 40.8986 30.5361 41.6889 30.6273 42.5699L30.6273 42.5699C30.6767 43.0462 30.7288 43.5491 30.7957 44.0358C30.9865 45.4227 29.2331 48.0864 28.806 48.6498C28.3788 49.2133 26.2844 50.8652 25.7103 51.0944C25.2953 51.2601 21.8693 51.261 19.0761 51.2618L19.0761 51.2618C18.005 51.2621 17.0268 51.2624 16.3473 51.2719C14.6659 50.7889 12.1093 48.347 12.0242 47.728C11.9152 46.9355 11.442 42.7611 11.6103 40.3154ZM40.9247 40.6239C41.2256 39.876 42.177 38.7201 43.904 38.0666C45.8788 37.3193 52.6385 37.4497 55.1221 37.4976C55.6551 37.5079 55.9912 37.5144 56.0407 37.5076C56.3379 37.4667 58.7973 38.4685 58.9472 39.5582C58.9472 39.5582 59.4849 44.935 59.3512 46.1646C59.2273 47.3044 58.4725 48.2707 58.2267 48.5854C58.2073 48.6103 58.1911 48.631 58.1786 48.6475C58.0077 48.8729 56.3298 50.6178 55.7491 50.7986C55.3671 50.9175 51.7492 51.0012 49.2044 51.0601C47.88 51.0907 46.8462 51.1147 46.7106 51.1333C46.3143 51.1878 43.9033 49.8035 43.4525 49.4617C43.0017 49.1199 41.2606 46.735 41.0934 46.2533C40.5974 44.8244 40.5075 41.9935 40.5657 41.6827C40.5821 41.5946 40.594 41.5315 40.6093 41.4692C40.648 41.3118 40.7091 41.1599 40.9247 40.6239Z" fill="#281624"/>
<path d="M27.5792 43.3751C27.9081 46.8388 25.3222 49.9176 21.8035 50.2517C16.8666 50.2517 15.4548 47.043 15.4547 44.8939C15.4545 42.7449 18.3584 40.9811 21.1908 39.9643C24.7095 39.6302 27.2503 39.9114 27.5792 43.3751Z" fill="#D3D3D2"/>
<path d="M26.2707 44.4034C26.5996 47.8671 23.3547 49.5626 21.4955 49.5626C19.1838 49.5626 16.216 48.1275 16.2491 44.9075C16.6948 41.8827 21.0228 40.8296 21.0228 40.8296C23.3959 40.0276 25.9418 40.9396 26.2707 44.4034Z" fill="#EEEEEE"/>
<ellipse cx="21.2898" cy="45.7147" rx="2.77582" ry="2.86256" transform="rotate(-5.42399 21.2898 45.7147)" fill="black"/>
<path d="M43.1931 42.7388C42.6995 46.1829 45.1083 49.3774 48.5732 49.874C53.4574 50.1025 55.0099 46.9632 55.1144 44.8169C55.2189 42.6706 52.4317 40.7746 49.679 39.628C46.2141 39.1315 43.6867 39.2946 43.1931 42.7388Z" fill="#D3D3D2"/>
<path d="M44.4376 43.8264C43.944 47.2705 47.072 49.1141 48.9113 49.2001C51.1983 49.3072 54.2041 48.0112 54.3278 44.7938C54.0337 41.7522 49.803 40.5001 49.803 40.5001C47.4942 39.5893 44.9312 40.3823 44.4376 43.8264Z" fill="#EEEEEE"/>
<ellipse rx="2.74894" ry="2.86256" transform="matrix(-0.989887 -0.141861 -0.141861 0.989887 49.3025 45.3665)" fill="black"/>
<path d="M38.7106 52.6499C38.881 52.5029 38.9814 52.4119 38.9814 52.4119C38.9059 52.4946 38.8145 52.574 38.7106 52.6499C38.0485 53.2211 36.3284 54.6377 35.3243 54.8464C34.0619 55.1088 32.5416 53.6876 32.5416 53.6876C32.5416 53.6876 34.5858 53.9666 35.0846 53.877C35.5365 53.7958 37.7089 53.3817 38.7106 52.6499Z" fill="black"/>
<path d="M31.9025 42.2258C31.883 42.0267 33.0577 41.7107 33.0967 42.1087C33.1357 42.5068 33.34 44.5968 32.9517 44.7353C32.5634 44.8739 31.922 42.4248 31.9025 42.2258Z" fill="#170D15"/>
<path d="M38.1838 41.5252C38.1725 41.3256 36.9631 41.1936 36.9857 41.593C37.0083 41.9923 37.1273 44.0889 37.5324 44.1662C37.9374 44.2434 38.195 41.7249 38.1838 41.5252Z" fill="#170D15"/>
<path d="M29.7112 66.0001C28.8905 66.1956 26.9974 66.7227 27.8042 64.6513C28.611 62.5799 32.9294 60.2345 36.0568 60.0982C39.1843 59.9619 41.9314 60.8708 44.2255 62.9803C44.9239 64.1912 44.1701 64.1751 43.321 64.5267C42.4719 64.8784 41.97 64.6542 41.0165 64.0539C38.9331 62.2767 34.4778 61.5365 31.0628 64.9342C31.0628 64.9342 30.5319 65.8046 29.7112 66.0001Z" fill="#FBFFFF"/>
</svg>
