<svg width="51" height="60" viewBox="0 0 51 60" fill="none" xmlns="http://www.w3.org/2000/svg">
<path d="M3.74381 23.166C4.8464 12.6195 14.2899 4.96366 24.8364 6.06625C35.3829 7.16885 43.0387 16.6123 41.9361 27.1588L40.5048 40.8497C39.4022 51.3962 29.9587 59.052 19.4122 57.9494C8.86569 56.8468 1.20989 47.4033 2.31248 36.8568L3.74381 23.166Z" fill="#45837C"/>
<path d="M10.2165 19.9294C11.3191 9.38289 20.7625 1.72708 31.309 2.82968C41.8555 3.93227 49.5113 13.3757 48.4087 23.9222L46.9774 37.6131C45.8748 48.1596 36.4314 55.8154 25.8849 54.7128C15.3383 53.6102 7.68254 44.1667 8.78514 33.6202L10.2165 19.9294Z" fill="#AE7558"/>
<path d="M8.92154 19.9294C10.0241 9.38289 19.4676 1.72708 30.0141 2.82968C40.5606 3.93227 48.2164 13.3757 47.1138 23.9222L45.6825 37.6131C44.5799 48.1596 35.1364 55.8154 24.5899 54.7128C14.0434 53.6102 6.38762 44.1667 7.49022 33.6202L8.92154 19.9294Z" fill="#C08162"/>
<circle cx="23.5403" cy="7.63037" r="3.88403" fill="#D1A58C"/>
</svg>
