<svg width="40" height="40" viewBox="0 0 40 40" fill="none" xmlns="http://www.w3.org/2000/svg">
<g clip-path="url(#clip0)">
<path d="M22.5 12.5002V7.50023C22.5 6.56395 21.9763 5.70579 21.1438 5.27733C20.3113 4.84764 19.3103 4.92332 18.5474 5.46531L1.04736 17.9653C0.389402 18.4353 0 19.1933 0 20.0002C0 20.8071 0.389405 21.5652 1.04736 22.0351L18.5474 34.5351C18.9795 34.8428 19.4885 35.0002 20 35.0002C20.3906 35.0002 20.7837 34.9087 21.1438 34.7231C21.9763 34.2947 22.5 33.4365 22.5 32.5002V27.5002H40V12.5002H22.5L22.5 12.5002Z" fill="#5EDA6A"/>
<rect x="18.7598" y="7" width="2.28054" height="18.124" rx="1.14027" transform="rotate(54.427 18.7598 7)" fill="#BBEABF"/>
</g>
<defs>
<clipPath id="clip0">
<rect width="40" height="40" fill="white"/>
</clipPath>
</defs>
</svg>
