<?xml version="1.0" encoding="iso-8859-1"?>
<!-- Generator: Adobe Illustrator 19.0.0, SVG Export Plug-In . SVG Version: 6.00 Build 0)  -->
<svg version="1.1" id="Capa_1" xmlns="http://www.w3.org/2000/svg" xmlns:xlink="http://www.w3.org/1999/xlink" x="0px" y="0px"
	 viewBox="0 0 376.163 376.163" style="enable-background:new 0 0 376.163 376.163;" xml:space="preserve">
<g>
	<g>
		<path style="fill:#083863;" d="M349.518,367.804H41.796C18.713,367.804,0,349.091,0,326.008v-307.2
			C0,13.037,4.678,8.359,10.449,8.359l0,0c5.771,0,10.449,4.678,10.449,10.449v307.2c0,11.542,9.356,20.898,20.898,20.898h307.722
			c5.771,0,10.449,4.678,10.449,10.449l0,0C359.967,363.126,355.289,367.804,349.518,367.804z"/>
		
			<rect x="106.517" y="226.875" transform="matrix(-0.6871 0.7266 -0.7266 -0.6871 391.3604 306.1036)" style="fill:#083863;" width="46.498" height="20.898"/>
		<polygon style="fill:#083863;" points="199.053,208.457 193.829,188.604 195.396,188.082 239.282,176.065 245.029,195.918 		"/>
		<polygon style="fill:#083863;" points="295.706,157.257 278.988,144.196 279.51,144.196 314.514,101.878 330.71,115.461 		"/>
	</g>
	<g>
		<path style="fill:#00EFD1;" d="M207.935,196.441L207.935,196.441c-4.04-21.26-24.551-35.219-45.811-31.179
			c-21.26,4.04-35.219,24.551-31.179,45.811c3.539,18.62,19.898,32.038,38.851,31.866c21.523-0.281,38.902-17.661,39.184-39.184
			C208.853,201.29,208.504,198.842,207.935,196.441z"/>
		<circle style="fill:#00EFD1;" cx="91.429" cy="271.673" r="39.184"/>
	</g>
	<g>
		<path style="fill:#00CEB4;" d="M294.139,142.629c-6.922-6.105-15.848-9.452-25.078-9.404c-21.641,0-39.184,17.543-39.184,39.184
			s17.543,39.184,39.184,39.184s39.184-17.543,39.184-39.184C308.22,160.874,303.047,149.954,294.139,142.629z"/>
		<circle style="fill:#00CEB4;" cx="336.98" cy="83.592" r="39.184"/>
	</g>
</g>
<g>
</g>
<g>
</g>
<g>
</g>
<g>
</g>
<g>
</g>
<g>
</g>
<g>
</g>
<g>
</g>
<g>
</g>
<g>
</g>
<g>
</g>
<g>
</g>
<g>
</g>
<g>
</g>
<g>
</g>
</svg>
