<svg width="231" height="588" viewBox="0 0 231 588" fill="none" xmlns="http://www.w3.org/2000/svg">
<path d="M194.457 552.549C194.952 556.135 193.517 558.229 199.082 561.459C202.496 563.486 209.694 565.201 213.503 566.627C217.409 567.81 220.847 569.993 223.397 572.909C225.383 575.838 226.412 579.212 226.365 582.644C226.431 582.896 226.423 583.159 226.342 583.408C226.261 583.656 226.109 583.882 225.902 584.062C225.695 584.241 225.439 584.37 225.161 584.433C224.882 584.497 224.589 584.495 224.312 584.426C216.032 584.419 207.763 583.853 199.577 582.733C195.2 582.34 190.87 581.594 186.641 580.505C180.849 578.602 175.354 576.034 170.291 572.864C170.002 572.718 169.756 572.512 169.574 572.263C169.436 571.902 169.436 571.51 169.574 571.149C170.885 563.375 172.245 555.444 176.277 548.383" fill="#BD724A"/>
<path d="M167.201 571.528C167.992 566.783 169.105 559.098 170.292 557.984C171.48 556.87 171.727 558.407 172.469 558.853C174.847 560.031 177.522 560.637 180.236 560.612C183.104 561.113 186.075 560.729 188.67 559.521C191.144 558.028 194.112 555.266 196.091 555.533C198.069 555.801 196.709 558.585 202.72 561.726C206.716 563.575 210.848 565.175 215.087 566.516C219.333 567.832 223.075 570.212 225.871 573.377C228.019 576.572 229.133 580.245 229.087 583.98C229.177 584.478 229.053 584.988 228.741 585.406C228.485 585.606 228.186 585.757 227.862 585.849C227.539 585.941 227.198 585.972 226.861 585.94C217.835 585.937 208.822 585.319 199.9 584.092C195.122 583.683 190.395 582.885 185.776 581.708C179.467 579.632 173.481 576.832 167.967 573.377C167.654 573.216 167.384 572.995 167.176 572.731C167.035 572.338 167.044 571.915 167.201 571.528Z" fill="#CE7165"/>
<path d="M167.2 572.374C167.151 572.094 167.151 571.808 167.2 571.528C167.868 567.585 168.561 563.62 169.525 559.721C171.94 561.735 173.89 564.157 175.264 566.85C176.9 569.482 177.895 572.398 178.182 575.404C185.994 578.894 194.325 581.347 202.917 582.688C202.905 581.942 202.971 581.196 203.115 580.461C204.664 574.606 208.706 569.533 214.369 566.337L215.21 566.627C219.366 568.186 224.931 570.169 227.429 573.31C229.927 576.451 232.203 580.616 228.468 585.918C209.175 590.73 183.698 584.314 167.819 574.468C167.429 574.263 167.146 573.928 167.03 573.536C166.914 573.144 166.975 572.726 167.2 572.374ZM210.61 564.578C212.118 563.531 210.387 561.169 208.73 562.083C205.465 563.909 201.581 565.825 199.825 568.988C198.91 570.637 201.829 572.374 203.239 571.038C204.649 569.701 205.341 568.632 206.603 567.563C207.864 566.493 209.249 565.535 210.61 564.578ZM204.747 561.838C206.133 560.924 204.599 559.142 203.14 559.61C199.618 560.779 196.532 562.817 194.235 565.491C194.018 565.772 193.89 566.1 193.864 566.441C193.838 566.783 193.915 567.124 194.087 567.429L194.309 567.785C194.472 568.042 194.718 568.248 195.014 568.376C195.31 568.503 195.643 568.546 195.967 568.498C197.896 568.298 198.292 566.694 199.454 565.558C201.098 564.185 202.869 562.94 204.747 561.838ZM199.504 558.853C201.136 557.828 199.256 555.4 197.574 556.291C194.854 557.761 190.921 559.164 189.165 561.637C188.959 561.91 188.837 562.226 188.811 562.555C188.785 562.883 188.856 563.212 189.016 563.508L189.264 563.887C189.469 564.228 189.812 564.485 190.221 564.605C190.631 564.726 191.076 564.7 191.465 564.533C192.751 563.909 193.37 562.751 194.557 561.971C196.189 560.902 197.871 559.9 199.504 558.853Z" fill="#7C3432"/>
<path d="M217.881 401.226C222.828 452.818 212.415 525.082 201.927 551.123C197.895 553.217 173.779 558.206 158.74 550.276C155.5 529.604 153.027 487.702 129.405 448.674C111.794 419.715 79.7129 455.758 79.7129 455.758L90.2251 396.459C90.2251 396.459 62.2255 398.464 117.606 385.499L173.012 372.556" fill="#354A6D"/>
<path d="M40.2866 552.548C39.7919 556.135 41.2265 558.229 35.6859 561.459C32.2478 563.486 25.0748 565.201 21.2409 566.627C17.3415 567.822 13.9067 570.003 11.347 572.909C9.36806 575.84 8.3478 579.214 8.40356 582.644C8.3199 583.096 8.43526 583.559 8.72512 583.936C8.9547 584.122 9.22563 584.262 9.51989 584.346C9.81415 584.431 10.125 584.458 10.4318 584.426C18.7121 584.419 26.9802 583.853 35.1665 582.733C39.5522 582.342 43.89 581.596 48.1275 580.505C53.9107 578.6 59.3975 576.032 64.4524 572.864C64.7534 572.725 65.0091 572.518 65.1944 572.263C65.332 571.902 65.332 571.51 65.1944 571.149C63.8835 563.375 62.5231 555.444 58.5161 548.383" fill="#BD724A"/>
<path d="M67.5687 571.528C66.7524 566.783 65.6394 559.098 64.4769 557.984C63.3143 556.87 63.0422 558.407 62.2755 558.853C59.9058 560.029 57.2393 560.635 54.5335 560.612C51.6656 561.11 48.6953 560.725 46.099 559.521C43.6255 558.028 40.6821 555.266 38.6785 555.533C36.675 555.801 38.0602 558.585 32.0249 561.726C28.0292 563.576 23.897 565.176 19.6576 566.516C15.4111 567.832 11.6698 570.212 8.87322 573.377C6.71063 576.567 5.59573 580.243 5.6577 583.98C5.56999 584.475 5.68422 584.981 5.97925 585.406C6.23515 585.606 6.53409 585.757 6.85747 585.849C7.18086 585.941 7.5218 585.972 7.85909 585.94C16.8931 585.937 25.914 585.319 34.8447 584.092C39.6143 583.681 44.333 582.883 48.9434 581.708C55.2607 579.632 61.2546 576.832 66.7772 573.377C67.0901 573.216 67.3603 572.995 67.5687 572.731C67.7054 572.339 67.7054 571.919 67.5687 571.528Z" fill="#CE7165"/>
<path d="M66.9249 574.468C51.0452 584.314 25.5932 590.73 6.3001 585.918C2.56516 580.616 4.93969 576.406 7.31422 573.31C9.68875 570.213 15.4025 568.075 19.5579 566.627L20.3989 566.337C26.0546 569.541 30.094 574.61 31.6532 580.461C31.7889 581.196 31.8469 581.942 31.8263 582.688C40.4177 581.346 48.7487 578.892 56.561 575.404C56.848 572.398 57.843 569.482 59.4797 566.85C60.8447 564.158 62.7864 561.736 65.1935 559.721C66.1581 563.62 66.8754 567.585 67.6669 571.528C67.7164 571.808 67.7164 572.094 67.6669 572.374C67.7735 572.555 67.8388 572.753 67.8591 572.957C67.8794 573.161 67.8542 573.367 67.7851 573.562C67.716 573.757 67.6043 573.938 67.4566 574.093C67.3088 574.249 67.1281 574.376 66.9249 574.468ZM28.1408 567.563C29.4023 568.632 30.3422 569.79 31.5048 571.038C32.6673 572.285 35.8333 570.637 34.9182 568.988C33.162 565.825 29.3034 563.909 26.0137 562.083C24.3812 561.169 22.625 563.531 24.1338 564.578C25.5242 565.511 26.8615 566.508 28.1408 567.563ZM35.2892 565.647C36.4517 566.783 36.8722 568.387 38.7768 568.587C39.101 568.638 39.4349 568.597 39.7319 568.469C40.0289 568.342 40.2743 568.134 40.434 567.874L40.6566 567.518C40.8286 567.213 40.9055 566.872 40.8794 566.531C40.8533 566.189 40.725 565.861 40.5082 565.58C38.2208 562.907 35.1432 560.869 31.6284 559.699C30.1691 559.142 28.6108 560.924 29.996 561.927C31.8827 563.019 33.6545 564.264 35.2892 565.647ZM40.2361 561.971C41.4234 562.751 42.0665 563.909 43.328 564.533C43.7206 564.701 44.1695 564.727 44.5832 564.607C44.9969 564.487 45.3441 564.23 45.5541 563.887L45.7767 563.508C45.9422 563.213 46.0157 562.884 45.9896 562.554C45.9635 562.225 45.8386 561.908 45.6283 561.637C43.8969 559.164 39.964 557.761 37.2185 556.291C35.5365 555.4 33.6814 557.828 35.2892 558.853C36.8969 559.877 38.5789 560.902 40.1867 561.971H40.2361Z" fill="#7C3432"/>
<path d="M16.9867 401.226C12.0398 452.818 22.4778 525.082 32.9406 551.123C36.9971 553.217 61.0887 558.206 76.1522 550.276C79.4172 529.604 81.7917 487.702 105.488 448.674C123.074 419.715 155.18 455.758 155.18 455.758L144.667 396.459C144.667 396.459 172.667 398.464 117.261 385.499L61.7566 372.556" fill="#354A6D"/>
<path d="M214.467 373.871C220.404 388.573 220.651 391.914 223.57 400.268C217.336 422.745 170.464 434.997 117.383 434.997C64.3027 434.997 17.4057 422.745 11.1973 400.223C14.116 391.87 14.3633 388.528 20.2749 373.826" fill="#CE4C32"/>
<path d="M163.663 267.078C162.575 279.776 169.673 292.006 178.677 302.052C273.998 408.417 199.375 281.592 204.327 216.912C176.352 200.517 148.624 201.029 139.571 192.765C138.818 192.106 137.833 191.703 136.786 191.626C135.739 191.548 134.695 191.802 133.833 192.342C128.784 194.864 123.152 196.29 117.384 196.507C111.608 196.294 105.967 194.867 100.911 192.342C100.048 191.802 99.0043 191.548 97.9574 191.626C96.9104 191.703 95.9259 192.106 95.1725 192.765C86.2433 201.007 58.0951 200.495 30.0954 216.89C34.9158 293.977 -54.6141 423.861 56.0669 302.03C65.194 291.983 72.1692 279.754 71.0809 267.056" fill="#FF815F"/>
<path d="M134.574 193.634C134.253 196.195 134.574 199.982 137.048 201.653C137.171 201.714 137.309 201.746 137.449 201.745C137.589 201.745 137.727 201.711 137.849 201.649C137.971 201.586 138.073 201.496 138.144 201.388C138.216 201.279 138.256 201.156 138.26 201.029C137.982 199.922 137.567 198.846 137.023 197.822C136.515 196.469 136.215 195.06 136.133 193.634C136.1 193.469 136.004 193.32 135.862 193.213C135.719 193.105 135.539 193.046 135.354 193.046C135.168 193.046 134.988 193.105 134.846 193.213C134.703 193.32 134.607 193.469 134.574 193.634Z" fill="#F45E3B"/>
<path d="M122.628 196.797C121.676 199.287 121.676 201.992 122.628 204.482C122.71 204.602 122.824 204.701 122.961 204.77C123.097 204.838 123.251 204.874 123.407 204.874C123.563 204.874 123.717 204.838 123.853 204.77C123.99 204.701 124.104 204.602 124.186 204.482C125.138 201.992 125.138 199.287 124.186 196.797C124.143 196.644 124.044 196.508 123.905 196.411C123.766 196.314 123.595 196.261 123.419 196.261C123.244 196.261 123.073 196.314 122.934 196.411C122.795 196.508 122.696 196.644 122.653 196.797H122.628Z" fill="#F45E3B"/>
<path d="M111.373 196.084C109.995 198.784 108.934 201.606 108.207 204.504C108.207 205.262 109.345 205.663 109.889 205.128C111.942 202.526 113.041 199.41 113.03 196.218C113.03 195.327 111.67 195.26 111.373 196.017V196.084Z" fill="#F45E3B"/>
<path d="M102.914 193.344C101.733 194.963 100.436 196.511 99.0301 197.977C97.6556 199.167 96.4508 200.507 95.4436 201.965C95.122 202.544 95.6662 203.435 96.4577 203.168C100.415 201.854 103.136 197.576 104.719 194.257C104.86 194.042 104.9 193.784 104.831 193.542C104.761 193.3 104.588 193.092 104.348 192.965C104.109 192.838 103.823 192.802 103.554 192.865C103.285 192.927 103.055 193.084 102.914 193.299V193.344Z" fill="#F45E3B"/>
<path d="M194.681 222.637C193.296 250.394 209.373 327.625 212.391 338.919C215.804 357.765 226.638 369.594 224.14 382.002C219.366 405.815 182.882 422.366 117.385 422.366C51.8874 422.366 15.379 405.815 10.6299 382.002C8.15643 369.594 18.9655 357.765 22.3789 338.919C25.3718 327.625 41.4494 250.394 40.0642 222.637" fill="#FF815F"/>
<path d="M82.7798 302.832C87.0976 305.137 92.2356 305.855 97.126 304.837C97.5217 304.837 97.9175 304.837 98.3379 304.703C96.7558 305.036 95.2207 305.529 93.762 306.173C91.5077 307.146 89.5542 308.604 88.0744 310.419C86.5947 312.233 85.6342 314.348 85.278 316.576C85.1618 318.669 85.5732 320.758 86.4814 322.687C87.3895 324.616 88.7709 326.335 90.5218 327.714C96.0871 332.37 105.363 333.573 111.324 329.251C114.899 326.273 117.076 322.177 117.408 317.801C117.582 318.737 117.755 319.673 117.977 320.631C118.378 322.853 119.383 324.951 120.902 326.739C122.421 328.526 124.407 329.948 126.684 330.878C128.874 331.559 131.206 331.785 133.507 331.538C135.807 331.291 138.016 330.578 139.966 329.452C146.472 325.932 150.38 318.18 147.387 311.898C145.128 307.856 141.218 304.758 136.479 303.255C136.263 303.168 136.056 303.064 135.86 302.943C137.241 303.353 138.668 303.622 140.115 303.745C142.595 304.022 145.113 303.742 147.443 302.93C149.774 302.118 151.845 300.798 153.472 299.089C154.814 297.386 155.712 295.431 156.098 293.371C156.483 291.311 156.346 289.2 155.698 287.194C153.768 280.511 146.595 275.031 139.051 275.833C135.18 276.868 131.737 278.915 129.157 281.714C133.461 277.571 134.104 271.511 132.422 268.771C131.272 266.961 129.682 265.407 127.772 264.227C125.862 263.046 123.681 262.27 121.391 261.955C113.97 260.73 105.288 264.183 102.914 270.865C101.736 274.881 102.237 279.146 104.324 282.85C103.652 282.368 103.016 281.847 102.419 281.291C100.757 279.608 98.6591 278.32 96.3118 277.543C93.9644 276.766 91.4403 276.523 88.9635 276.835C86.7185 277.315 84.6217 278.243 82.8279 279.55C81.0341 280.857 79.5892 282.51 78.5997 284.387C75.1863 290.535 76.5219 298.956 82.7798 302.832Z" fill="#F45E3B"/>
<path d="M118.967 308.089C102.865 308.089 102.84 285.545 118.967 285.545C135.094 285.545 135.094 308.089 118.967 308.089Z" fill="#F4CE6E"/>
<path d="M219.745 145.715C217.951 159.111 207.8 165.007 198.977 161.555C191.612 158.674 196.376 144.397 201.39 131.579C206.404 118.76 206.57 116.485 215.014 119.092C223.457 121.699 221.538 132.319 219.745 145.715Z" fill="#B96A43"/>
<path d="M206.198 119.895C200.737 174.307 173.289 213.945 106.875 209.738C40.4623 205.53 22.5271 156.423 27.9877 102.01C33.4483 47.5976 77.7687 7.49111 126.98 12.4298C176.192 17.3684 211.659 65.482 206.198 119.895Z" fill="#BD724A"/>
<mask id="mask0" mask-type="alpha" maskUnits="userSpaceOnUse" x="18" y="3" width="199" height="216">
<path d="M206.198 119.644C200.737 174.056 173.289 213.695 106.875 209.487C40.4623 205.279 22.5271 156.172 27.9877 101.759C33.4483 47.3469 77.7687 7.24038 126.98 12.179C176.192 17.1177 211.659 65.2313 206.198 119.644Z" fill="#896551"/>
</mask>
<g mask="url(#mask0)">
<path fill-rule="evenodd" clip-rule="evenodd" d="M17.9277 117.791L19.8697 101.931C20.7941 101.931 21.6179 102.032 22.3745 102.124L22.3745 102.124C24.267 102.355 25.7391 102.535 27.3141 100.96C29.5798 98.6945 61.2994 99.6655 73.9225 102.255C82.5988 104.035 96.5793 111.533 101.434 114.878C101.294 114.738 102.859 114.916 107.222 115.41L107.222 115.41L107.223 115.41C109.59 115.679 112.781 116.041 116.97 116.496C139.83 107.159 167.815 114.156 179.577 117.097L179.762 117.144L197.564 124.588L204.685 127.177C204.646 127.643 204.754 128.378 204.865 129.137L204.865 129.137C205.062 130.488 205.271 131.915 204.685 132.032L204.612 132.047C203.056 132.357 202.694 132.429 199.506 137.211C195.622 138.182 189.796 144.332 185.588 153.718C183.323 160.839 171.347 168.931 166.168 168.931C160.989 168.931 149.661 168.931 135.743 165.047C126.163 160.127 119.452 148.78 117.618 142.738C117.705 142.998 117.758 143.153 117.759 143.152C117.761 143.152 117.681 142.897 117.486 142.278C117.071 140.965 116.138 138.013 114.381 132.381C112.766 127.202 104.671 124.936 99.4924 131.41C98.1977 133.028 91.4006 142.714 89.1349 145.95C87.3969 148.433 76.8355 156.955 69.7148 157.602C58.0627 157.602 39.2899 153.395 37.6716 152.1C35.6496 150.482 29.5798 144.332 28.9325 143.037C28.052 141.276 24.7248 133.651 24.7248 128.472C24.7248 126.66 20.8408 118.762 17.9277 117.791ZM31.5218 111.019C32.4928 108.969 36.9907 105.156 41.8792 104.545C45.5012 104.092 52.3425 105.065 59.081 106.022C61.9773 106.434 64.8546 106.843 67.4491 107.135C73.2752 107.135 89.7823 111.666 91.4006 119.758C91.689 121.2 91.6031 123.77 91.5072 126.635C91.4553 128.184 91.4006 129.82 91.4006 131.41C91.4006 135.941 84.6036 143.709 82.9852 145.328C81.3669 146.946 73.9225 151.319 71.9805 151.801C70.5768 152.149 59.5907 150.641 50.6339 149.412H50.6338C47.1989 148.94 44.0624 148.51 41.8792 148.241C36.7005 145.95 29.5798 136.992 29.5798 134.97C29.5798 132.381 29.9035 118.787 31.5218 111.019ZM125.386 124.936C126.68 122.671 130.241 119.384 136.067 118.05C142.729 116.525 164.347 119.924 172.289 121.173C173.994 121.441 175.069 121.61 175.231 121.61C176.202 121.61 183.646 125.907 183.646 129.468C183.646 129.468 182.999 146.946 182.028 150.83C181.128 154.43 178.282 157.196 177.355 158.096C177.281 158.168 177.22 158.227 177.173 158.274C176.525 158.922 170.376 163.777 168.434 164.1C167.156 164.313 155.518 162.986 147.332 162.052C143.072 161.567 139.747 161.187 139.304 161.187C138.009 161.187 130.888 155.685 129.593 154.39C128.299 153.096 123.767 144.68 123.444 143.062C122.484 138.261 123.444 129.144 123.767 128.173C123.859 127.898 123.925 127.701 124.001 127.508C124.195 127.02 124.458 126.56 125.386 124.936Z" fill="#B36841"/>
<path d="M61.6569 14.0317C10.5172 31.1862 26.377 61.9347 26.0533 61.9347C24.0034 65.3872 23.2817 77.0181 21.522 100.775C19.58 126.992 26.0533 147.06 28.6427 133.466C31.0657 120.745 34.6845 106.17 37.7054 100.775C45.7972 84.5916 44.8261 79.1776 46.8255 79.1776C188.269 79.1776 181.738 47.046 178.178 61.9347C174.617 76.8235 176.236 75.8525 176.236 85.8863C176.236 95.92 166.202 105.954 178.178 126.345C180.693 130.627 176.236 153.857 178.178 153.857C187.888 153.857 205.69 127.769 208.279 92.036C210.868 56.3029 187.996 35.0702 176.236 28.9205C155.089 18.2394 102.569 0.308149 61.6569 14.0317Z" fill="black" fill-opacity="0.15"/>
</g>
<path d="M68.3933 4.96898C17.2535 22.1234 33.1133 52.872 32.7897 52.872C30.7398 56.3245 30.0181 67.9554 28.2583 91.7123C26.3163 117.93 32.7897 137.997 35.379 124.403C37.802 111.682 41.4208 97.1068 44.4418 91.7123C52.5335 75.5289 51.5625 70.1149 53.5619 70.1149C195.005 70.1149 188.475 37.9832 184.914 52.872C181.354 67.7608 182.972 66.7898 182.972 76.8235C182.972 86.8573 172.938 96.891 184.914 117.282C187.429 121.564 182.972 144.794 184.914 144.794C194.624 144.794 212.426 118.706 215.015 82.9732C217.605 47.2402 194.732 26.0075 182.972 19.8578C161.826 9.17667 109.305 -8.75459 68.3933 4.96898Z" fill="black"/>
<path d="M75.764 15.3116C60.4869 24.6333 56.4518 38.8316 56.3439 44.7655C55.0492 47.0313 40.4841 40.5579 40.4841 40.5579C36.1313 20.9682 83.2084 10.7693 75.764 15.3116Z" fill="#72696A"/>
<path d="M81.3652 122.67C81.3652 133.932 72.0909 143.062 60.6504 143.062C49.2099 143.062 39.9355 133.932 39.9355 122.67C39.9355 111.409 49.2099 102.279 60.6504 102.279C72.0909 102.279 81.3652 111.409 81.3652 122.67Z" fill="#D3D3D2"/>
<path d="M76.8344 125.584C76.8344 136.845 70.4054 142.738 59.6799 142.738C48.9545 142.738 40.2598 133.609 40.2598 122.347C40.2598 111.085 46.6888 105.192 57.4142 105.192C68.1397 105.192 76.8344 114.322 76.8344 125.584Z" fill="#EEEEEE"/>
<ellipse cx="60.6504" cy="130.438" rx="10.3574" ry="10.6811" fill="black"/>
<path d="M168.109 134.323C168.109 145.584 158.835 154.714 147.395 154.714C135.954 154.714 126.68 145.584 126.68 134.323C126.68 123.061 135.954 113.931 147.395 113.931C158.835 113.931 168.109 123.061 168.109 134.323Z" fill="#D3D3D2"/>
<path d="M163.579 137.236C163.579 148.497 157.15 154.39 146.424 154.39C135.699 154.39 127.004 145.261 127.004 133.999C127.004 122.737 133.433 116.844 144.158 116.844C154.884 116.844 163.579 125.974 163.579 137.236Z" fill="#EEEEEE"/>
<ellipse cx="147.395" cy="142.09" rx="10.3574" ry="10.6811" fill="black"/>
<path d="M148.042 109.724L134.124 108.753L119.883 123.641V135.941L123.12 145.004L136.066 155.685L146.1 159.892L160.018 161.187L175.23 157.627L184.293 144.356L187.206 134.97L187.853 123.641L180.085 113.931L166.815 111.018L148.042 109.724Z" fill="white" fill-opacity="0.15"/>
<path d="M160.989 159.893L177.496 113.608L163.579 111.019L145.453 157.627L160.989 159.893Z" fill="white" fill-opacity="0.15"/>
<path d="M60.6514 147.27L77.1585 100.985L63.2407 98.3955L45.1152 145.004L60.6514 147.27Z" fill="white" fill-opacity="0.15"/>
<path d="M44.1436 97.4243H32.4915H31.5205L26.3418 124.936L31.5205 138.207L44.1436 145.004L65.5058 148.564L80.0709 145.975L93.0176 132.381L94.636 122.347L93.0176 111.018L84.6022 102.603L58.0614 97.4243H44.1436Z" fill="white" fill-opacity="0.15"/>
<path fill-rule="evenodd" clip-rule="evenodd" d="M18.1895 112.612L20.1315 96.7525C21.0559 96.7525 21.8796 96.8531 22.6362 96.9455C24.5287 97.1767 26.0008 97.3565 27.5759 95.7815C29.8415 93.5158 61.5611 94.4868 74.1842 97.0761C82.8605 98.8559 96.8411 106.355 101.696 109.699C101.556 109.559 103.121 109.737 107.484 110.232L107.484 110.232C109.851 110.5 113.043 110.862 117.232 111.318C140.092 101.98 168.076 108.978 179.839 111.919L180.024 111.965L197.826 119.409L204.947 121.999C204.908 122.464 205.015 123.199 205.126 123.958L205.126 123.958C205.324 125.31 205.533 126.736 204.947 126.854L204.874 126.868C203.318 127.178 202.956 127.251 199.768 132.032C195.884 133.003 190.058 139.153 185.85 148.54C183.584 155.66 171.609 163.752 166.43 163.752C161.251 163.752 149.923 163.752 136.005 159.868C126.424 154.948 119.714 143.601 117.88 137.559C117.967 137.819 118.019 137.974 118.021 137.974C118.023 137.973 117.943 137.718 117.747 137.1C117.332 135.786 116.4 132.834 114.643 127.202C113.027 122.023 104.933 119.758 99.7541 126.231C98.4594 127.849 91.6623 137.535 89.3967 140.771C87.6586 143.254 77.0972 151.776 69.9765 152.424C58.3244 152.424 39.5516 148.216 37.9333 146.921C35.9113 145.304 29.8415 139.153 29.1942 137.858C28.3137 136.098 24.9865 128.472 24.9865 123.293C24.9865 121.481 21.1025 113.583 18.1895 112.612ZM31.7836 105.84C32.7546 103.79 37.2524 99.9776 42.141 99.3665C45.7629 98.9138 52.6042 99.8859 59.3428 100.844C62.239 101.255 65.1163 101.664 67.7108 101.956C73.5369 101.956 90.044 106.487 91.6623 114.579C91.9508 116.021 91.8648 118.591 91.7689 121.456C91.7171 123.005 91.6623 124.641 91.6623 126.231C91.6623 130.762 84.8653 138.53 83.2469 140.149C81.6286 141.767 74.1842 146.141 72.2422 146.622C70.8385 146.97 59.8524 145.462 50.8956 144.233C47.4606 143.762 44.3241 143.331 42.141 143.062C36.9623 140.771 29.8415 131.814 29.8415 129.791C29.8415 127.202 30.1652 113.608 31.7836 105.84ZM125.648 119.758C126.942 117.492 130.503 114.205 136.329 112.871C142.991 111.346 164.609 114.746 172.551 115.995C174.256 116.263 175.331 116.432 175.493 116.432C176.464 116.432 183.908 120.729 183.908 124.289C183.908 124.289 183.261 141.767 182.29 145.651C181.39 149.251 178.543 152.017 177.616 152.918C177.543 152.989 177.482 153.048 177.435 153.096C176.787 153.743 170.638 158.598 168.696 158.922C167.418 159.135 155.78 157.807 147.594 156.874C143.334 156.388 140.009 156.009 139.565 156.009C138.271 156.009 131.15 150.506 129.855 149.212C128.561 147.917 124.029 139.502 123.706 137.883C122.745 133.083 123.706 123.965 124.029 122.994C124.121 122.719 124.187 122.522 124.263 122.329C124.457 121.841 124.72 121.381 125.648 119.758Z" fill="#010000"/>
<path fill-rule="evenodd" clip-rule="evenodd" d="M18.1914 111.318L20.1334 95.4578C21.0578 95.4578 21.8816 95.5584 22.6381 95.6508C24.5306 95.882 26.0027 96.0619 27.5778 94.4868C29.8435 92.2211 61.5631 93.1921 74.1862 95.7815C82.8625 97.5612 96.843 105.06 101.698 108.405C101.558 108.265 103.123 108.442 107.486 108.937L107.486 108.937C109.853 109.206 113.045 109.568 117.234 110.023C140.094 100.686 168.078 107.683 179.841 110.624L180.026 110.67L197.828 118.115L204.949 120.704C204.91 121.17 205.017 121.905 205.128 122.663L205.128 122.664C205.326 124.015 205.535 125.442 204.949 125.559L204.876 125.573C203.32 125.884 202.958 125.956 199.77 130.738C195.886 131.709 190.06 137.858 185.852 147.245C183.586 154.366 171.611 162.457 166.432 162.457C161.253 162.457 149.925 162.457 136.007 158.573C126.426 153.654 119.716 142.307 117.882 136.265C117.969 136.524 118.021 136.68 118.023 136.679C118.025 136.678 117.945 136.423 117.749 135.805C117.334 134.491 116.402 131.539 114.645 125.907C113.029 120.729 104.935 118.463 99.756 124.936C98.4613 126.555 91.6643 136.24 89.3986 139.477C87.6606 141.96 77.0992 150.482 69.9785 151.129C58.3264 151.129 39.5536 146.921 37.9352 145.627C35.9133 144.009 29.8435 137.858 29.1962 136.564C28.3157 134.803 24.9885 127.177 24.9885 121.999C24.9885 120.186 21.1044 112.289 18.1914 111.318ZM31.7855 104.545C32.7565 102.495 37.2544 98.6829 42.1429 98.0718C45.7649 97.6191 52.6061 98.5913 59.3447 99.5489C62.241 99.9604 65.1182 100.369 67.7128 100.661C73.5388 100.661 90.046 105.193 91.6643 113.284C91.9527 114.726 91.8667 117.296 91.7709 120.162C91.719 121.711 91.6643 123.346 91.6643 124.936C91.6643 129.468 84.8672 137.236 83.2489 138.854C81.6306 140.472 74.1862 144.846 72.2442 145.328C70.8405 145.676 59.8544 144.168 50.8975 142.938C47.4626 142.467 44.3261 142.036 42.1429 141.767C36.9642 139.477 29.8435 130.519 29.8435 128.497C29.8435 125.907 30.1672 112.313 31.7855 104.545ZM125.649 118.463C126.943 116.197 130.504 112.91 136.33 111.577C142.992 110.051 164.61 113.451 172.552 114.7C174.257 114.968 175.332 115.137 175.494 115.137C176.465 115.137 183.909 119.434 183.909 122.994C183.909 122.994 183.262 140.472 182.291 144.356C181.391 147.956 178.544 150.722 177.617 151.623C177.544 151.694 177.483 151.753 177.436 151.801C176.788 152.448 170.639 157.303 168.697 157.627C167.419 157.84 155.781 156.512 147.595 155.579C143.335 155.093 140.01 154.714 139.566 154.714C138.272 154.714 131.151 149.211 129.856 147.917C128.562 146.622 124.03 138.207 123.707 136.588C122.747 131.788 123.707 122.671 124.03 121.7C124.122 121.424 124.188 121.227 124.264 121.034C124.458 120.547 124.721 120.086 125.649 118.463Z" fill="#281624"/>
<path d="M81.6896 93.8639V89.0088L43.8203 86.7432L81.6896 93.8639Z" fill="black"/>
<path d="M129.916 101.418L131.098 96.7086L168.379 103.732L129.916 101.418Z" fill="black"/>
<path d="M113.254 150.853C113.889 150.498 114.267 150.274 114.267 150.274C113.974 150.488 113.633 150.68 113.254 150.853C110.783 152.235 104.41 155.611 101.09 155.622C96.9169 155.635 93.0182 150.142 93.0182 150.142C93.0182 150.142 99.3195 152.352 100.959 152.392C102.445 152.428 109.603 152.524 113.254 150.853Z" fill="black"/>
<path d="M141.245 169.926C140.741 170.158 98.1137 174.552 67.125 162.482C73.2135 175.9 80.7191 184.168 104.023 185.139C127.327 186.11 141.75 169.695 141.245 169.926Z" fill="#FBFFFF"/>
<path d="M98.4265 113.38C98.4938 112.736 102.424 112.496 102.289 113.784C102.155 115.072 101.447 121.832 100.125 122.019C98.804 122.206 98.3592 114.024 98.4265 113.38Z" fill="#170D15"/>
<path d="M118.797 115.234C118.891 114.593 115.142 113.39 114.954 114.671C114.767 115.952 113.784 122.678 115.018 123.186C116.252 123.693 118.704 115.874 118.797 115.234Z" fill="#170D15"/>
</svg>
