<svg width="250" height="120" viewBox="0 0 250 120" fill="none" xmlns="http://www.w3.org/2000/svg">
<path d="M122.906 27.5246C139.951 25.6838 149.379 23.7698 166.075 19.5613L161.465 33.8114C156.403 34.8792 153.505 35.8564 148.053 37.5835C148.46 35.6719 148.848 34.6326 149.31 32.7601C142.566 34.8937 138.876 35.6991 132.546 37.1644C130.954 41.0606 130.378 43.3475 130.031 47.6425C141.442 45.5582 148.012 44.0552 159.788 40.9365C153.61 59.651 151.56 68.176 148.891 81.1723L110.332 86.2017L110.348 85.9931C110.94 78.499 111.276 74.2318 113.685 66.9221L128.354 63.15C126.951 66.9154 126.373 69.0916 125.84 73.1708C130.915 73.1271 133.767 72.7294 138.832 71.1133C139.888 64.1758 141.16 60.3444 143.443 53.5102C133.148 56.794 127.269 57.9689 116.619 59.3779L122.906 27.5246Z" fill="#B0ABAB" stroke="#B0ABAB" stroke-width="15"/>
<path fill-rule="evenodd" clip-rule="evenodd" d="M167.504 18.2239L162.197 34.6254L161.66 34.7387C157.122 35.6959 154.355 36.5755 149.811 38.0196C149.341 38.1691 148.851 38.3246 148.339 38.4869L146.787 38.9786L147.126 37.3863C147.335 36.4021 147.54 35.6425 147.748 34.9011C147.784 34.773 147.82 34.6459 147.856 34.5185C147.888 34.4048 147.92 34.2909 147.953 34.1758C142.641 35.8058 139.161 36.6093 134.137 37.7693C133.843 37.8371 133.544 37.9061 133.239 37.9767C131.974 41.1342 131.423 43.2114 131.087 46.4849C141.729 44.5195 148.219 43.0201 159.545 40.0205L161.236 39.5727L160.688 41.2336C154.521 59.9118 152.481 68.4012 149.819 81.3629L149.683 82.0246L109.295 87.2926L109.405 85.9009C109.996 78.4054 110.34 74.0436 112.785 66.6255L112.947 66.1334L129.875 61.7803L129.242 63.4808C127.992 66.8352 127.416 68.8793 126.929 72.2072C131.071 72.1188 133.727 71.7112 137.986 70.3865C138.941 64.3367 140.089 60.5912 141.956 54.9716C132.662 57.8563 126.812 58.9852 116.743 60.3174L115.433 60.4907L122.111 26.6573L122.804 26.5824C139.795 24.7475 149.178 22.8429 165.843 18.6424L167.504 18.2239ZM123.7 28.3914L117.804 58.2629C127.595 56.934 133.352 55.7342 143.154 52.6074L144.932 52.0402L144.341 53.8104C142.061 60.6376 140.811 64.4039 139.769 71.2558L139.68 71.8373L139.12 72.0161C133.959 73.663 131.012 74.0739 125.847 74.1185L124.758 74.1278L124.899 73.0479C125.358 69.5424 125.855 67.396 126.854 64.5142L114.424 67.7104C112.297 74.3011 111.902 78.3834 111.368 85.1108L148.099 80.3199C150.63 68.0424 152.675 59.5982 158.343 42.2979C147.579 45.1251 141.082 46.5872 130.201 48.5747L128.986 48.7965L129.086 47.566C129.442 43.1701 130.041 40.7883 131.668 36.8061L131.853 36.3518L132.331 36.2412C132.803 36.1319 133.261 36.0263 133.705 35.9236C139.226 34.6491 142.82 33.8193 149.024 31.8566L150.635 31.347L150.23 32.9873C150.034 33.7798 149.851 34.4294 149.678 35.0412C149.642 35.1665 149.607 35.2902 149.573 35.4132C149.502 35.6643 149.433 35.9144 149.365 36.1727C153.657 34.8082 156.449 33.925 160.731 32.999L164.647 20.8969C149.155 24.7704 139.798 26.6295 123.7 28.3914Z" fill="#B0ABAB" stroke="#B0ABAB" stroke-width="15"/>
<path fill-rule="evenodd" clip-rule="evenodd" d="M163.72 28.1577C159.107 46.8958 156.208 58.6735 153.082 80.3338L189.127 75.7235C191.839 56.5577 194.719 38.7758 199.605 19.9802L163.979 27.1053C163.892 27.4586 163.806 27.8093 163.72 28.1577ZM172.515 42.1529C170.855 48.8738 170.119 52.9743 169.009 60.6351L181.282 59.0343C182.228 52.3795 183.232 46.2052 184.935 39.679L172.515 42.1529Z" fill="#B0ABAB" stroke="#B0ABAB" stroke-width="15"/>
<path fill-rule="evenodd" clip-rule="evenodd" d="M200.903 18.7544L200.522 20.2188C195.651 38.9612 192.777 56.7006 190.066 75.8564L189.964 76.5719L151.967 81.4321L152.145 80.1986C155.277 58.4922 158.186 46.678 162.8 27.9355L163.204 26.2943L200.903 18.7544ZM164.756 27.9166L164.641 28.3843C160.118 46.7562 157.251 58.4033 154.2 79.2357L188.29 74.8753C190.905 56.4674 193.699 39.2816 198.311 21.2056L164.756 27.9166ZM186.235 38.4541L185.853 39.9184C184.164 46.3913 183.166 52.5229 182.221 59.1677L182.12 59.8809L167.892 61.7366L168.072 60.4993C169.185 52.8177 169.926 48.6851 171.596 41.9257L171.741 41.3413L186.235 38.4541ZM173.292 42.9647C171.83 48.9439 171.106 52.8866 170.128 59.5337L180.447 58.1878C181.294 52.2846 182.21 46.713 183.648 40.902L173.292 42.9647Z" fill="#B0ABAB" stroke="#B0ABAB" stroke-width="15"/>
<path d="M189.127 75.7236C192.475 49.8 194.699 45.3499 200.024 19.5612L215.951 16.2083L218.046 51.8337C220.114 38.1668 221.264 30.3677 223.495 19.5612L238.164 17.4656C232.862 38.6859 226.429 67.7603 226.429 67.7603C226.429 67.7603 216.98 71.1464 212.179 71.1133C209.283 64.0605 207.942 60.1145 205.892 53.091C203.87 60.1846 203.579 64.1428 203.377 71.1133L189.127 75.7236Z" fill="#B0ABAB" stroke="#B0ABAB" stroke-width="15"/>
<path fill-rule="evenodd" clip-rule="evenodd" d="M216.833 15.0542L218.463 42.7717C219.79 34.1156 220.866 27.6142 222.567 19.3696L222.702 18.7172L239.426 16.3281L239.084 17.6953C236.436 28.2962 233.503 40.8627 231.233 50.7819C230.097 55.7409 229.128 60.037 228.442 63.0933C228.099 64.6214 227.827 65.8395 227.641 66.6755C227.548 67.0935 227.476 67.416 227.428 67.6339L227.355 67.9637L227.355 67.9647C227.355 67.9649 227.355 67.965 226.429 67.7602C226.749 68.6523 226.749 68.6524 226.749 68.6524L226.748 68.6526L226.72 68.6629C226.701 68.6696 226.673 68.6794 226.637 68.6921C226.565 68.7174 226.459 68.7544 226.324 68.8013C226.052 68.8951 225.66 69.0287 225.175 69.1888C224.205 69.5086 222.861 69.935 221.364 70.3607C218.409 71.201 214.726 72.0785 212.173 72.0608L211.542 72.0565L211.303 71.4731C208.869 65.546 207.526 61.7936 205.946 56.5981C204.72 61.7078 204.492 65.3606 204.325 71.1407L204.306 71.809L187.996 77.0856L188.188 75.6022C190.472 57.91 192.243 50.1609 194.818 38.8867C196.023 33.6122 197.404 27.5662 199.097 19.3695L199.222 18.7617L216.833 15.0542ZM226.429 67.7602L226.749 68.6524L227.242 68.4758L227.355 67.965L226.429 67.7602ZM225.619 67.0396C225.664 66.8371 225.721 66.5772 225.791 66.2635C225.978 65.4266 226.25 64.2075 226.593 62.6783C227.279 59.62 228.249 55.3212 229.385 50.359C231.56 40.8586 234.343 28.9218 236.905 18.6028L224.29 20.405C222.25 30.3694 221.117 37.8666 219.257 50.1686C219.168 50.7595 219.077 51.3615 218.984 51.9753L217.101 51.8892L215.07 17.3622L200.827 20.3607C199.176 28.3233 197.828 34.2259 196.651 39.3749C194.16 50.2798 192.441 57.8046 190.261 74.3609L202.45 70.4172C202.655 63.8099 202.996 59.7974 204.981 52.8312L205.881 49.6716L206.802 52.8254C208.785 59.6175 210.097 63.505 212.809 70.1511C215.04 70.0394 218.139 69.3074 220.846 68.5377C222.311 68.121 223.629 67.7029 224.581 67.3889C225.008 67.2482 225.36 67.1286 225.619 67.0396Z" fill="#B0ABAB"/>
<path d="M226.429 67.7602C227.355 67.965 227.355 67.9649 227.355 67.9647L227.355 67.9637L227.428 67.6339C227.476 67.416 227.548 67.0935 227.641 66.6755C227.827 65.8395 228.099 64.6214 228.442 63.0933C229.128 60.037 230.097 55.7409 231.233 50.7819C233.503 40.8627 236.436 28.2962 239.084 17.6953L239.426 16.3281L222.702 18.7172L222.567 19.3696C220.866 27.6142 219.79 34.1156 218.463 42.7717L216.833 15.0542L199.222 18.7617L199.097 19.3695C197.404 27.5662 196.023 33.6122 194.818 38.8867C192.243 50.1609 190.472 57.91 188.188 75.6022L187.996 77.0856L204.306 71.809L204.325 71.1407C204.492 65.3606 204.72 61.7078 205.946 56.5981C207.526 61.7936 208.869 65.546 211.303 71.4731L211.542 72.0565L212.173 72.0608C214.726 72.0785 218.409 71.201 221.364 70.3607C222.861 69.935 224.205 69.5086 225.175 69.1888C225.66 69.0287 226.052 68.8951 226.324 68.8013C226.459 68.7544 226.565 68.7174 226.637 68.6921C226.673 68.6794 226.701 68.6696 226.72 68.6629L226.748 68.6526L226.749 68.6524M226.429 67.7602C226.749 68.6523 226.749 68.6524 226.749 68.6524M226.429 67.7602L226.749 68.6524M226.429 67.7602L227.355 67.965L227.242 68.4758L226.749 68.6524M225.791 66.2635C225.721 66.5772 225.664 66.8371 225.619 67.0396C225.36 67.1286 225.008 67.2482 224.581 67.3888C223.629 67.7029 222.311 68.121 220.846 68.5376C218.139 69.3074 215.04 70.0394 212.809 70.1511C210.097 63.505 208.785 59.6175 206.802 52.8254L205.881 49.6716L204.981 52.8312C202.996 59.7974 202.655 63.8099 202.45 70.4172L190.261 74.3609C192.441 57.8046 194.16 50.2798 196.651 39.3749C197.828 34.2259 199.176 28.3233 200.827 20.3607L215.07 17.3622L217.101 51.8892L218.984 51.9753C219.077 51.3615 219.168 50.7595 219.257 50.1686C221.117 37.8666 222.25 30.3694 224.29 20.405L236.905 18.6028C234.343 28.9218 231.56 40.8586 229.385 50.359C228.249 55.3212 227.279 59.62 226.593 62.6783C226.25 64.2075 225.978 65.4266 225.791 66.2635Z" stroke="#B0ABAB" stroke-width="15"/>
<path fill-rule="evenodd" clip-rule="evenodd" d="M71.3548 29.6199C66.3509 53.3742 63.8106 66.5026 61.2958 91.65C60.9309 91.6732 60.5798 91.6944 60.2403 91.7149C56.5782 91.9363 54.2608 92.0764 50.3987 93.7456C49.3928 93.6682 51.0485 80.3041 54.5899 71.9512L45.7883 76.5616C41.4048 83.4871 39.0752 88.5427 36.9867 96.2603C30.4507 97.4511 26.7175 98.5377 19.8027 102.128C27.4437 80.5378 34.4879 66.0944 43.5582 47.497C45.7123 43.0801 47.9808 38.4289 50.3987 33.392L71.3548 29.6199ZM46.6266 61.8923L57.5238 58.1202C58.9133 51.9423 59.9339 48.5418 62.1341 42.6127C58.3778 43.031 56.6012 43.7606 53.7517 45.5465C50.9432 51.2407 49.3895 54.8936 46.6266 61.8923Z" fill="#B0ABAB" stroke="#B0ABAB" stroke-width="15"/>
<path fill-rule="evenodd" clip-rule="evenodd" d="M72.5714 28.438L72.2813 29.8153C67.2808 53.5535 64.7479 66.6449 62.238 91.7444L62.158 92.5448L61.3552 92.5959C60.9911 92.619 60.641 92.6402 60.3039 92.6606L60.2967 92.661C56.6589 92.8809 54.4783 93.0146 50.7738 94.6156L50.5588 94.7085L50.3252 94.6906C49.6743 94.6405 49.4228 94.0857 49.3621 93.9362C49.2714 93.7127 49.2277 93.4602 49.2023 93.2363C49.1495 92.7707 49.1485 92.1494 49.1839 91.4354C49.2554 89.9929 49.4844 88.0157 49.8534 85.7964C50.4598 82.1503 51.4571 77.7743 52.8003 73.9581L46.4528 77.283C42.2018 84.0273 39.9401 88.9716 37.9007 96.508L37.7444 97.0855L37.1558 97.1928C30.7017 98.3686 27.0601 99.4274 20.2386 102.969L18.1074 104.076L18.9086 101.812C26.5676 80.171 33.6316 65.6869 42.6999 47.0934L42.7056 47.0817L42.706 47.081C44.8602 42.6641 47.1273 38.0156 49.5436 32.982L49.7532 32.5453L72.5714 28.438ZM51.0424 34.239C48.7016 39.1113 46.5009 43.6235 44.4093 47.9122L44.4091 47.9125C35.6566 65.8586 28.8099 79.898 21.4921 100.213C27.0233 97.505 30.6501 96.4755 36.2291 95.4363C38.306 87.9376 40.6681 82.878 44.9868 76.0549L45.1227 75.8402L56.4953 69.8831L55.4616 72.3213C53.7316 76.4016 52.4477 81.7497 51.7231 86.1073C51.3613 88.2827 51.1436 90.1832 51.0769 91.5292C51.0592 91.8861 51.0527 92.1935 51.0556 92.4503C54.4817 91.1138 56.8164 90.9726 60.1689 90.77L60.1823 90.7691C60.2652 90.7641 60.3486 90.7591 60.4327 90.754C62.8771 66.5646 65.3726 53.4636 70.1368 30.802L51.0424 34.239ZM63.5568 41.5008L63.0218 42.9425C60.8358 48.8332 59.8275 52.1931 58.4475 58.3283L58.3317 58.8432L44.9871 63.4625L45.7443 61.5444C48.5129 54.5315 50.0772 50.8528 52.901 45.1275L53.0199 44.8864L53.2476 44.7437C54.6965 43.8356 55.9187 43.1666 57.2806 42.6754C58.644 42.1838 60.1062 41.885 62.0284 41.671L63.5568 41.5008ZM54.4815 46.208C52.0274 51.1965 50.5351 54.6341 48.2683 60.321L56.7149 57.3972C57.9382 52.0167 58.9076 48.704 60.7014 43.7627C59.6231 43.94 58.7423 44.1631 57.9235 44.4583C56.8102 44.8598 55.7745 45.4078 54.4815 46.208Z" fill="#B0ABAB" stroke="#B0ABAB" stroke-width="15"/>
<path d="M61.7148 92.0715C63.1825 70.0572 65.5359 56.8627 71.3547 30.0414C76.8677 28.5419 79.7714 28.1708 84.7666 27.9458C81.7965 39.2537 80.9487 45.6453 80.1562 57.2844C87.6056 45.5185 91.8637 38.9041 101.531 26.6884C107.021 25.6166 109.819 25.4047 114.524 25.431L96.502 53.9314L109.495 84.9464C104.467 85.8662 101.639 86.163 96.502 86.2038L86.8622 63.1521C84.0814 66.4137 82.3692 68.1936 78.8989 71.1154C76.4539 78.0197 75.8765 81.9853 75.5459 89.1377C70.2907 90.9742 67.259 91.5886 61.7148 92.0715Z" fill="#B0ABAB" stroke="#B0ABAB" stroke-width="15"/>
<path fill-rule="evenodd" clip-rule="evenodd" d="M101.349 25.7582C106.902 24.6742 109.762 24.4566 114.529 24.4833L116.238 24.4929L97.5664 54.0205L110.824 85.6666L109.665 85.8785C104.587 86.8073 101.706 87.1101 96.5091 87.1513L95.8728 87.1563L86.579 64.9321C84.3608 67.4751 82.6627 69.1731 79.7064 71.6734C77.371 78.3222 76.8155 82.1842 76.4921 89.1813L76.4625 89.8209L75.8581 90.0321C70.5235 91.8964 67.414 92.5261 61.7966 93.0155L60.6953 93.1114L60.7689 92.0084C62.241 69.9277 64.6049 56.6821 70.4281 29.8404L70.5501 29.2779L71.1055 29.1268C76.6921 27.6074 79.6655 27.2268 84.7235 26.999L86.0098 26.941L85.6827 28.1864C83.0658 38.1498 82.1084 44.2558 81.3748 53.5927C87.6612 43.7052 91.9989 37.2055 100.788 26.1002L101.005 25.8254L101.349 25.7582ZM102.056 27.5517C92.572 39.5541 88.3423 46.1257 80.9564 57.7912L79.2103 57.2199C79.9762 45.971 80.7974 39.5711 83.5244 28.9565C79.504 29.1799 76.767 29.5777 72.158 30.8062C66.5307 56.7776 64.1931 69.8895 62.7351 91.0261C67.3201 90.5816 70.1668 89.98 74.6296 88.4517C74.9698 81.624 75.5971 77.5992 78.0051 70.7989L78.0911 70.5562L78.2881 70.3903C81.7124 67.5073 83.3881 65.7657 86.1406 62.5371L87.1411 61.3636L97.1297 85.2495C101.419 85.1949 104.082 84.9354 108.163 84.222L95.4367 53.8421L112.802 26.3815C109.212 26.4193 106.57 26.6826 102.056 27.5517Z" fill="#B0ABAB" stroke="#B0ABAB" stroke-width="15"/>
<path d="M118.798 22.4702C135.844 20.6294 145.271 18.7154 161.968 14.5068L157.358 28.757C152.296 29.8248 149.398 30.802 143.946 32.5291C144.352 30.6174 144.741 29.5781 145.203 27.7056C138.458 29.8392 134.768 30.6447 128.438 32.11C126.847 36.0061 126.271 38.2931 125.923 42.588C137.335 40.5037 143.904 39.0008 155.681 35.8821C149.502 54.5965 147.452 63.1216 144.784 76.1178L106.225 81.1473L106.241 80.9387C106.832 73.4446 107.169 69.1773 109.578 61.8677L124.247 58.0956C122.844 61.861 122.266 64.0371 121.732 68.1164C126.808 68.0726 129.66 67.6749 134.725 66.0589C135.78 59.1214 137.052 55.29 139.335 48.4557C129.041 51.7395 123.161 52.9145 112.511 54.3235L118.798 22.4702Z" fill="white" stroke="white" stroke-width="15"/>
<path fill-rule="evenodd" clip-rule="evenodd" d="M163.396 13.1694L158.09 29.5709L157.553 29.6842C153.015 30.6415 150.247 31.521 145.704 32.9652C145.233 33.1147 144.744 33.2702 144.231 33.4325L142.679 33.9241L143.018 32.3318C143.228 31.3477 143.433 30.588 143.641 29.8466C143.677 29.7185 143.712 29.5914 143.748 29.4641C143.781 29.3503 143.813 29.2364 143.845 29.1214C138.533 30.7514 135.053 31.5548 130.029 32.7148C129.735 32.7826 129.436 32.8517 129.131 32.9222C127.866 36.0798 127.315 38.1569 126.98 41.4305C137.621 39.4651 144.111 37.9656 155.438 34.966L157.129 34.5182L156.58 36.1792C150.414 54.8573 148.373 63.3467 145.712 76.3084L145.576 76.9701L105.188 82.2382L105.297 80.8465C105.889 73.3509 106.233 68.9891 108.677 61.5711L108.839 61.0789L125.768 56.7258L125.134 58.4264C123.885 61.7807 123.308 63.8249 122.821 67.1527C126.964 67.0644 129.619 66.6568 133.878 65.332C134.833 59.2823 135.981 55.5367 137.849 49.9171C128.555 52.8019 122.704 53.9308 112.635 55.2629L111.325 55.4362L118.003 21.6028L118.696 21.528C135.688 19.693 145.071 17.7885 161.736 13.5879L163.396 13.1694ZM119.593 23.337L113.697 53.2085C123.488 51.8796 129.244 50.6798 139.047 47.5529L140.825 46.9857L140.234 48.756C137.953 55.5831 136.704 59.3495 135.661 66.2014L135.573 66.7829L135.013 66.9617C129.851 68.6085 126.904 69.0195 121.74 69.064L120.651 69.0734L120.792 67.9934C121.251 64.488 121.747 62.3416 122.747 59.4597L110.317 62.6559C108.19 69.2467 107.795 73.3289 107.261 80.0564L143.991 75.2655C146.523 62.988 148.567 54.5437 154.235 37.2434C143.472 40.0707 136.975 41.5328 126.093 43.5203L124.879 43.7421L124.978 42.5116C125.334 38.1157 125.934 35.7338 127.56 31.7516L127.746 31.2974L128.224 31.1867C128.696 31.0775 129.153 30.9719 129.598 30.8692C135.118 29.5946 138.712 28.7648 144.917 26.8021L146.528 26.2925L146.123 27.9328C145.927 28.7254 145.743 29.375 145.57 29.9868C145.535 30.1121 145.5 30.2358 145.465 30.3588C145.395 30.6099 145.326 30.86 145.257 31.1183C149.55 29.7538 152.341 28.8705 156.624 27.9446L160.539 15.8425C145.048 19.716 135.691 21.5751 119.593 23.337Z" fill="white" stroke="white" stroke-width="15"/>
<path fill-rule="evenodd" clip-rule="evenodd" d="M159.613 23.1035C155 41.8416 152.1 53.6193 148.975 75.2796L185.019 70.6693C187.732 51.5035 190.612 33.7216 195.497 14.926L159.872 22.0511C159.785 22.4044 159.698 22.7551 159.613 23.1035ZM168.408 37.0987C166.747 43.8196 166.011 47.9201 164.901 55.5809L177.175 53.9801C178.121 47.3253 179.125 41.151 180.828 34.6248L168.408 37.0987Z" fill="white" stroke="white" stroke-width="15"/>
<path fill-rule="evenodd" clip-rule="evenodd" d="M196.796 13.7002L196.415 15.1646C191.543 33.907 188.67 51.6464 185.958 70.8022L185.857 71.5177L147.859 76.3779L148.037 75.1444C151.17 53.438 154.078 41.6238 158.692 22.8813L159.096 21.2401L196.796 13.7002ZM160.649 22.8624L160.534 23.3301C156.011 41.702 153.144 53.3491 150.093 74.1815L184.183 69.8211C186.797 51.4132 189.592 34.2274 194.204 16.1514L160.649 22.8624ZM182.128 33.3999L181.746 34.8642C180.056 41.3372 179.058 47.4687 178.114 54.1135L178.013 54.8267L163.785 56.6824L163.964 55.4451C165.077 47.7635 165.818 43.6309 167.489 36.8715L167.633 36.2871L182.128 33.3999ZM169.185 37.9105C167.722 43.8897 166.999 47.8324 166.021 54.4795L176.339 53.1336C177.187 47.2304 178.103 41.6588 179.54 35.8478L169.185 37.9105Z" fill="white" stroke="white" stroke-width="15"/>
<path d="M185.02 70.6694C188.367 44.7458 190.592 40.2957 195.917 14.507L211.843 11.1541L213.939 46.7795C216.006 33.1126 217.157 25.3135 219.388 14.507L234.057 12.4114C228.755 33.6317 222.321 62.7061 222.321 62.7061C222.321 62.7061 212.873 66.0922 208.071 66.0591C205.176 59.0063 203.835 55.0603 201.784 48.0368C199.763 55.1304 199.472 59.0886 199.27 66.0591L185.02 70.6694Z" fill="white" stroke="white" stroke-width="15"/>
<path fill-rule="evenodd" clip-rule="evenodd" d="M212.725 10L214.356 37.7175C215.683 29.0614 216.758 22.56 218.46 14.3154L218.595 13.663L235.318 11.2739L234.977 12.6411C232.328 23.242 229.396 35.8085 227.125 45.7277C225.99 50.6867 225.02 54.9828 224.335 58.0391C223.992 59.5672 223.72 60.7853 223.534 61.6213C223.441 62.0393 223.369 62.3618 223.321 62.5797L223.248 62.9095L223.247 62.9105C223.247 62.9107 223.247 62.9108 222.322 62.706C222.642 63.5981 222.642 63.5982 222.641 63.5982L222.641 63.5984L222.612 63.6087C222.593 63.6154 222.566 63.6252 222.53 63.6379C222.458 63.6632 222.352 63.7002 222.216 63.7471C221.945 63.841 221.553 63.9745 221.068 64.1346C220.098 64.4544 218.754 64.8808 217.257 65.3065C214.302 66.1468 210.618 67.0243 208.065 67.0066L207.435 67.0023L207.195 66.4189C204.762 60.4918 203.418 56.7394 201.839 51.5439C200.612 56.6536 200.385 60.3064 200.217 66.0865L200.198 66.7548L183.889 72.0314L184.08 70.548C186.365 52.8558 188.135 45.1067 190.711 33.8325C191.916 28.558 193.297 22.512 194.989 14.3153L195.115 13.7075L212.725 10ZM222.322 62.706L222.641 63.5982L223.134 63.4216L223.247 62.9108L222.322 62.706ZM221.511 61.9854C221.556 61.7829 221.614 61.523 221.684 61.2093C221.87 60.3724 222.142 59.1533 222.485 57.6241C223.172 54.5658 224.142 50.267 225.278 45.3048C227.453 35.8044 230.236 23.8676 232.798 13.5486L220.182 15.3508C218.143 25.3152 217.009 32.8124 215.15 45.1144C215.06 45.7053 214.969 46.3073 214.877 46.9211L212.994 46.835L210.963 12.308L196.72 15.3065C195.069 23.2691 193.72 29.1717 192.544 34.3207C190.053 45.2256 188.333 52.7504 186.153 69.3067L198.343 65.363C198.547 58.7557 198.889 54.7432 200.874 47.777L201.774 44.6174L202.695 47.7712C204.677 54.5633 205.989 58.4508 208.702 65.0969C210.932 64.9852 214.031 64.2532 216.738 63.4835C218.204 63.0668 219.522 62.6487 220.474 62.3347C220.9 62.194 221.253 62.0744 221.511 61.9854Z" fill="white"/>
<path d="M222.322 62.706C223.247 62.9108 223.247 62.9107 223.247 62.9105L223.248 62.9095L223.321 62.5797C223.369 62.3618 223.441 62.0393 223.534 61.6213C223.72 60.7853 223.992 59.5672 224.335 58.0391C225.02 54.9828 225.99 50.6867 227.125 45.7277C229.396 35.8085 232.328 23.242 234.977 12.6411L235.318 11.2739L218.595 13.663L218.46 14.3154C216.758 22.56 215.683 29.0614 214.356 37.7175L212.725 10L195.115 13.7075L194.989 14.3153C193.297 22.512 191.916 28.558 190.711 33.8325C188.135 45.1067 186.365 52.8558 184.08 70.548L183.889 72.0314L200.198 66.7548L200.217 66.0865C200.385 60.3064 200.612 56.6536 201.839 51.5439C203.418 56.7394 204.762 60.4918 207.195 66.4189L207.435 67.0023L208.065 67.0066C210.618 67.0243 214.302 66.1468 217.257 65.3065C218.754 64.8808 220.098 64.4544 221.068 64.1346C221.553 63.9745 221.945 63.8409 222.216 63.7471C222.352 63.7002 222.458 63.6632 222.53 63.6379C222.566 63.6252 222.593 63.6154 222.612 63.6087L222.641 63.5984L222.641 63.5982M222.322 62.706C222.642 63.5981 222.642 63.5982 222.641 63.5982M222.322 62.706L222.641 63.5982M222.322 62.706L223.247 62.9108L223.134 63.4216L222.641 63.5982M221.684 61.2093C221.614 61.523 221.556 61.7829 221.511 61.9854C221.253 62.0744 220.9 62.194 220.474 62.3347C219.522 62.6487 218.204 63.0668 216.738 63.4835C214.031 64.2532 210.932 64.9852 208.702 65.0969C205.989 58.4508 204.677 54.5633 202.695 47.7712L201.774 44.6174L200.874 47.777C198.889 54.7432 198.547 58.7557 198.343 65.363L186.153 69.3067C188.333 52.7504 190.053 45.2256 192.544 34.3207C193.72 29.1717 195.069 23.2691 196.72 15.3065L210.963 12.308L212.994 46.835L214.877 46.9211C214.969 46.3073 215.06 45.7053 215.15 45.1144C217.009 32.8124 218.143 25.3152 220.182 15.3508L232.798 13.5486C230.236 23.8676 227.453 35.8044 225.278 45.3048C224.142 50.267 223.172 54.5658 222.485 57.6241C222.142 59.1533 221.87 60.3724 221.684 61.2093Z" stroke="white" stroke-width="15"/>
<path fill-rule="evenodd" clip-rule="evenodd" d="M67.2474 24.5657C62.2435 48.32 59.7032 61.4484 57.1884 86.5958C56.8235 86.619 56.4724 86.6402 56.1329 86.6607C52.4708 86.8821 50.1534 87.0222 46.2912 88.6914C45.2854 88.614 46.9411 75.2499 50.4825 66.897L41.6809 71.5074C37.2973 78.4329 34.9678 83.4885 32.8793 91.2061C26.3433 92.3969 22.6101 93.4835 15.6953 97.0738C23.3363 75.4836 30.3805 61.0402 39.4507 42.4428C41.6049 38.0259 43.8734 33.3747 46.2912 28.3378L67.2474 24.5657ZM42.5192 56.8381L53.4163 53.066C54.8059 46.8881 55.8265 43.4876 58.0267 37.5585C54.2703 37.9768 52.4938 38.7064 49.6442 40.4923C46.8358 46.1865 45.2821 49.8394 42.5192 56.8381Z" fill="white" stroke="white" stroke-width="15"/>
<path fill-rule="evenodd" clip-rule="evenodd" d="M68.464 23.3838L68.1739 24.7611C63.1734 48.4993 60.6405 61.5907 58.1306 86.6902L58.0505 87.4906L57.2478 87.5417C56.8837 87.5648 56.5336 87.586 56.1965 87.6064L56.1893 87.6068C52.5514 87.8267 50.3709 87.9604 46.6664 89.5614L46.4514 89.6543L46.2178 89.6364C45.5668 89.5863 45.3154 89.0315 45.2547 88.882C45.164 88.6585 45.1202 88.406 45.0949 88.1821C45.0421 87.7165 45.0411 87.0952 45.0765 86.3812C45.148 84.9387 45.3769 82.9615 45.746 80.7422C46.3524 77.0961 47.3497 72.7201 48.6929 68.9039L42.3453 72.2288C38.0944 78.9731 35.8327 83.9174 33.7933 91.4538L33.637 92.0313L33.0484 92.1386C26.5942 93.3144 22.9527 94.3732 16.1312 97.915L14 99.0216L14.8012 96.7578C22.4601 75.1168 29.5242 60.6327 38.5925 42.0392L38.5982 42.0275L38.5985 42.0268C40.7527 37.6099 43.0198 32.9614 45.4361 27.9278L45.6458 27.4911L68.464 23.3838ZM46.935 29.1848C44.5942 34.0571 42.3935 38.5693 40.3019 42.858L40.3017 42.8583C31.5492 60.8044 24.7025 74.8438 17.3846 95.1586C22.9159 92.4508 26.5427 91.4213 32.1216 90.3821C34.1985 82.8834 36.5606 77.8238 40.8794 71.0007L41.0153 70.786L52.3879 64.8289L51.3541 67.2671C49.6242 71.3474 48.3403 76.6955 47.6156 81.0531C47.2539 83.2285 47.0362 85.129 46.9694 86.475C46.9518 86.8319 46.9453 87.1393 46.9482 87.3961C50.3743 86.0596 52.709 85.9184 56.0615 85.7158L56.0749 85.715C56.1578 85.7099 56.2412 85.7049 56.3253 85.6998C58.7697 61.5104 61.2651 48.4094 66.0294 25.7478L46.935 29.1848ZM59.4494 36.4466L58.9143 37.8883C56.7284 43.779 55.72 47.1389 54.3401 53.2741L54.2243 53.789L40.8797 58.4083L41.6369 56.4902C44.4055 49.4773 45.9697 45.7986 48.7936 40.0733L48.9125 39.8322L49.1402 39.6895C50.5891 38.7814 51.8112 38.1124 53.1731 37.6212C54.5365 37.1296 55.9988 36.8308 57.921 36.6168L59.4494 36.4466ZM50.3741 41.1538C47.92 46.1423 46.4277 49.5799 44.1609 55.2668L52.6075 52.343C53.8308 46.9625 54.8001 43.6498 56.594 38.7085C55.5157 38.8858 54.6349 39.1089 53.8161 39.4041C52.7027 39.8056 51.667 40.3536 50.3741 41.1538Z" fill="white" stroke="white" stroke-width="15"/>
<path d="M57.6074 87.0173C59.0751 65.003 61.4284 51.8085 67.2472 24.9872C72.7603 23.4877 75.664 23.1166 80.6592 22.8916C77.6891 34.1995 76.8413 40.5911 76.0488 52.2302C83.4982 40.4643 87.7563 33.8499 97.424 21.6342C102.914 20.5624 105.711 20.3505 110.417 20.3768L92.3946 48.8772L105.387 79.8922C100.359 80.812 97.532 81.1088 92.3946 81.1496L82.7548 58.0979C79.974 61.3595 78.2618 63.1394 74.7914 66.0612C72.3465 72.9655 71.769 76.9311 71.4385 84.0835C66.1833 85.92 63.1516 86.5344 57.6074 87.0173Z" fill="white" stroke="white" stroke-width="15"/>
<path fill-rule="evenodd" clip-rule="evenodd" d="M97.242 20.704C102.794 19.62 105.654 19.4024 110.422 19.4291L112.131 19.4387L93.4589 48.9663L106.716 80.6124L105.557 80.8243C100.48 81.7531 97.5981 82.0559 92.4017 82.0971L91.7653 82.1021L82.4716 59.8779C80.2534 62.4209 78.5553 64.1189 75.599 66.6192C73.2636 73.268 72.708 77.13 72.3847 84.1271L72.3551 84.7667L71.7507 84.9779C66.4161 86.8422 63.3066 87.4719 57.6892 87.9613L56.5879 88.0572L56.6614 86.9542C58.1335 64.8735 60.4975 51.6279 66.3207 24.7862L66.4427 24.2237L66.9981 24.0727C72.5847 22.5532 75.5581 22.1726 80.6161 21.9448L81.9024 21.8868L81.5753 23.1322C78.9583 33.0956 78.0009 39.2016 77.2673 48.5385C83.5538 38.651 87.8915 32.1513 96.6805 21.046L96.898 20.7712L97.242 20.704ZM97.949 22.4975C88.4646 34.4999 84.2349 41.0715 76.849 52.737L75.1029 52.1657C75.8688 40.9168 76.69 34.5169 79.417 23.9023C75.3965 24.1257 72.6596 24.5235 68.0506 25.752C62.4233 51.7234 60.0857 64.8353 58.6277 85.9719C63.2127 85.5274 66.0594 84.9258 70.5222 83.3975C70.8624 76.5698 71.4896 72.545 73.8977 65.7447L73.9837 65.502L74.1807 65.3361C77.605 62.4531 79.2806 60.7115 82.0332 57.4829L83.0336 56.3094L93.0223 80.1953C97.3117 80.1407 99.9748 79.8812 104.056 79.1678L91.3293 48.7879L108.694 21.3273C105.104 21.3651 102.462 21.6284 97.949 22.4975Z" fill="white" stroke="white" stroke-width="15"/>
<path d="M118.798 22.4702C135.844 20.6294 145.271 18.7154 161.968 14.5068L157.358 28.757C152.296 29.8248 149.398 30.802 143.946 32.5291C144.352 30.6174 144.741 29.5781 145.203 27.7056C138.458 29.8392 134.768 30.6447 128.438 32.11C126.847 36.0061 126.271 38.2931 125.923 42.588C137.335 40.5037 143.904 39.0008 155.681 35.8821C149.502 54.5966 147.452 63.1216 144.784 76.1178L106.225 81.1473L106.241 80.9387C106.832 73.4446 107.169 69.1773 109.578 61.8677L124.247 58.0956C122.844 61.861 122.266 64.0371 121.732 68.1164C126.808 68.0726 129.66 67.6749 134.725 66.0589C135.78 59.1214 137.052 55.29 139.335 48.4557C129.041 51.7396 123.161 52.9145 112.511 54.3235L118.798 22.4702Z" fill="#FF80FF" stroke="black" stroke-width="2"/>
<path fill-rule="evenodd" clip-rule="evenodd" d="M163.396 13.1694L158.09 29.5709L157.553 29.6842C153.015 30.6415 150.247 31.521 145.704 32.9652C145.233 33.1147 144.744 33.2702 144.231 33.4325L142.679 33.9241L143.018 32.3318C143.228 31.3477 143.433 30.588 143.641 29.8466C143.677 29.7185 143.712 29.5914 143.748 29.4641C143.781 29.3503 143.813 29.2364 143.845 29.1214C138.533 30.7514 135.053 31.5548 130.029 32.7148C129.735 32.7827 129.436 32.8517 129.131 32.9222C127.866 36.0798 127.315 38.1569 126.98 41.4305C137.621 39.4651 144.111 37.9656 155.438 34.966L157.129 34.5182L156.58 36.1792C150.414 54.8573 148.373 63.3467 145.712 76.3084L145.576 76.9701L105.188 82.2382L105.297 80.8465C105.889 73.3509 106.233 68.9891 108.677 61.5711L108.839 61.0789L125.768 56.7258L125.134 58.4264C123.885 61.7807 123.308 63.8249 122.821 67.1527C126.964 67.0644 129.619 66.6568 133.878 65.332C134.833 59.2823 135.981 55.5367 137.849 49.9171C128.555 52.8019 122.704 53.9308 112.635 55.2629L111.325 55.4362L118.003 21.6028L118.696 21.528C135.688 19.693 145.071 17.7885 161.736 13.5879L163.396 13.1694ZM119.593 23.337L113.697 53.2085C123.488 51.8796 129.244 50.6798 139.047 47.5529L140.825 46.9857L140.234 48.756C137.953 55.5831 136.704 59.3495 135.661 66.2014L135.573 66.7829L135.013 66.9617C129.851 68.6085 126.904 69.0195 121.74 69.064L120.651 69.0734L120.792 67.9934C121.251 64.488 121.747 62.3416 122.747 59.4597L110.317 62.6559C108.19 69.2467 107.795 73.3289 107.261 80.0564L143.991 75.2655C146.523 62.988 148.567 54.5437 154.235 37.2434C143.472 40.0707 136.975 41.5328 126.093 43.5203L124.879 43.7421L124.978 42.5116C125.334 38.1157 125.934 35.7338 127.56 31.7516L127.746 31.2974L128.224 31.1867C128.696 31.0775 129.153 30.9719 129.598 30.8692C135.118 29.5946 138.712 28.7648 144.917 26.8021L146.528 26.2925L146.123 27.9328C145.927 28.7254 145.743 29.375 145.57 29.9868C145.535 30.1121 145.5 30.2358 145.465 30.3588C145.395 30.6099 145.326 30.86 145.257 31.1183C149.55 29.7538 152.341 28.8705 156.624 27.9446L160.539 15.8425C145.048 19.716 135.691 21.5751 119.593 23.337Z" fill="white"/>
<path fill-rule="evenodd" clip-rule="evenodd" d="M163.396 13.1694L158.09 29.5709L157.553 29.6842C153.015 30.6415 150.247 31.521 145.704 32.9652C145.233 33.1147 144.744 33.2702 144.231 33.4325L142.679 33.9241L143.018 32.3318C143.228 31.3477 143.433 30.588 143.641 29.8466C143.677 29.7185 143.712 29.5914 143.748 29.4641C143.781 29.3503 143.813 29.2364 143.845 29.1214C138.533 30.7514 135.053 31.5548 130.029 32.7148C129.735 32.7827 129.436 32.8517 129.131 32.9222C127.866 36.0798 127.315 38.1569 126.98 41.4305C137.621 39.4651 144.111 37.9656 155.438 34.966L157.129 34.5182L156.58 36.1792C150.414 54.8573 148.373 63.3467 145.712 76.3084L145.576 76.9701L105.188 82.2382L105.297 80.8465C105.889 73.3509 106.233 68.9891 108.677 61.5711L108.839 61.0789L125.768 56.7258L125.134 58.4264C123.885 61.7807 123.308 63.8249 122.821 67.1527C126.964 67.0644 129.619 66.6568 133.878 65.332C134.833 59.2823 135.981 55.5367 137.849 49.9171C128.555 52.8019 122.704 53.9308 112.635 55.2629L111.325 55.4362L118.003 21.6028L118.696 21.528C135.688 19.693 145.071 17.7885 161.736 13.5879L163.396 13.1694ZM119.593 23.337L113.697 53.2085C123.488 51.8796 129.244 50.6798 139.047 47.5529L140.825 46.9857L140.234 48.756C137.953 55.5831 136.704 59.3495 135.661 66.2014L135.573 66.7829L135.013 66.9617C129.851 68.6085 126.904 69.0195 121.74 69.064L120.651 69.0734L120.792 67.9934C121.251 64.488 121.747 62.3416 122.747 59.4597L110.317 62.6559C108.19 69.2467 107.795 73.3289 107.261 80.0564L143.991 75.2655C146.523 62.988 148.567 54.5437 154.235 37.2434C143.472 40.0707 136.975 41.5328 126.093 43.5203L124.879 43.7421L124.978 42.5116C125.334 38.1157 125.934 35.7338 127.56 31.7516L127.746 31.2974L128.224 31.1867C128.696 31.0775 129.153 30.9719 129.598 30.8692C135.118 29.5946 138.712 28.7648 144.917 26.8021L146.528 26.2925L146.123 27.9328C145.927 28.7254 145.743 29.375 145.57 29.9868C145.535 30.1121 145.5 30.2358 145.465 30.3588C145.395 30.6099 145.326 30.86 145.257 31.1183C149.55 29.7538 152.341 28.8705 156.624 27.9446L160.539 15.8425C145.048 19.716 135.691 21.5751 119.593 23.337Z" fill="#1D1D1D"/>
<path fill-rule="evenodd" clip-rule="evenodd" d="M163.396 13.1694L158.09 29.5709L157.553 29.6842C153.015 30.6415 150.247 31.521 145.704 32.9652C145.233 33.1147 144.744 33.2702 144.231 33.4325L142.679 33.9241L143.018 32.3318C143.228 31.3477 143.433 30.588 143.641 29.8466C143.677 29.7185 143.712 29.5914 143.748 29.4641C143.781 29.3503 143.813 29.2364 143.845 29.1214C138.533 30.7514 135.053 31.5548 130.029 32.7148C129.735 32.7827 129.436 32.8517 129.131 32.9222C127.866 36.0798 127.315 38.1569 126.98 41.4305C137.621 39.4651 144.111 37.9656 155.438 34.966L157.129 34.5182L156.58 36.1792C150.414 54.8573 148.373 63.3467 145.712 76.3084L145.576 76.9701L105.188 82.2382L105.297 80.8465C105.889 73.3509 106.233 68.9891 108.677 61.5711L108.839 61.0789L125.768 56.7258L125.134 58.4264C123.885 61.7807 123.308 63.8249 122.821 67.1527C126.964 67.0644 129.619 66.6568 133.878 65.332C134.833 59.2823 135.981 55.5367 137.849 49.9171C128.555 52.8019 122.704 53.9308 112.635 55.2629L111.325 55.4362L118.003 21.6028L118.696 21.528C135.688 19.693 145.071 17.7885 161.736 13.5879L163.396 13.1694ZM119.593 23.337L113.697 53.2085C123.488 51.8796 129.244 50.6798 139.047 47.5529L140.825 46.9857L140.234 48.756C137.953 55.5831 136.704 59.3495 135.661 66.2014L135.573 66.7829L135.013 66.9617C129.851 68.6085 126.904 69.0195 121.74 69.064L120.651 69.0734L120.792 67.9934C121.251 64.488 121.747 62.3416 122.747 59.4597L110.317 62.6559C108.19 69.2467 107.795 73.3289 107.261 80.0564L143.991 75.2655C146.523 62.988 148.567 54.5437 154.235 37.2434C143.472 40.0707 136.975 41.5328 126.093 43.5203L124.879 43.7421L124.978 42.5116C125.334 38.1157 125.934 35.7338 127.56 31.7516L127.746 31.2974L128.224 31.1867C128.696 31.0775 129.153 30.9719 129.598 30.8692C135.118 29.5946 138.712 28.7648 144.917 26.8021L146.528 26.2925L146.123 27.9328C145.927 28.7254 145.743 29.375 145.57 29.9868C145.535 30.1121 145.5 30.2358 145.465 30.3588C145.395 30.6099 145.326 30.86 145.257 31.1183C149.55 29.7538 152.341 28.8705 156.624 27.9446L160.539 15.8425C145.048 19.716 135.691 21.5751 119.593 23.337Z" stroke="black" stroke-width="2"/>
<path fill-rule="evenodd" clip-rule="evenodd" d="M159.613 23.1035C155 41.8416 152.1 53.6193 148.975 75.2796L185.019 70.6693C187.732 51.5035 190.612 33.7216 195.497 14.926L159.872 22.0511C159.785 22.4044 159.698 22.7551 159.613 23.1035ZM168.408 37.0987C166.747 43.8196 166.011 47.9201 164.901 55.5809L177.175 53.9801C178.121 47.3253 179.125 41.151 180.828 34.6248L168.408 37.0987Z" fill="#FF7F7F" stroke="black" stroke-width="2"/>
<path fill-rule="evenodd" clip-rule="evenodd" d="M196.796 13.7002L196.415 15.1646C191.543 33.907 188.67 51.6464 185.958 70.8022L185.857 71.5177L147.859 76.3779L148.037 75.1444C151.17 53.438 154.078 41.6238 158.692 22.8813L159.096 21.2401L196.796 13.7002ZM160.649 22.8624L160.534 23.3301C156.011 41.702 153.144 53.3491 150.093 74.1815L184.183 69.8211C186.797 51.4132 189.592 34.2274 194.204 16.1514L160.649 22.8624ZM182.128 33.3999L181.746 34.8642C180.056 41.3372 179.058 47.4687 178.114 54.1135L178.013 54.8267L163.785 56.6824L163.964 55.4451C165.077 47.7635 165.818 43.6309 167.489 36.8715L167.633 36.2871L182.128 33.3999ZM169.185 37.9105C167.722 43.8897 166.999 47.8324 166.021 54.4795L176.339 53.1336C177.187 47.2304 178.103 41.6588 179.54 35.8478L169.185 37.9105Z" fill="white"/>
<path fill-rule="evenodd" clip-rule="evenodd" d="M196.796 13.7002L196.415 15.1646C191.543 33.907 188.67 51.6464 185.958 70.8022L185.857 71.5177L147.859 76.3779L148.037 75.1444C151.17 53.438 154.078 41.6238 158.692 22.8813L159.096 21.2401L196.796 13.7002ZM160.649 22.8624L160.534 23.3301C156.011 41.702 153.144 53.3491 150.093 74.1815L184.183 69.8211C186.797 51.4132 189.592 34.2274 194.204 16.1514L160.649 22.8624ZM182.128 33.3999L181.746 34.8642C180.056 41.3372 179.058 47.4687 178.114 54.1135L178.013 54.8267L163.785 56.6824L163.964 55.4451C165.077 47.7635 165.818 43.6309 167.489 36.8715L167.633 36.2871L182.128 33.3999ZM169.185 37.9105C167.722 43.8897 166.999 47.8324 166.021 54.4795L176.339 53.1336C177.187 47.2304 178.103 41.6588 179.54 35.8478L169.185 37.9105Z" fill="#1D1D1D"/>
<path fill-rule="evenodd" clip-rule="evenodd" d="M196.796 13.7002L196.415 15.1646C191.543 33.907 188.67 51.6464 185.958 70.8022L185.857 71.5177L147.859 76.3779L148.037 75.1444C151.17 53.438 154.078 41.6238 158.692 22.8813L159.096 21.2401L196.796 13.7002ZM160.649 22.8624L160.534 23.3301C156.011 41.702 153.144 53.3491 150.093 74.1815L184.183 69.8211C186.797 51.4132 189.592 34.2274 194.204 16.1514L160.649 22.8624ZM182.128 33.3999L181.746 34.8642C180.056 41.3372 179.058 47.4687 178.114 54.1135L178.013 54.8267L163.785 56.6824L163.964 55.4451C165.077 47.7635 165.818 43.6309 167.489 36.8715L167.633 36.2871L182.128 33.3999ZM169.185 37.9105C167.722 43.8897 166.999 47.8324 166.021 54.4795L176.339 53.1336C177.187 47.2304 178.103 41.6588 179.54 35.8478L169.185 37.9105Z" stroke="black" stroke-width="2"/>
<path d="M185.02 70.6694C188.367 44.7458 190.592 40.2957 195.917 14.507L211.843 11.1541L213.939 46.7795C216.006 33.1126 217.157 25.3135 219.388 14.507L234.057 12.4114C228.755 33.6317 222.321 62.7061 222.321 62.7061C222.321 62.7061 212.873 66.0922 208.071 66.0591C205.176 59.0063 203.835 55.0603 201.784 48.0368C199.763 55.1304 199.472 59.0886 199.27 66.0591L185.02 70.6694Z" fill="#9BDBA1" stroke="black" stroke-width="2"/>
<path fill-rule="evenodd" clip-rule="evenodd" d="M212.725 10L214.356 37.7175C215.683 29.0614 216.758 22.56 218.46 14.3154L218.595 13.663L235.318 11.2739L234.977 12.6411C232.328 23.242 229.396 35.8085 227.125 45.7277C225.99 50.6867 225.02 54.9828 224.335 58.0391C223.992 59.5672 223.72 60.7853 223.534 61.6213C223.441 62.0393 223.369 62.3618 223.321 62.5797L223.248 62.9095L223.247 62.9105C223.247 62.9107 223.247 62.9108 222.322 62.706C222.642 63.5981 222.642 63.5982 222.641 63.5982L222.641 63.5984L222.612 63.6087C222.593 63.6154 222.566 63.6252 222.53 63.6379C222.458 63.6632 222.352 63.7002 222.216 63.7471C221.945 63.841 221.553 63.9745 221.068 64.1346C220.098 64.4544 218.754 64.8808 217.257 65.3065C214.302 66.1468 210.618 67.0243 208.065 67.0066L207.435 67.0023L207.195 66.4189C204.762 60.4918 203.418 56.7394 201.839 51.5439C200.612 56.6536 200.385 60.3064 200.217 66.0865L200.198 66.7548L183.889 72.0314L184.08 70.548C186.365 52.8558 188.135 45.1067 190.711 33.8325C191.916 28.558 193.297 22.512 194.989 14.3153L195.115 13.7075L212.725 10ZM222.322 62.706L222.641 63.5982L223.134 63.4216L223.247 62.9108L222.322 62.706ZM221.511 61.9854C221.556 61.7829 221.614 61.523 221.684 61.2093C221.87 60.3724 222.142 59.1533 222.485 57.6241C223.172 54.5658 224.142 50.267 225.278 45.3048C227.453 35.8044 230.236 23.8676 232.798 13.5486L220.182 15.3508C218.143 25.3152 217.009 32.8124 215.15 45.1144C215.06 45.7053 214.969 46.3073 214.877 46.9211L212.994 46.835L210.963 12.308L196.72 15.3065C195.069 23.2691 193.72 29.1717 192.544 34.3207C190.053 45.2256 188.333 52.7504 186.153 69.3067L198.343 65.363C198.547 58.7557 198.889 54.7432 200.874 47.777L201.774 44.6174L202.695 47.7712C204.677 54.5633 205.989 58.4508 208.702 65.0969C210.932 64.9852 214.031 64.2532 216.738 63.4835C218.204 63.0668 219.522 62.6487 220.474 62.3347C220.9 62.194 221.253 62.0744 221.511 61.9854Z" fill="white"/>
<path fill-rule="evenodd" clip-rule="evenodd" d="M212.725 10L214.356 37.7175C215.683 29.0614 216.758 22.56 218.46 14.3154L218.595 13.663L235.318 11.2739L234.977 12.6411C232.328 23.242 229.396 35.8085 227.125 45.7277C225.99 50.6867 225.02 54.9828 224.335 58.0391C223.992 59.5672 223.72 60.7853 223.534 61.6213C223.441 62.0393 223.369 62.3618 223.321 62.5797L223.248 62.9095L223.247 62.9105C223.247 62.9107 223.247 62.9108 222.322 62.706C222.642 63.5981 222.642 63.5982 222.641 63.5982L222.641 63.5984L222.612 63.6087C222.593 63.6154 222.566 63.6252 222.53 63.6379C222.458 63.6632 222.352 63.7002 222.216 63.7471C221.945 63.841 221.553 63.9745 221.068 64.1346C220.098 64.4544 218.754 64.8808 217.257 65.3065C214.302 66.1468 210.618 67.0243 208.065 67.0066L207.435 67.0023L207.195 66.4189C204.762 60.4918 203.418 56.7394 201.839 51.5439C200.612 56.6536 200.385 60.3064 200.217 66.0865L200.198 66.7548L183.889 72.0314L184.08 70.548C186.365 52.8558 188.135 45.1067 190.711 33.8325C191.916 28.558 193.297 22.512 194.989 14.3153L195.115 13.7075L212.725 10ZM222.322 62.706L222.641 63.5982L223.134 63.4216L223.247 62.9108L222.322 62.706ZM221.511 61.9854C221.556 61.7829 221.614 61.523 221.684 61.2093C221.87 60.3724 222.142 59.1533 222.485 57.6241C223.172 54.5658 224.142 50.267 225.278 45.3048C227.453 35.8044 230.236 23.8676 232.798 13.5486L220.182 15.3508C218.143 25.3152 217.009 32.8124 215.15 45.1144C215.06 45.7053 214.969 46.3073 214.877 46.9211L212.994 46.835L210.963 12.308L196.72 15.3065C195.069 23.2691 193.72 29.1717 192.544 34.3207C190.053 45.2256 188.333 52.7504 186.153 69.3067L198.343 65.363C198.547 58.7557 198.889 54.7432 200.874 47.777L201.774 44.6174L202.695 47.7712C204.677 54.5633 205.989 58.4508 208.702 65.0969C210.932 64.9852 214.031 64.2532 216.738 63.4835C218.204 63.0668 219.522 62.6487 220.474 62.3347C220.9 62.194 221.253 62.0744 221.511 61.9854Z" fill="#1D1D1D"/>
<path d="M222.322 62.706C223.247 62.9108 223.247 62.9107 223.247 62.9105L223.248 62.9095L223.321 62.5797C223.369 62.3618 223.441 62.0393 223.534 61.6213C223.72 60.7853 223.992 59.5672 224.335 58.0391C225.02 54.9828 225.99 50.6867 227.125 45.7277C229.396 35.8085 232.328 23.242 234.977 12.6411L235.318 11.2739L218.595 13.663L218.46 14.3154C216.758 22.56 215.683 29.0614 214.356 37.7175L212.725 10L195.115 13.7075L194.989 14.3153C193.297 22.512 191.916 28.558 190.711 33.8325C188.135 45.1067 186.365 52.8558 184.08 70.548L183.889 72.0314L200.198 66.7548L200.217 66.0865C200.385 60.3064 200.612 56.6536 201.839 51.5439C203.418 56.7394 204.762 60.4918 207.195 66.4189L207.435 67.0023L208.065 67.0066C210.618 67.0243 214.302 66.1468 217.257 65.3065C218.754 64.8808 220.098 64.4544 221.068 64.1346C221.553 63.9745 221.945 63.8409 222.216 63.7471C222.352 63.7002 222.458 63.6632 222.53 63.6379C222.566 63.6252 222.593 63.6154 222.612 63.6087L222.641 63.5984L222.641 63.5982M222.322 62.706C222.642 63.5981 222.642 63.5982 222.641 63.5982M222.322 62.706L222.641 63.5982M222.322 62.706L223.247 62.9108L223.134 63.4216L222.641 63.5982M221.684 61.2093C221.614 61.523 221.556 61.7829 221.511 61.9854C221.253 62.0744 220.9 62.194 220.474 62.3347C219.522 62.6487 218.204 63.0668 216.738 63.4835C214.031 64.2532 210.932 64.9852 208.702 65.0969C205.989 58.4508 204.677 54.5633 202.695 47.7712L201.774 44.6174L200.874 47.777C198.889 54.7432 198.547 58.7557 198.343 65.363L186.153 69.3067C188.333 52.7504 190.053 45.2256 192.544 34.3207C193.72 29.1717 195.069 23.2691 196.72 15.3065L210.963 12.308L212.994 46.835L214.877 46.9211C214.969 46.3073 215.06 45.7053 215.15 45.1144C217.009 32.8124 218.143 25.3152 220.182 15.3508L232.798 13.5486C230.236 23.8676 227.453 35.8044 225.278 45.3048C224.142 50.267 223.172 54.5658 222.485 57.6241C222.142 59.1533 221.87 60.3724 221.684 61.2093Z" stroke="black" stroke-width="2"/>
<path fill-rule="evenodd" clip-rule="evenodd" d="M67.2474 24.5657C62.2435 48.32 59.7032 61.4484 57.1884 86.5958C56.8235 86.619 56.4724 86.6402 56.1329 86.6607C52.4708 86.8821 50.1534 87.0222 46.2912 88.6914C45.2854 88.614 46.9411 75.2499 50.4825 66.897L41.6809 71.5074C37.2973 78.4329 34.9678 83.4885 32.8793 91.2061C26.3433 92.3969 22.6101 93.4835 15.6953 97.0738C23.3363 75.4836 30.3805 61.0402 39.4507 42.4428C41.6049 38.0259 43.8734 33.3747 46.2912 28.3378L67.2474 24.5657ZM42.5192 56.8381L53.4163 53.066C54.8059 46.8881 55.8265 43.4876 58.0267 37.5585C54.2703 37.9768 52.4938 38.7064 49.6442 40.4923C46.8358 46.1865 45.2821 49.8394 42.5192 56.8381Z" fill="#C4B0D5" stroke="black" stroke-width="2"/>
<path fill-rule="evenodd" clip-rule="evenodd" d="M68.464 23.3838L68.1739 24.7611C63.1734 48.4993 60.6405 61.5907 58.1306 86.6902L58.0505 87.4906L57.2478 87.5417C56.8837 87.5648 56.5336 87.586 56.1965 87.6064L56.1893 87.6068C52.5514 87.8267 50.3709 87.9604 46.6664 89.5614L46.4514 89.6543L46.2178 89.6364C45.5668 89.5863 45.3154 89.0315 45.2547 88.882C45.164 88.6585 45.1202 88.406 45.0949 88.1821C45.0421 87.7165 45.0411 87.0952 45.0765 86.3812C45.148 84.9387 45.3769 82.9615 45.746 80.7422C46.3524 77.0961 47.3497 72.7201 48.6929 68.9039L42.3453 72.2288C38.0944 78.9731 35.8327 83.9174 33.7933 91.4538L33.637 92.0313L33.0484 92.1386C26.5942 93.3144 22.9527 94.3732 16.1312 97.915L14 99.0216L14.8012 96.7578C22.4601 75.1168 29.5242 60.6327 38.5925 42.0392L38.5982 42.0275L38.5985 42.0268C40.7527 37.6099 43.0198 32.9614 45.4361 27.9278L45.6458 27.4911L68.464 23.3838ZM46.935 29.1848C44.5942 34.0571 42.3935 38.5693 40.3019 42.858L40.3017 42.8583C31.5492 60.8044 24.7025 74.8438 17.3846 95.1586C22.9159 92.4508 26.5427 91.4213 32.1216 90.3821C34.1985 82.8834 36.5606 77.8238 40.8794 71.0007L41.0153 70.786L52.3879 64.8289L51.3541 67.2671C49.6242 71.3474 48.3403 76.6955 47.6156 81.0531C47.2539 83.2285 47.0362 85.129 46.9694 86.475C46.9518 86.8319 46.9453 87.1393 46.9482 87.3961C50.3743 86.0596 52.709 85.9184 56.0615 85.7158L56.0749 85.715C56.1578 85.7099 56.2412 85.7049 56.3253 85.6998C58.7697 61.5104 61.2651 48.4094 66.0294 25.7478L46.935 29.1848ZM59.4494 36.4466L58.9143 37.8883C56.7284 43.779 55.72 47.1389 54.3401 53.2741L54.2243 53.789L40.8797 58.4083L41.6369 56.4902C44.4055 49.4773 45.9697 45.7986 48.7936 40.0733L48.9125 39.8322L49.1402 39.6895C50.5891 38.7814 51.8112 38.1124 53.1731 37.6212C54.5365 37.1296 55.9988 36.8308 57.921 36.6168L59.4494 36.4466ZM50.3741 41.1538C47.92 46.1423 46.4277 49.5799 44.1609 55.2668L52.6075 52.343C53.8308 46.9625 54.8001 43.6498 56.594 38.7085C55.5157 38.8858 54.6349 39.1089 53.8161 39.4041C52.7027 39.8056 51.667 40.3536 50.3741 41.1538Z" fill="white"/>
<path fill-rule="evenodd" clip-rule="evenodd" d="M68.464 23.3838L68.1739 24.7611C63.1734 48.4993 60.6405 61.5907 58.1306 86.6902L58.0505 87.4906L57.2478 87.5417C56.8837 87.5648 56.5336 87.586 56.1965 87.6064L56.1893 87.6068C52.5514 87.8267 50.3709 87.9604 46.6664 89.5614L46.4514 89.6543L46.2178 89.6364C45.5668 89.5863 45.3154 89.0315 45.2547 88.882C45.164 88.6585 45.1202 88.406 45.0949 88.1821C45.0421 87.7165 45.0411 87.0952 45.0765 86.3812C45.148 84.9387 45.3769 82.9615 45.746 80.7422C46.3524 77.0961 47.3497 72.7201 48.6929 68.9039L42.3453 72.2288C38.0944 78.9731 35.8327 83.9174 33.7933 91.4538L33.637 92.0313L33.0484 92.1386C26.5942 93.3144 22.9527 94.3732 16.1312 97.915L14 99.0216L14.8012 96.7578C22.4601 75.1168 29.5242 60.6327 38.5925 42.0392L38.5982 42.0275L38.5985 42.0268C40.7527 37.6099 43.0198 32.9614 45.4361 27.9278L45.6458 27.4911L68.464 23.3838ZM46.935 29.1848C44.5942 34.0571 42.3935 38.5693 40.3019 42.858L40.3017 42.8583C31.5492 60.8044 24.7025 74.8438 17.3846 95.1586C22.9159 92.4508 26.5427 91.4213 32.1216 90.3821C34.1985 82.8834 36.5606 77.8238 40.8794 71.0007L41.0153 70.786L52.3879 64.8289L51.3541 67.2671C49.6242 71.3474 48.3403 76.6955 47.6156 81.0531C47.2539 83.2285 47.0362 85.129 46.9694 86.475C46.9518 86.8319 46.9453 87.1393 46.9482 87.3961C50.3743 86.0596 52.709 85.9184 56.0615 85.7158L56.0749 85.715C56.1578 85.7099 56.2412 85.7049 56.3253 85.6998C58.7697 61.5104 61.2651 48.4094 66.0294 25.7478L46.935 29.1848ZM59.4494 36.4466L58.9143 37.8883C56.7284 43.779 55.72 47.1389 54.3401 53.2741L54.2243 53.789L40.8797 58.4083L41.6369 56.4902C44.4055 49.4773 45.9697 45.7986 48.7936 40.0733L48.9125 39.8322L49.1402 39.6895C50.5891 38.7814 51.8112 38.1124 53.1731 37.6212C54.5365 37.1296 55.9988 36.8308 57.921 36.6168L59.4494 36.4466ZM50.3741 41.1538C47.92 46.1423 46.4277 49.5799 44.1609 55.2668L52.6075 52.343C53.8308 46.9625 54.8001 43.6498 56.594 38.7085C55.5157 38.8858 54.6349 39.1089 53.8161 39.4041C52.7027 39.8056 51.667 40.3536 50.3741 41.1538Z" fill="#C4B0D5"/>
<path fill-rule="evenodd" clip-rule="evenodd" d="M68.464 23.3838L68.1739 24.7611C63.1734 48.4993 60.6405 61.5907 58.1306 86.6902L58.0505 87.4906L57.2478 87.5417C56.8837 87.5648 56.5336 87.586 56.1965 87.6064L56.1893 87.6068C52.5514 87.8267 50.3709 87.9604 46.6664 89.5614L46.4514 89.6543L46.2178 89.6364C45.5668 89.5863 45.3154 89.0315 45.2547 88.882C45.164 88.6585 45.1202 88.406 45.0949 88.1821C45.0421 87.7165 45.0411 87.0952 45.0765 86.3812C45.148 84.9387 45.3769 82.9615 45.746 80.7422C46.3524 77.0961 47.3497 72.7201 48.6929 68.9039L42.3453 72.2288C38.0944 78.9731 35.8327 83.9174 33.7933 91.4538L33.637 92.0313L33.0484 92.1386C26.5942 93.3144 22.9527 94.3732 16.1312 97.915L14 99.0216L14.8012 96.7578C22.4601 75.1168 29.5242 60.6327 38.5925 42.0392L38.5982 42.0275L38.5985 42.0268C40.7527 37.6099 43.0198 32.9614 45.4361 27.9278L45.6458 27.4911L68.464 23.3838ZM46.935 29.1848C44.5942 34.0571 42.3935 38.5693 40.3019 42.858L40.3017 42.8583C31.5492 60.8044 24.7025 74.8438 17.3846 95.1586C22.9159 92.4508 26.5427 91.4213 32.1216 90.3821C34.1985 82.8834 36.5606 77.8238 40.8794 71.0007L41.0153 70.786L52.3879 64.8289L51.3541 67.2671C49.6242 71.3474 48.3403 76.6955 47.6156 81.0531C47.2539 83.2285 47.0362 85.129 46.9694 86.475C46.9518 86.8319 46.9453 87.1393 46.9482 87.3961C50.3743 86.0596 52.709 85.9184 56.0615 85.7158L56.0749 85.715C56.1578 85.7099 56.2412 85.7049 56.3253 85.6998C58.7697 61.5104 61.2651 48.4094 66.0294 25.7478L46.935 29.1848ZM59.4494 36.4466L58.9143 37.8883C56.7284 43.779 55.72 47.1389 54.3401 53.2741L54.2243 53.789L40.8797 58.4083L41.6369 56.4902C44.4055 49.4773 45.9697 45.7986 48.7936 40.0733L48.9125 39.8322L49.1402 39.6895C50.5891 38.7814 51.8112 38.1124 53.1731 37.6212C54.5365 37.1296 55.9988 36.8308 57.921 36.6168L59.4494 36.4466ZM50.3741 41.1538C47.92 46.1423 46.4277 49.5799 44.1609 55.2668L52.6075 52.343C53.8308 46.9625 54.8001 43.6498 56.594 38.7085C55.5157 38.8858 54.6349 39.1089 53.8161 39.4041C52.7027 39.8056 51.667 40.3536 50.3741 41.1538Z" stroke="black" stroke-width="2"/>
<path d="M57.6074 87.0173C59.0751 65.003 61.4284 51.8085 67.2472 24.9872C72.7603 23.4877 75.664 23.1166 80.6592 22.8916C77.6891 34.1995 76.8413 40.5911 76.0488 52.2302C83.4982 40.4643 87.7563 33.8499 97.424 21.6342C102.914 20.5624 105.711 20.3505 110.417 20.3768L92.3946 48.8772L105.387 79.8922C100.359 80.812 97.532 81.1088 92.3946 81.1496L82.7548 58.0979C79.974 61.3595 78.2618 63.1394 74.7914 66.0612C72.3465 72.9655 71.769 76.9311 71.4385 84.0835C66.1833 85.92 63.1516 86.5344 57.6074 87.0173Z" fill="#FBC98F" stroke="black" stroke-width="2"/>
<path fill-rule="evenodd" clip-rule="evenodd" d="M97.242 20.704C102.794 19.62 105.654 19.4024 110.422 19.4291L112.131 19.4387L93.4589 48.9663L106.716 80.6124L105.557 80.8243C100.48 81.7531 97.5981 82.0559 92.4017 82.0971L91.7653 82.1022L82.4716 59.8779C80.2534 62.4209 78.5553 64.1189 75.599 66.6192C73.2636 73.268 72.708 77.1301 72.3847 84.1271L72.3551 84.7667L71.7507 84.9779C66.4161 86.8422 63.3066 87.4719 57.6892 87.9613L56.5879 88.0572L56.6614 86.9542C58.1335 64.8735 60.4975 51.6279 66.3207 24.7862L66.4427 24.2237L66.9981 24.0727C72.5847 22.5532 75.5581 22.1726 80.6161 21.9448L81.9024 21.8868L81.5753 23.1322C78.9583 33.0956 78.0009 39.2016 77.2673 48.5385C83.5538 38.651 87.8915 32.1513 96.6805 21.046L96.898 20.7712L97.242 20.704ZM97.949 22.4975C88.4646 34.4999 84.2349 41.0715 76.849 52.737L75.1029 52.1657C75.8688 40.9168 76.69 34.5169 79.417 23.9023C75.3965 24.1257 72.6596 24.5235 68.0506 25.752C62.4233 51.7234 60.0857 64.8353 58.6277 85.9719C63.2127 85.5274 66.0594 84.9258 70.5222 83.3975C70.8624 76.5698 71.4896 72.545 73.8977 65.7447L73.9837 65.502L74.1807 65.3361C77.605 62.4531 79.2806 60.7115 82.0332 57.4829L83.0336 56.3094L93.0223 80.1953C97.3117 80.1407 99.9748 79.8812 104.056 79.1678L91.3293 48.7879L108.694 21.3273C105.104 21.3651 102.462 21.6284 97.949 22.4975Z" fill="white"/>
<path fill-rule="evenodd" clip-rule="evenodd" d="M97.242 20.704C102.794 19.62 105.654 19.4024 110.422 19.4291L112.131 19.4387L93.4589 48.9663L106.716 80.6124L105.557 80.8243C100.48 81.7531 97.5981 82.0559 92.4017 82.0971L91.7653 82.1022L82.4716 59.8779C80.2534 62.4209 78.5553 64.1189 75.599 66.6192C73.2636 73.268 72.708 77.1301 72.3847 84.1271L72.3551 84.7667L71.7507 84.9779C66.4161 86.8422 63.3066 87.4719 57.6892 87.9613L56.5879 88.0572L56.6614 86.9542C58.1335 64.8735 60.4975 51.6279 66.3207 24.7862L66.4427 24.2237L66.9981 24.0727C72.5847 22.5532 75.5581 22.1726 80.6161 21.9448L81.9024 21.8868L81.5753 23.1322C78.9583 33.0956 78.0009 39.2016 77.2673 48.5385C83.5538 38.651 87.8915 32.1513 96.6805 21.046L96.898 20.7712L97.242 20.704ZM97.949 22.4975C88.4646 34.4999 84.2349 41.0715 76.849 52.737L75.1029 52.1657C75.8688 40.9168 76.69 34.5169 79.417 23.9023C75.3965 24.1257 72.6596 24.5235 68.0506 25.752C62.4233 51.7234 60.0857 64.8353 58.6277 85.9719C63.2127 85.5274 66.0594 84.9258 70.5222 83.3975C70.8624 76.5698 71.4896 72.545 73.8977 65.7447L73.9837 65.502L74.1807 65.3361C77.605 62.4531 79.2806 60.7115 82.0332 57.4829L83.0336 56.3094L93.0223 80.1953C97.3117 80.1407 99.9748 79.8812 104.056 79.1678L91.3293 48.7879L108.694 21.3273C105.104 21.3651 102.462 21.6284 97.949 22.4975Z" fill="#F9C7AA"/>
<path fill-rule="evenodd" clip-rule="evenodd" d="M97.242 20.704C102.794 19.62 105.654 19.4024 110.422 19.4291L112.131 19.4387L93.4589 48.9663L106.716 80.6124L105.557 80.8243C100.48 81.7531 97.5981 82.0559 92.4017 82.0971L91.7653 82.1022L82.4716 59.8779C80.2534 62.4209 78.5553 64.1189 75.599 66.6192C73.2636 73.268 72.708 77.1301 72.3847 84.1271L72.3551 84.7667L71.7507 84.9779C66.4161 86.8422 63.3066 87.4719 57.6892 87.9613L56.5879 88.0572L56.6614 86.9542C58.1335 64.8735 60.4975 51.6279 66.3207 24.7862L66.4427 24.2237L66.9981 24.0727C72.5847 22.5532 75.5581 22.1726 80.6161 21.9448L81.9024 21.8868L81.5753 23.1322C78.9583 33.0956 78.0009 39.2016 77.2673 48.5385C83.5538 38.651 87.8915 32.1513 96.6805 21.046L96.898 20.7712L97.242 20.704ZM97.949 22.4975C88.4646 34.4999 84.2349 41.0715 76.849 52.737L75.1029 52.1657C75.8688 40.9168 76.69 34.5169 79.417 23.9023C75.3965 24.1257 72.6596 24.5235 68.0506 25.752C62.4233 51.7234 60.0857 64.8353 58.6277 85.9719C63.2127 85.5274 66.0594 84.9258 70.5222 83.3975C70.8624 76.5698 71.4896 72.545 73.8977 65.7447L73.9837 65.502L74.1807 65.3361C77.605 62.4531 79.2806 60.7115 82.0332 57.4829L83.0336 56.3094L93.0223 80.1953C97.3117 80.1407 99.9748 79.8812 104.056 79.1678L91.3293 48.7879L108.694 21.3273C105.104 21.3651 102.462 21.6284 97.949 22.4975Z" stroke="black" stroke-width="2"/>
</svg>
