<svg width="560" height="414" viewBox="0 0 560 414" fill="none" xmlns="http://www.w3.org/2000/svg">
<path d="M274.556 208.987C313.303 204.803 334.734 200.452 372.688 190.885L362.208 223.278C350.701 225.705 344.114 227.926 331.72 231.852C332.645 227.507 333.527 225.144 334.578 220.888C319.247 225.738 310.859 227.569 296.469 230.9C292.852 239.756 291.543 244.955 290.753 254.718C316.693 249.98 331.627 246.563 358.397 239.474C344.351 282.015 339.692 301.394 333.626 330.936L245.975 342.369L246.012 341.895C247.356 324.86 248.121 315.159 253.596 298.543L286.942 289.969C283.753 298.528 282.439 303.475 281.226 312.748C292.764 312.648 299.247 311.744 310.76 308.071C313.159 292.301 316.051 283.591 321.24 268.056C297.839 275.521 284.474 278.191 260.266 281.394L274.556 208.987Z" fill="#B0ABAB" stroke="#B0ABAB" stroke-width="30"/>
<path fill-rule="evenodd" clip-rule="evenodd" d="M375.936 187.845L363.874 225.128L362.653 225.386C352.338 227.562 346.047 229.561 335.718 232.844C334.649 233.183 333.536 233.537 332.372 233.906L328.844 235.024L329.614 231.404C330.09 229.167 330.556 227.44 331.029 225.755C331.111 225.464 331.192 225.175 331.274 224.885C331.347 224.627 331.42 224.368 331.494 224.106C319.42 227.811 311.509 229.638 300.088 232.275C299.42 232.429 298.74 232.586 298.047 232.746C295.171 239.924 293.919 244.645 293.156 252.087C317.347 247.619 332.098 244.21 357.846 237.392L361.69 236.374L360.443 240.15C346.425 282.608 341.787 301.906 335.737 331.37L335.428 332.874L243.619 344.849L243.869 341.685C245.213 324.647 245.995 314.732 251.552 297.869L251.92 296.751L290.402 286.855L288.962 290.721C286.121 298.346 284.81 302.993 283.704 310.557C293.119 310.356 299.156 309.43 308.837 306.418C311.008 292.667 313.618 284.152 317.863 271.378C296.736 277.936 283.437 280.502 260.549 283.53L257.572 283.924L272.751 207.015L274.326 206.845C312.951 202.674 334.281 198.345 372.162 188.796L375.936 187.845ZM276.364 210.957L262.962 278.86C285.219 275.839 298.303 273.112 320.587 266.004L324.629 264.715L323.284 268.739C318.101 284.258 315.26 292.819 312.891 308.395L312.69 309.717L311.416 310.123C299.683 313.867 292.984 314.801 281.245 314.902L278.769 314.923L279.091 312.468C280.134 304.5 281.262 299.621 283.534 293.07L255.279 300.335C250.444 315.317 249.546 324.597 248.332 339.889L331.826 328.999C337.58 301.09 342.228 281.895 355.112 242.569C330.646 248.996 315.877 252.319 291.141 256.837L288.38 257.341L288.607 254.544C289.416 244.552 290.779 239.137 294.476 230.085L294.898 229.053L295.984 228.801C297.058 228.553 298.097 228.313 299.108 228.079C311.657 225.182 319.826 223.296 333.93 218.834L337.592 217.676L336.671 221.404C336.226 223.206 335.808 224.683 335.415 226.073C335.335 226.358 335.255 226.639 335.177 226.919C335.017 227.49 334.859 228.058 334.704 228.645C344.462 225.544 350.807 223.536 360.542 221.431L369.442 193.921C334.227 202.726 312.958 206.952 276.364 210.957Z" fill="#B0ABAB" stroke="#B0ABAB" stroke-width="30"/>
<path fill-rule="evenodd" clip-rule="evenodd" d="M367.336 210.426C356.851 253.021 350.26 279.794 343.154 329.031L425.089 318.551C431.256 274.984 437.802 234.563 448.907 191.838L367.925 208.034C367.728 208.837 367.531 209.635 367.336 210.426ZM387.33 242.24C383.554 257.517 381.881 266.838 379.358 284.253L407.258 280.614C409.408 265.486 411.69 251.451 415.562 236.616L387.33 242.24Z" fill="#B0ABAB" stroke="#B0ABAB" stroke-width="30"/>
<path fill-rule="evenodd" clip-rule="evenodd" d="M451.857 189.051L450.992 192.38C439.918 234.984 433.385 275.308 427.221 318.853L426.991 320.479L340.617 331.527L341.022 328.723C348.142 279.381 354.754 252.526 365.242 209.921L366.16 206.19L451.857 189.051ZM369.689 209.878L369.428 210.941C359.147 252.703 352.63 279.179 345.694 326.534L423.186 316.622C429.129 274.778 435.481 235.712 445.965 194.623L369.689 209.878ZM418.514 233.831L417.646 237.16C413.806 251.874 411.537 265.812 409.39 280.917L409.16 282.538L376.818 286.756L377.226 283.944C379.756 266.482 381.441 257.088 385.238 241.723L385.566 240.395L418.514 233.831ZM389.094 244.085C385.769 257.676 384.125 266.639 381.9 281.749L405.357 278.689C407.283 265.27 409.364 252.605 412.632 239.396L389.094 244.085Z" fill="#B0ABAB" stroke="#B0ABAB" stroke-width="30"/>
<path d="M425.088 318.551C432.698 259.622 437.754 249.507 449.859 190.885L486.063 183.263L490.826 264.245C495.525 233.178 498.141 215.45 503.212 190.885L536.557 186.121C524.505 234.358 509.881 300.449 509.881 300.449C509.881 300.449 488.403 308.146 477.488 308.071C470.907 292.039 467.858 283.069 463.197 267.103C458.602 283.228 457.94 292.226 457.481 308.071L425.088 318.551Z" fill="#B0ABAB" stroke="#B0ABAB" stroke-width="30"/>
<path fill-rule="evenodd" clip-rule="evenodd" d="M488.066 180.64L491.772 243.646C494.789 223.97 497.233 209.191 501.102 190.45L501.408 188.967L539.423 183.536L538.647 186.644C532.626 210.741 525.961 239.307 520.799 261.855C518.219 273.127 516.015 282.893 514.456 289.84C513.676 293.314 513.058 296.083 512.635 297.983C512.423 298.933 512.261 299.666 512.151 300.162L511.984 300.911L511.984 300.914C511.984 300.914 511.984 300.914 509.88 300.449C510.607 302.477 510.607 302.477 510.607 302.477L510.606 302.477L510.54 302.501C510.497 302.516 510.434 302.538 510.352 302.567C510.189 302.625 509.948 302.709 509.64 302.816C509.023 303.029 508.132 303.332 507.029 303.696C504.825 304.423 501.769 305.393 498.366 306.36C491.649 308.27 483.276 310.265 477.473 310.225L476.039 310.215L475.495 308.889C469.964 295.416 466.909 286.886 463.319 275.076C460.531 286.691 460.014 294.994 459.634 308.133L459.59 309.653L422.516 321.647L422.951 318.275C428.145 278.058 432.169 260.443 438.023 234.815C440.762 222.825 443.901 209.082 447.749 190.45L448.034 189.068L488.066 180.64ZM509.88 300.449L510.607 302.477L511.727 302.076L511.984 300.914L509.88 300.449ZM508.037 298.811C508.14 298.351 508.271 297.76 508.43 297.047C508.853 295.144 509.472 292.373 510.252 288.897C511.812 281.945 514.017 272.173 516.599 260.893C521.543 239.297 527.87 212.163 533.693 188.707L505.016 192.803C500.38 215.454 497.804 232.496 493.577 260.461C493.374 261.804 493.167 263.172 492.956 264.567L488.675 264.372L484.059 185.886L451.682 192.703C447.93 210.803 444.865 224.22 442.191 235.925C436.527 260.713 432.619 277.818 427.664 315.453L455.372 306.489C455.837 291.469 456.613 282.348 461.125 266.513L463.172 259.331L465.265 266.5C469.772 281.939 472.754 290.776 478.92 305.884C483.99 305.63 491.035 303.966 497.188 302.216C500.519 301.269 503.515 300.319 505.679 299.605C506.648 299.285 507.449 299.013 508.037 298.811Z" fill="#B0ABAB"/>
<path d="M509.88 300.449C511.984 300.914 511.984 300.914 511.984 300.914L511.984 300.911L512.151 300.162C512.261 299.666 512.423 298.933 512.635 297.983C513.058 296.083 513.676 293.314 514.456 289.84C516.015 282.893 518.219 273.127 520.799 261.855C525.961 239.307 532.626 210.741 538.647 186.644L539.423 183.536L501.408 188.967L501.102 190.45C497.233 209.191 494.789 223.97 491.772 243.646L488.066 180.64L448.034 189.068L447.749 190.45C443.901 209.082 440.762 222.825 438.023 234.815C432.169 260.443 428.145 278.058 422.951 318.275L422.516 321.647L459.59 309.653L459.634 308.133C460.014 294.994 460.531 286.691 463.319 275.076C466.909 286.886 469.964 295.416 475.495 308.889L476.039 310.215L477.473 310.225C483.276 310.265 491.649 308.27 498.366 306.36C501.769 305.393 504.825 304.423 507.029 303.696C508.132 303.332 509.023 303.029 509.64 302.816C509.948 302.709 510.189 302.625 510.352 302.567C510.434 302.538 510.497 302.516 510.54 302.501L510.606 302.477L510.607 302.477M509.88 300.449C510.607 302.477 510.607 302.477 510.607 302.477M509.88 300.449L510.607 302.477M509.88 300.449L511.984 300.914L511.727 302.076L510.607 302.477M508.43 297.047C508.271 297.76 508.14 298.351 508.037 298.811C507.449 299.013 506.648 299.285 505.679 299.605C503.515 300.319 500.519 301.269 497.188 302.216C491.035 303.966 483.99 305.63 478.92 305.884C472.754 290.776 469.772 281.939 465.265 266.5L463.172 259.331L461.125 266.513C456.613 282.348 455.837 291.469 455.372 306.489L427.664 315.453C432.619 277.818 436.527 260.713 442.191 235.925C444.865 224.22 447.93 210.803 451.682 192.703L484.059 185.886L488.675 264.372L492.956 264.567C493.167 263.172 493.374 261.804 493.577 260.461C497.804 232.496 500.38 215.454 505.016 192.803L533.693 188.707C527.87 212.163 521.543 239.297 516.599 260.893C514.017 272.173 511.812 281.945 510.252 288.897C509.472 292.373 508.853 295.144 508.43 297.047Z" stroke="#B0ABAB" stroke-width="30"/>
<path fill-rule="evenodd" clip-rule="evenodd" d="M157.371 213.751C145.997 267.748 140.222 297.591 134.506 354.755C133.676 354.807 132.878 354.856 132.106 354.902C123.782 355.406 118.514 355.724 109.735 359.518C107.448 359.342 111.212 328.964 119.262 309.976L99.2548 320.456C89.2902 336.199 83.9948 347.691 79.2474 365.235C64.39 367.941 55.904 370.412 40.1855 378.573C57.5547 329.495 73.5673 296.663 94.1853 254.388C99.082 244.348 104.239 233.775 109.735 222.325L157.371 213.751ZM101.16 287.111L125.931 278.536C129.09 264.493 131.41 256.763 136.411 243.285C127.872 244.236 123.834 245.895 117.357 249.954C110.973 262.898 107.441 271.202 101.16 287.111Z" fill="#B0ABAB" stroke="#B0ABAB" stroke-width="30"/>
<path fill-rule="evenodd" clip-rule="evenodd" d="M160.139 211.064L159.479 214.195C148.113 268.155 142.355 297.914 136.65 354.969L136.468 356.788L134.643 356.904C133.815 356.957 133.019 357.005 132.253 357.051L132.237 357.052C123.967 357.552 119.011 357.856 110.59 361.496L110.101 361.707L109.57 361.666C108.09 361.552 107.519 360.291 107.381 359.951C107.175 359.443 107.075 358.869 107.017 358.36C106.897 357.302 106.895 355.89 106.976 354.266C107.138 350.988 107.659 346.493 108.498 341.448C109.876 333.16 112.143 323.213 115.196 314.538L100.767 322.096C91.1042 337.427 85.963 348.666 81.3271 365.797L80.9719 367.11L79.6339 367.354C64.9626 370.027 56.6848 372.433 41.1785 380.485L36.334 383L38.1552 377.854C55.5652 328.661 71.6229 295.736 92.2365 253.47L92.2495 253.444L92.2502 253.442C97.147 243.402 102.301 232.835 107.793 221.393L108.27 220.4L160.139 211.064ZM111.2 224.25C105.879 235.326 100.877 245.583 96.1221 255.332L96.1218 255.332C76.2259 296.126 60.6624 328.04 44.0278 374.219C56.6012 368.064 64.8454 365.723 77.5273 363.361C82.2483 346.315 87.6178 334.814 97.4349 319.304L97.7439 318.816L123.595 305.275L121.246 310.817C117.313 320.092 114.395 332.249 112.747 342.155C111.925 347.1 111.43 351.42 111.279 354.48C111.238 355.291 111.224 355.99 111.23 356.574C119.018 353.535 124.325 353.215 131.946 352.754L131.977 352.752C132.165 352.741 132.355 352.729 132.546 352.718C138.102 297.731 143.775 267.951 154.605 216.437L111.2 224.25ZM139.647 240.757L138.431 244.035C133.462 257.425 131.17 265.063 128.033 279.009L127.77 280.179L97.4357 290.68L99.1569 286.32C105.45 270.378 109.006 262.016 115.425 249.001L115.695 248.454L116.213 248.129C119.507 246.065 122.285 244.544 125.381 243.428C128.48 242.31 131.804 241.631 136.173 241.144L139.647 240.757ZM119.018 251.458C113.439 262.797 110.047 270.611 104.894 283.539L124.095 276.892C126.875 264.662 129.079 257.131 133.157 245.899C130.705 246.302 128.703 246.809 126.842 247.48C124.311 248.393 121.957 249.639 119.018 251.458Z" fill="#B0ABAB" stroke="#B0ABAB" stroke-width="30"/>
<path d="M135.459 355.712C138.795 305.67 144.145 275.677 157.372 214.708C169.904 211.3 176.504 210.456 187.859 209.945C181.108 235.649 179.18 250.178 177.379 276.636C194.313 249.89 203.992 234.855 225.968 207.086C238.447 204.65 244.806 204.168 255.503 204.228L214.536 269.014L244.07 339.516C232.64 341.606 226.214 342.281 214.536 342.374L192.623 289.974C186.302 297.388 182.41 301.434 174.521 308.076C168.963 323.77 167.65 332.785 166.899 349.043C154.953 353.218 148.062 354.614 135.459 355.712Z" fill="#B0ABAB" stroke="#B0ABAB" stroke-width="30"/>
<path fill-rule="evenodd" clip-rule="evenodd" d="M225.556 204.972C238.177 202.508 244.678 202.013 255.515 202.074L259.4 202.096L216.956 269.217L247.092 341.153L244.458 341.635C232.916 343.746 226.365 344.434 214.553 344.528L213.106 344.54L191.98 294.02C186.938 299.801 183.078 303.661 176.358 309.344C171.049 324.458 169.786 333.237 169.051 349.143L168.984 350.596L167.61 351.077C155.484 355.314 148.415 356.746 135.646 357.858L133.143 358.076L133.31 355.569C136.656 305.376 142.03 275.267 155.267 214.252L155.544 212.973L156.807 212.63C169.506 209.176 176.265 208.311 187.762 207.793L190.686 207.661L189.943 210.492C183.994 233.14 181.818 247.02 180.15 268.244C194.44 245.768 204.301 230.994 224.279 205.75L224.774 205.125L225.556 204.972ZM227.163 209.049C205.603 236.332 195.988 251.271 179.199 277.788L175.23 276.489C176.971 250.919 178.838 236.371 185.037 212.242C175.897 212.75 169.676 213.655 159.199 216.447C146.407 275.484 141.094 305.289 137.779 353.336C148.202 352.326 154.673 350.958 164.817 347.484C165.591 331.964 167.017 322.815 172.49 307.357L172.686 306.805L173.134 306.428C180.918 299.874 184.727 295.915 190.984 288.576L193.258 285.909L215.964 340.205C225.714 340.081 231.768 339.491 241.045 337.869L212.115 268.811L251.588 206.389C243.428 206.475 237.422 207.073 227.163 209.049Z" fill="#B0ABAB" stroke="#B0ABAB" stroke-width="30"/>
<path d="M265.223 197.498C303.969 193.314 325.4 188.963 363.354 179.396L352.874 211.789C341.367 214.216 334.78 216.438 322.386 220.364C323.311 216.018 324.193 213.656 325.244 209.399C309.913 214.249 301.525 216.08 287.135 219.411C283.518 228.267 282.209 233.466 281.419 243.229C307.359 238.491 322.293 235.075 349.063 227.985C335.017 270.526 330.358 289.905 324.292 319.447L236.641 330.88L236.678 330.406C238.022 313.371 238.787 303.671 244.262 287.055L277.608 278.48C274.419 287.039 273.105 291.986 271.892 301.259C283.43 301.159 289.913 300.255 301.426 296.582C303.825 280.812 306.717 272.103 311.906 256.567C288.505 264.032 275.14 266.703 250.932 269.906L265.223 197.498Z" fill="white" stroke="white" stroke-width="30"/>
<path fill-rule="evenodd" clip-rule="evenodd" d="M366.602 176.356L354.54 213.639L353.319 213.897C343.004 216.073 336.713 218.072 326.384 221.355C325.315 221.695 324.202 222.048 323.038 222.417L319.51 223.535L320.28 219.915C320.756 217.678 321.222 215.951 321.695 214.266C321.777 213.975 321.858 213.686 321.94 213.396C322.013 213.138 322.086 212.879 322.16 212.617C310.086 216.323 302.175 218.149 290.754 220.786C290.086 220.94 289.406 221.097 288.713 221.257C285.837 228.435 284.585 233.157 283.822 240.598C308.013 236.13 322.764 232.722 348.512 225.903L352.356 224.885L351.109 228.661C337.091 271.119 332.453 290.417 326.403 319.881L326.094 321.385L234.285 333.36L234.535 330.196C235.879 313.158 236.661 303.243 242.218 286.381L242.586 285.262L281.068 275.367L279.628 279.232C276.787 286.857 275.476 291.504 274.37 299.068C283.785 298.868 289.822 297.941 299.503 294.93C301.674 281.178 304.284 272.664 308.529 259.889C287.402 266.447 274.103 269.013 251.215 272.041L248.238 272.435L263.417 195.527L264.992 195.356C303.617 191.185 324.947 186.856 362.828 177.308L366.602 176.356ZM267.03 199.469L253.629 267.371C275.885 264.35 288.969 261.623 311.253 254.515L315.295 253.226L313.95 257.25C308.767 272.769 305.926 281.33 303.557 296.906L303.356 298.228L302.082 298.634C290.349 302.378 283.65 303.312 271.911 303.413L269.435 303.434L269.757 300.979C270.8 293.011 271.928 288.132 274.2 281.581L245.945 288.847C241.11 303.828 240.212 313.108 238.998 328.4L322.492 317.51C328.246 289.601 332.894 270.406 345.778 231.08C321.312 237.507 306.543 240.83 281.807 245.348L279.046 245.852L279.273 243.055C280.082 233.063 281.445 227.649 285.142 218.596L285.564 217.564L286.65 217.312C287.724 217.064 288.763 216.824 289.774 216.59C302.323 213.693 310.492 211.807 324.596 207.345L328.258 206.187L327.337 209.916C326.892 211.717 326.475 213.194 326.081 214.585C326.001 214.869 325.921 215.151 325.843 215.43C325.683 216.001 325.525 216.57 325.37 217.157C335.128 214.055 341.473 212.047 351.208 209.942L360.108 182.432C324.893 191.238 303.624 195.464 267.03 199.469Z" fill="white" stroke="white" stroke-width="30"/>
<path fill-rule="evenodd" clip-rule="evenodd" d="M358.002 198.938C347.517 241.532 340.926 268.305 333.82 317.542L415.755 307.062C421.922 263.495 428.468 223.074 439.573 180.349L358.591 196.546C358.394 197.349 358.197 198.146 358.002 198.938ZM377.996 230.751C374.22 246.029 372.547 255.35 370.024 272.764L397.924 269.125C400.074 253.998 402.356 239.962 406.228 225.127L377.996 230.751Z" fill="white" stroke="white" stroke-width="30"/>
<path fill-rule="evenodd" clip-rule="evenodd" d="M442.523 177.562L441.658 180.891C430.584 223.495 424.051 263.82 417.887 307.364L417.657 308.99L331.283 320.038L331.688 317.234C338.809 267.892 345.42 241.037 355.908 198.432L356.826 194.702L442.523 177.562ZM360.355 198.389L360.094 199.453C349.813 241.215 343.296 267.69 336.36 315.046L413.852 305.134C419.795 263.29 426.147 224.224 436.631 183.134L360.355 198.389ZM409.18 222.343L408.312 225.671C404.472 240.385 402.203 254.323 400.056 269.428L399.826 271.049L367.484 275.267L367.892 272.455C370.422 254.993 372.107 245.599 375.904 230.234L376.232 228.906L409.18 222.343ZM379.76 232.596C376.435 246.188 374.791 255.15 372.566 270.26L396.023 267.2C397.949 253.782 400.03 241.116 403.298 227.907L379.76 232.596Z" fill="white" stroke="white" stroke-width="30"/>
<path d="M415.754 307.062C423.364 248.134 428.42 238.018 440.525 179.396L476.729 171.775L481.492 252.757C486.191 221.69 488.807 203.961 493.878 179.396L527.223 174.633C515.171 222.87 500.547 288.96 500.547 288.96C500.547 288.96 479.069 296.658 468.154 296.582C461.573 280.55 458.524 271.58 453.863 255.615C449.268 271.74 448.606 280.737 448.147 296.582L415.754 307.062Z" fill="white" stroke="white" stroke-width="30"/>
<path fill-rule="evenodd" clip-rule="evenodd" d="M478.732 169.151L482.438 232.157C485.455 212.481 487.899 197.702 491.768 178.961L492.074 177.478L530.089 172.047L529.313 175.155C523.292 199.252 516.627 227.818 511.465 250.366C508.885 261.639 506.681 271.404 505.122 278.351C504.342 281.825 503.724 284.594 503.301 286.494C503.089 287.445 502.927 288.178 502.817 288.673L502.65 289.423L502.65 289.425C502.65 289.425 502.65 289.426 500.546 288.96C501.273 290.988 501.273 290.988 501.273 290.988L501.272 290.989L501.206 291.012C501.163 291.027 501.1 291.05 501.018 291.078C500.855 291.136 500.614 291.22 500.306 291.327C499.689 291.54 498.798 291.844 497.695 292.207C495.491 292.935 492.435 293.904 489.032 294.871C482.315 296.782 473.942 298.776 468.139 298.736L466.705 298.726L466.161 297.4C460.63 283.927 457.575 275.397 453.985 263.587C451.197 275.202 450.68 283.506 450.3 296.644L450.256 298.164L413.182 310.158L413.617 306.786C418.811 266.569 422.835 248.954 428.689 223.326C431.428 211.337 434.567 197.593 438.415 178.961L438.7 177.579L478.732 169.151ZM500.546 288.96L501.273 290.988L502.393 290.587L502.65 289.426L500.546 288.96ZM498.703 287.322C498.806 286.862 498.937 286.271 499.096 285.558C499.519 283.656 500.138 280.884 500.918 277.408C502.478 270.456 504.683 260.684 507.265 249.405C512.209 227.809 518.536 200.675 524.359 177.218L495.682 181.315C491.046 203.965 488.47 221.008 484.243 248.972C484.04 250.315 483.833 251.683 483.622 253.079L479.341 252.883L474.725 174.398L442.348 181.214C438.596 199.314 435.531 212.732 432.857 224.436C427.193 249.225 423.285 266.33 418.33 303.964L446.038 295C446.503 279.981 447.279 270.859 451.791 255.024L453.838 247.842L455.931 255.011C460.438 270.45 463.42 279.287 469.586 294.395C474.656 294.141 481.701 292.477 487.854 290.727C491.185 289.78 494.181 288.83 496.345 288.116C497.314 287.796 498.115 287.524 498.703 287.322Z" fill="white"/>
<path d="M500.546 288.96C502.65 289.426 502.65 289.425 502.65 289.425L502.65 289.423L502.817 288.673C502.927 288.178 503.089 287.445 503.301 286.494C503.724 284.594 504.342 281.825 505.122 278.351C506.681 271.404 508.885 261.639 511.465 250.366C516.627 227.818 523.292 199.252 529.313 175.155L530.089 172.047L492.074 177.478L491.768 178.961C487.899 197.702 485.455 212.481 482.438 232.157L478.732 169.151L438.7 177.579L438.415 178.961C434.567 197.593 431.428 211.337 428.689 223.326C422.835 248.954 418.811 266.569 413.617 306.786L413.182 310.158L450.256 298.164L450.3 296.644C450.68 283.506 451.197 275.202 453.985 263.587C457.575 275.397 460.63 283.927 466.161 297.4L466.705 298.726L468.139 298.736C473.942 298.776 482.315 296.782 489.032 294.871C492.435 293.904 495.491 292.935 497.695 292.207C498.798 291.844 499.689 291.54 500.306 291.327C500.614 291.22 500.855 291.136 501.018 291.078C501.1 291.05 501.163 291.027 501.206 291.012L501.272 290.989L501.273 290.988M500.546 288.96C501.273 290.988 501.273 290.988 501.273 290.988M500.546 288.96L501.273 290.988M500.546 288.96L502.65 289.426L502.393 290.587L501.273 290.988M499.096 285.558C498.937 286.271 498.806 286.862 498.703 287.322C498.115 287.524 497.314 287.796 496.345 288.116C494.181 288.83 491.185 289.78 487.854 290.727C481.701 292.477 474.656 294.141 469.586 294.395C463.42 279.287 460.438 270.45 455.931 255.011L453.838 247.842L451.791 255.024C447.279 270.859 446.503 279.981 446.038 295L418.33 303.964C423.285 266.33 427.193 249.225 432.857 224.436C435.531 212.732 438.596 199.314 442.348 181.214L474.725 174.398L479.341 252.883L483.622 253.079C483.833 251.683 484.04 250.315 484.243 248.972C488.47 221.008 491.046 203.965 495.682 181.315L524.359 177.218C518.536 200.675 512.209 227.809 507.265 249.405C504.683 260.684 502.478 270.456 500.918 277.408C500.138 280.884 499.519 283.656 499.096 285.558Z" stroke="white" stroke-width="30"/>
<path fill-rule="evenodd" clip-rule="evenodd" d="M148.037 202.262C136.663 256.259 130.888 286.102 125.172 343.266C124.342 343.319 123.544 343.367 122.772 343.414C114.448 343.917 109.18 344.235 100.401 348.03C98.1143 347.854 101.878 317.475 109.928 298.488L89.9208 308.968C79.9563 324.71 74.6608 336.202 69.9135 353.746C55.056 356.453 46.57 358.923 30.8516 367.084C48.2207 318.006 64.2333 285.174 84.8513 242.899C89.748 232.859 94.9046 222.286 100.401 210.837L148.037 202.262ZM91.8263 275.622L116.597 267.048C119.756 253.004 122.076 245.274 127.077 231.797C118.538 232.748 114.5 234.406 108.023 238.466C101.639 251.409 98.1069 259.713 91.8263 275.622Z" fill="white" stroke="white" stroke-width="30"/>
<path fill-rule="evenodd" clip-rule="evenodd" d="M150.805 199.575L150.145 202.706C138.779 256.666 133.021 286.425 127.316 343.48L127.134 345.3L125.309 345.416C124.481 345.468 123.685 345.516 122.919 345.563L122.903 345.564C114.633 346.064 109.677 346.367 101.256 350.007L100.767 350.218L100.236 350.177C98.7563 350.063 98.1846 348.802 98.0468 348.462C97.8406 347.954 97.741 347.38 97.6834 346.871C97.5635 345.813 97.5611 344.401 97.6416 342.778C97.8041 339.499 98.3246 335.004 99.1636 329.959C100.542 321.671 102.809 311.724 105.862 303.049L91.4333 310.607C81.7702 325.938 76.629 337.177 71.9932 354.308L71.6379 355.621L70.2999 355.865C55.6287 358.538 47.3508 360.945 31.8446 368.996L27 371.511L28.8212 366.365C46.2312 317.172 62.2889 284.247 82.9025 241.982L82.9155 241.955L82.9162 241.953C87.8131 231.913 92.9666 221.346 98.4591 209.904L98.9357 208.911L150.805 199.575ZM101.866 212.761C96.5452 223.837 91.5428 234.094 86.7881 243.843L86.7878 243.844C66.8919 284.638 51.3284 316.551 34.6938 362.73C47.2672 356.575 55.5114 354.235 68.1933 351.872C72.9144 334.827 78.2838 323.325 88.1009 307.815L88.4099 307.327L114.262 293.786L111.912 299.328C107.979 308.604 105.061 320.761 103.413 330.666C102.591 335.611 102.096 339.931 101.945 342.991C101.904 343.802 101.89 344.501 101.896 345.085C109.684 342.047 114.992 341.726 122.612 341.265L122.643 341.263C122.831 341.252 123.021 341.24 123.212 341.229C128.768 286.243 134.441 256.462 145.271 204.949L101.866 212.761ZM130.313 229.269L129.097 232.546C124.128 245.936 121.836 253.574 118.699 267.52L118.436 268.691L88.1017 279.191L89.823 274.831C96.1164 258.889 99.6721 250.527 106.091 237.513L106.361 236.965L106.879 236.64C110.173 234.576 112.951 233.055 116.047 231.939C119.146 230.821 122.47 230.142 126.839 229.656L130.313 229.269ZM109.684 239.969C104.105 251.308 100.713 259.123 95.5603 272.05L114.761 265.404C117.541 253.173 119.745 245.643 123.823 234.41C121.371 234.813 119.369 235.32 117.508 235.992C114.977 236.904 112.623 238.15 109.684 239.969Z" fill="white" stroke="white" stroke-width="30"/>
<path d="M126.125 344.223C129.461 294.181 134.811 264.188 148.038 203.219C160.57 199.811 167.17 198.967 178.525 198.456C171.774 224.16 169.846 238.69 168.045 265.147C184.979 238.401 194.658 223.366 216.634 195.598C229.113 193.161 235.472 192.679 246.169 192.739L205.202 257.525L234.736 328.027C223.306 330.118 216.88 330.792 205.202 330.885L183.289 278.485C176.968 285.899 173.076 289.945 165.187 296.587C159.629 312.281 158.317 321.296 157.565 337.554C145.619 341.729 138.728 343.126 126.125 344.223Z" fill="white" stroke="white" stroke-width="30"/>
<path fill-rule="evenodd" clip-rule="evenodd" d="M216.222 193.483C228.843 191.019 235.344 190.525 246.181 190.585L250.066 190.607L207.622 257.728L237.758 329.664L235.124 330.146C223.582 332.257 217.031 332.946 205.219 333.039L203.772 333.051L182.646 282.532C177.604 288.312 173.744 292.172 167.024 297.856C161.715 312.969 160.452 321.748 159.717 337.654L159.65 339.108L158.276 339.588C146.15 343.826 139.081 345.257 126.312 346.369L123.809 346.588L123.976 344.08C127.322 293.887 132.696 263.778 145.933 202.763L146.21 201.484L147.473 201.141C160.172 197.687 166.931 196.822 178.428 196.304L181.352 196.172L180.609 199.003C174.66 221.651 172.484 235.531 170.816 256.755C185.106 234.28 194.967 219.505 214.945 194.261L215.44 193.636L216.222 193.483ZM217.829 197.56C196.269 224.844 186.654 239.782 169.865 266.299L165.896 265.001C167.637 239.43 169.504 224.882 175.703 200.754C166.564 201.261 160.342 202.166 149.865 204.958C137.073 263.995 131.76 293.801 128.445 341.847C138.868 340.837 145.339 339.469 155.483 335.995C156.257 320.475 157.683 311.326 163.156 295.868L163.352 295.316L163.8 294.939C171.584 288.386 175.393 284.427 181.65 277.088L183.924 274.42L206.63 328.716C216.38 328.592 222.434 328.002 231.711 326.38L202.781 257.322L242.254 194.9C234.094 194.986 228.088 195.585 217.829 197.56Z" fill="white" stroke="white" stroke-width="30"/>
<path d="M139.734 91.2431L147.274 132.172L171.329 149.764L202.923 140.789M139.734 91.2431L154.813 59.6489L171.329 50.3143L177.791 40.6206L232.363 11.8986L269.701 7.59033M139.734 91.2431L167.02 98.0646M269.701 7.59033H273.292M269.701 7.59033L253.545 19.7972L239.902 40.6206L257.495 45.647M372.023 161.253L384.23 151.918V131.813H403.618L411.516 98.0646L395.841 68.9836M372.023 161.253L349.405 177.768L321.76 182.435L273.292 157.663L246.365 161.766M372.023 161.253L326.068 129.659H300.218L298.423 109.553L265.034 122.478M202.923 140.789L235.594 163.407L246.365 161.766M202.923 140.789L209.744 100.219L217.284 92.3202L214.412 76.5231L230.568 56.7767L209.744 40.6206M242.774 79.7543L273.292 76.5231L266.829 59.6489L285.498 33.4401L273.292 7.59033M273.292 7.59033H300.218L304.168 9.46371M177.791 132.172V118.17L167.02 98.0646M167.02 98.0646L196.819 68.9836M221.592 111.348L235.594 127.989M246.365 140.789L235.594 127.989M249.237 96.2695V105.245L235.594 127.989M321.76 161.253L279.395 135.044L246.365 161.766M365.202 131.813L370.228 98.0646L384.23 92.3202L395.841 68.9836M395.841 68.9836L384.23 47.4421L321.76 17.8087M271.855 96.9875L300.218 86.5758L323.914 100.219L328.222 111.348L360.535 98.0646L364.484 81.1904L358.021 68.9836M335.403 86.5758L332.531 74.728L335.403 59.6489L328.222 37.6278M321.76 17.8087L328.222 37.6278M321.76 17.8087L304.168 9.46371M354.79 51.0323L342.583 38.1074L328.222 37.6278M298.423 66.8294L310.63 43.8518L302.014 25.5416L310.63 19.7972L304.168 9.46371" stroke="#B0ABAB" stroke-width="11"/>
<path d="M136.145 89.8068L143.684 130.736L167.739 148.328L199.333 139.352L232.004 161.971L242.775 160.33L269.702 156.226L318.17 180.999L345.815 176.332L368.434 159.817L380.64 150.482V130.377H400.028L407.926 96.6283L392.251 67.5473L380.64 46.0058L318.17 16.3725L300.578 8.02743L296.629 6.15405H269.702H266.112L228.773 10.4624L174.201 39.1843L167.739 48.878L151.224 58.2126L136.145 89.8068Z" fill="#EFFFF0"/>
<path d="M131.836 87.6528L139.375 128.582L163.43 146.174L195.024 137.198M131.836 87.6528L146.915 56.0586L163.43 46.724L169.893 37.0303L224.464 8.3083L261.803 4M131.836 87.6528L159.122 94.4742M261.803 4H265.393M261.803 4L245.647 16.2068L232.004 37.0303L249.596 42.0566M364.125 157.663L376.332 148.328V128.223H395.719L403.618 94.4742L387.943 65.3932M364.125 157.663L341.506 174.178L313.862 178.845L265.393 154.072L238.466 158.175M364.125 157.663L318.17 126.068H292.32L290.525 105.963L257.136 118.888M195.024 137.198L227.696 159.817L238.466 158.175M195.024 137.198L201.846 96.6284L209.385 88.7299L206.513 72.9328L222.669 53.1864L201.846 37.0303M234.876 76.164L265.393 72.9328L258.931 56.0586L277.6 29.8498L265.393 4M265.393 4H292.32L296.269 5.87337M169.893 128.582V114.58L159.122 94.4742M159.122 94.4742L188.921 65.3932M213.694 107.758L227.696 124.398M238.466 137.198L227.696 124.398M241.338 92.6791V101.655L227.696 124.398M313.862 157.663L271.497 131.454L238.466 158.175M357.304 128.223L362.33 94.4742L376.332 88.7299L387.943 65.3932M387.943 65.3932L376.332 43.8518L313.862 14.2184M263.957 93.3972L292.32 82.9855L316.016 96.6284L320.324 107.758L352.636 94.4742L356.585 77.6001L350.123 65.3932M327.504 82.9855L324.632 71.1376L327.504 56.0586L320.324 34.0374M313.862 14.2184L320.324 34.0374M313.862 14.2184L296.269 5.87337M346.892 47.442L334.685 34.5171L320.324 34.0374M290.525 63.2391L302.732 40.2615L294.115 21.9512L302.732 16.2068L296.269 5.87337" stroke="#1D1D1D" stroke-width="7"/>
<circle cx="200.409" cy="34.5171" r="5.97562" fill="#FF7F7F" stroke="black" stroke-width="6"/>
<path d="M255.31 39.5435C255.31 42.7195 252.579 45.5191 248.927 45.5191C245.274 45.5191 242.543 42.7195 242.543 39.5435C242.543 36.3675 245.274 33.5679 248.927 33.5679C252.579 33.5679 255.31 36.3675 255.31 39.5435Z" fill="#FFE3A6" stroke="black" stroke-width="6"/>
<path d="M246.532 74.0098C246.532 77.4371 243.907 79.9854 240.947 79.9854C237.986 79.9854 235.361 77.4371 235.361 74.0098C235.361 70.5825 237.986 68.0342 240.947 68.0342C243.907 68.0342 246.532 70.5825 246.532 74.0098Z" fill="#050FFE" stroke="black" stroke-width="6"/>
<path d="M248.129 95.5513C248.129 98.7273 245.398 101.527 241.745 101.527C238.092 101.527 235.361 98.7273 235.361 95.5513C235.361 92.3753 238.092 89.5757 241.745 89.5757C245.398 89.5757 248.129 92.3753 248.129 95.5513Z" fill="white" stroke="black" stroke-width="6"/>
<circle cx="267.187" cy="91.243" r="5.97562" fill="#9BDBA1" stroke="black" stroke-width="6"/>
<circle cx="292.319" cy="60.367" r="5.97562" fill="#9BDBA1" stroke="black" stroke-width="6"/>
<circle cx="327.503" cy="81.9085" r="5.97562" fill="#FF80FF" stroke="black" stroke-width="6"/>
<path d="M361.038 69.7014C361.038 72.7507 358.242 75.6771 354.207 75.6771C350.172 75.6771 347.377 72.7507 347.377 69.7014C347.377 66.6522 350.172 63.7258 354.207 63.7258C358.242 63.7258 361.038 66.6522 361.038 69.7014Z" fill="#FBC98F" stroke="black" stroke-width="6"/>
<path d="M353.722 48.1599C353.722 51.3302 350.988 54.1356 347.319 54.1356C343.65 54.1356 340.916 51.3302 340.916 48.1599C340.916 44.9897 343.65 42.1843 347.319 42.1843C350.988 42.1843 353.722 44.9897 353.722 48.1599Z" fill="#65209F" stroke="black" stroke-width="6"/>
<circle cx="261.442" cy="117.811" r="5.97562" fill="#FF7F7F" stroke="black" stroke-width="6"/>
<path d="M319.02 157.304C319.02 160.737 316.397 163.279 313.452 163.279C310.507 163.279 307.885 160.737 307.885 157.304C307.885 153.87 310.507 151.328 313.452 151.328C316.397 151.328 319.02 153.87 319.02 157.304Z" fill="#C4B0D5" stroke="black" stroke-width="6"/>
<circle cx="359.815" cy="124.991" r="5.97562" fill="#FFE3A6" stroke="black" stroke-width="6"/>
<circle cx="236.312" cy="137.198" r="5.97562" fill="#2CBC39" stroke="black" stroke-width="6"/>
<circle cx="211.179" cy="104.168" r="5.97562" fill="#D92020" stroke="black" stroke-width="6"/>
<path d="M173.292 126.428C173.292 129.855 170.667 132.403 167.706 132.403C164.746 132.403 162.121 129.855 162.121 126.428C162.121 123 164.746 120.452 167.706 120.452C170.667 120.452 173.292 123 173.292 126.428Z" fill="white" stroke="black" stroke-width="6"/>
<path d="M193.014 66.8294C193.014 69.8786 190.219 72.805 186.184 72.805C182.149 72.805 179.354 69.8786 179.354 66.8294C179.354 63.7802 182.149 60.8538 186.184 60.8538C190.219 60.8538 193.014 63.7802 193.014 66.8294Z" fill="#E4DC13" stroke="black" stroke-width="6"/>
<path d="M265.223 197.498C303.969 193.314 325.4 188.963 363.354 179.396L352.874 211.789C341.367 214.216 334.78 216.438 322.386 220.364C323.311 216.018 324.193 213.656 325.244 209.399C309.913 214.249 301.525 216.08 287.135 219.411C283.518 228.267 282.209 233.466 281.419 243.229C307.359 238.491 322.293 235.075 349.063 227.985C335.017 270.526 330.358 289.905 324.292 319.447L236.641 330.88L236.678 330.406C238.022 313.371 238.787 303.671 244.262 287.055L277.608 278.48C274.419 287.039 273.105 291.986 271.892 301.259C283.43 301.159 289.913 300.255 301.426 296.582C303.825 280.812 306.717 272.103 311.906 256.567C288.505 264.032 275.14 266.703 250.932 269.906L265.223 197.498Z" fill="#FF80FF" stroke="black" stroke-width="6"/>
<path fill-rule="evenodd" clip-rule="evenodd" d="M366.602 176.356L354.54 213.639L353.319 213.897C343.004 216.073 336.713 218.072 326.384 221.355C325.315 221.695 324.202 222.048 323.038 222.417L319.51 223.535L320.28 219.915C320.756 217.678 321.222 215.951 321.695 214.266C321.777 213.975 321.858 213.686 321.94 213.396C322.013 213.138 322.086 212.879 322.16 212.617C310.086 216.323 302.175 218.149 290.754 220.786C290.086 220.94 289.406 221.097 288.713 221.257C285.837 228.435 284.585 233.157 283.822 240.598C308.013 236.13 322.764 232.722 348.512 225.903L352.356 224.885L351.109 228.661C337.091 271.119 332.453 290.417 326.403 319.881L326.094 321.385L234.285 333.36L234.535 330.196C235.879 313.158 236.661 303.243 242.218 286.381L242.586 285.262L281.068 275.367L279.628 279.232C276.787 286.857 275.476 291.504 274.37 299.068C283.785 298.868 289.822 297.941 299.503 294.93C301.674 281.178 304.284 272.664 308.529 259.889C287.402 266.447 274.103 269.013 251.215 272.041L248.238 272.435L263.417 195.527L264.992 195.356C303.617 191.185 324.947 186.856 362.828 177.308L366.602 176.356ZM267.03 199.469L253.629 267.371C275.885 264.35 288.969 261.623 311.253 254.515L315.295 253.226L313.95 257.25C308.767 272.769 305.926 281.33 303.557 296.906L303.356 298.228L302.082 298.634C290.349 302.378 283.65 303.312 271.911 303.413L269.435 303.434L269.757 300.979C270.8 293.011 271.928 288.132 274.2 281.581L245.945 288.847C241.11 303.828 240.212 313.108 238.998 328.4L322.492 317.51C328.246 289.601 332.894 270.406 345.778 231.08C321.312 237.507 306.543 240.83 281.807 245.348L279.046 245.852L279.273 243.055C280.082 233.063 281.445 227.649 285.142 218.596L285.564 217.564L286.65 217.312C287.724 217.064 288.763 216.824 289.774 216.59C302.323 213.693 310.492 211.807 324.596 207.345L328.258 206.187L327.337 209.916C326.892 211.717 326.475 213.194 326.081 214.585C326.001 214.869 325.921 215.151 325.843 215.43C325.683 216.001 325.525 216.57 325.37 217.157C335.128 214.055 341.473 212.047 351.208 209.942L360.108 182.432C324.893 191.238 303.624 195.464 267.03 199.469Z" fill="white"/>
<path fill-rule="evenodd" clip-rule="evenodd" d="M366.602 176.356L354.54 213.639L353.319 213.897C343.004 216.073 336.713 218.072 326.384 221.355C325.315 221.695 324.202 222.048 323.038 222.417L319.51 223.535L320.28 219.915C320.756 217.678 321.222 215.951 321.695 214.266C321.777 213.975 321.858 213.686 321.94 213.396C322.013 213.138 322.086 212.879 322.16 212.617C310.086 216.323 302.175 218.149 290.754 220.786C290.086 220.94 289.406 221.097 288.713 221.257C285.837 228.435 284.585 233.157 283.822 240.598C308.013 236.13 322.764 232.722 348.512 225.903L352.356 224.885L351.109 228.661C337.091 271.119 332.453 290.417 326.403 319.881L326.094 321.385L234.285 333.36L234.535 330.196C235.879 313.158 236.661 303.243 242.218 286.381L242.586 285.262L281.068 275.367L279.628 279.232C276.787 286.857 275.476 291.504 274.37 299.068C283.785 298.868 289.822 297.941 299.503 294.93C301.674 281.178 304.284 272.664 308.529 259.889C287.402 266.447 274.103 269.013 251.215 272.041L248.238 272.435L263.417 195.527L264.992 195.356C303.617 191.185 324.947 186.856 362.828 177.308L366.602 176.356ZM267.03 199.469L253.629 267.371C275.885 264.35 288.969 261.623 311.253 254.515L315.295 253.226L313.95 257.25C308.767 272.769 305.926 281.33 303.557 296.906L303.356 298.228L302.082 298.634C290.349 302.378 283.65 303.312 271.911 303.413L269.435 303.434L269.757 300.979C270.8 293.011 271.928 288.132 274.2 281.581L245.945 288.847C241.11 303.828 240.212 313.108 238.998 328.4L322.492 317.51C328.246 289.601 332.894 270.406 345.778 231.08C321.312 237.507 306.543 240.83 281.807 245.348L279.046 245.852L279.273 243.055C280.082 233.063 281.445 227.649 285.142 218.596L285.564 217.564L286.65 217.312C287.724 217.064 288.763 216.824 289.774 216.59C302.323 213.693 310.492 211.807 324.596 207.345L328.258 206.187L327.337 209.916C326.892 211.717 326.475 213.194 326.081 214.585C326.001 214.869 325.921 215.151 325.843 215.43C325.683 216.001 325.525 216.57 325.37 217.157C335.128 214.055 341.473 212.047 351.208 209.942L360.108 182.432C324.893 191.238 303.624 195.464 267.03 199.469Z" fill="#1D1D1D"/>
<path fill-rule="evenodd" clip-rule="evenodd" d="M366.602 176.356L354.54 213.639L353.319 213.897C343.004 216.073 336.713 218.072 326.384 221.355C325.315 221.695 324.202 222.048 323.038 222.417L319.51 223.535L320.28 219.915C320.756 217.678 321.222 215.951 321.695 214.266C321.777 213.975 321.858 213.686 321.94 213.396C322.013 213.138 322.086 212.879 322.16 212.617C310.086 216.323 302.175 218.149 290.754 220.786C290.086 220.94 289.406 221.097 288.713 221.257C285.837 228.435 284.585 233.157 283.822 240.598C308.013 236.13 322.764 232.722 348.512 225.903L352.356 224.885L351.109 228.661C337.091 271.119 332.453 290.417 326.403 319.881L326.094 321.385L234.285 333.36L234.535 330.196C235.879 313.158 236.661 303.243 242.218 286.381L242.586 285.262L281.068 275.367L279.628 279.232C276.787 286.857 275.476 291.504 274.37 299.068C283.785 298.868 289.822 297.941 299.503 294.93C301.674 281.178 304.284 272.664 308.529 259.889C287.402 266.447 274.103 269.013 251.215 272.041L248.238 272.435L263.417 195.527L264.992 195.356C303.617 191.185 324.947 186.856 362.828 177.308L366.602 176.356ZM267.03 199.469L253.629 267.371C275.885 264.35 288.969 261.623 311.253 254.515L315.295 253.226L313.95 257.25C308.767 272.769 305.926 281.33 303.557 296.906L303.356 298.228L302.082 298.634C290.349 302.378 283.65 303.312 271.911 303.413L269.435 303.434L269.757 300.979C270.8 293.011 271.928 288.132 274.2 281.581L245.945 288.847C241.11 303.828 240.212 313.108 238.998 328.4L322.492 317.51C328.246 289.601 332.894 270.406 345.778 231.08C321.312 237.507 306.543 240.83 281.807 245.348L279.046 245.852L279.273 243.055C280.082 233.063 281.445 227.649 285.142 218.596L285.564 217.564L286.65 217.312C287.724 217.064 288.763 216.824 289.774 216.59C302.323 213.693 310.492 211.807 324.596 207.345L328.258 206.187L327.337 209.916C326.892 211.717 326.475 213.194 326.081 214.585C326.001 214.869 325.921 215.151 325.843 215.43C325.683 216.001 325.525 216.57 325.37 217.157C335.128 214.055 341.473 212.047 351.208 209.942L360.108 182.432C324.893 191.238 303.624 195.464 267.03 199.469Z" stroke="black" stroke-width="6"/>
<path fill-rule="evenodd" clip-rule="evenodd" d="M358.002 198.938C347.517 241.532 340.926 268.305 333.82 317.542L415.755 307.062C421.922 263.495 428.468 223.074 439.573 180.349L358.591 196.546C358.394 197.349 358.197 198.146 358.002 198.938ZM377.996 230.751C374.22 246.029 372.547 255.35 370.024 272.764L397.924 269.125C400.074 253.998 402.356 239.962 406.228 225.127L377.996 230.751Z" fill="#FF7F7F" stroke="black" stroke-width="6"/>
<path fill-rule="evenodd" clip-rule="evenodd" d="M442.523 177.562L441.658 180.891C430.584 223.495 424.051 263.82 417.887 307.364L417.657 308.99L331.283 320.038L331.688 317.234C338.809 267.892 345.42 241.037 355.908 198.432L356.826 194.702L442.523 177.562ZM360.355 198.389L360.094 199.453C349.813 241.215 343.296 267.69 336.36 315.046L413.852 305.134C419.795 263.29 426.147 224.224 436.631 183.134L360.355 198.389ZM409.18 222.343L408.312 225.671C404.472 240.385 402.203 254.323 400.056 269.428L399.826 271.049L367.484 275.267L367.892 272.455C370.422 254.993 372.107 245.599 375.904 230.234L376.232 228.906L409.18 222.343ZM379.76 232.596C376.435 246.188 374.791 255.15 372.566 270.26L396.023 267.2C397.949 253.782 400.03 241.116 403.298 227.907L379.76 232.596Z" fill="white"/>
<path fill-rule="evenodd" clip-rule="evenodd" d="M442.523 177.562L441.658 180.891C430.584 223.495 424.051 263.82 417.887 307.364L417.657 308.99L331.283 320.038L331.688 317.234C338.809 267.892 345.42 241.037 355.908 198.432L356.826 194.702L442.523 177.562ZM360.355 198.389L360.094 199.453C349.813 241.215 343.296 267.69 336.36 315.046L413.852 305.134C419.795 263.29 426.147 224.224 436.631 183.134L360.355 198.389ZM409.18 222.343L408.312 225.671C404.472 240.385 402.203 254.323 400.056 269.428L399.826 271.049L367.484 275.267L367.892 272.455C370.422 254.993 372.107 245.599 375.904 230.234L376.232 228.906L409.18 222.343ZM379.76 232.596C376.435 246.188 374.791 255.15 372.566 270.26L396.023 267.2C397.949 253.782 400.03 241.116 403.298 227.907L379.76 232.596Z" fill="#1D1D1D"/>
<path fill-rule="evenodd" clip-rule="evenodd" d="M442.523 177.562L441.658 180.891C430.584 223.495 424.051 263.82 417.887 307.364L417.657 308.99L331.283 320.038L331.688 317.234C338.809 267.892 345.42 241.037 355.908 198.432L356.826 194.702L442.523 177.562ZM360.355 198.389L360.094 199.453C349.813 241.215 343.296 267.69 336.36 315.046L413.852 305.134C419.795 263.29 426.147 224.224 436.631 183.134L360.355 198.389ZM409.18 222.343L408.312 225.671C404.472 240.385 402.203 254.323 400.056 269.428L399.826 271.049L367.484 275.267L367.892 272.455C370.422 254.993 372.107 245.599 375.904 230.234L376.232 228.906L409.18 222.343ZM379.76 232.596C376.435 246.188 374.791 255.15 372.566 270.26L396.023 267.2C397.949 253.782 400.03 241.116 403.298 227.907L379.76 232.596Z" stroke="black" stroke-width="6"/>
<path d="M415.754 307.062C423.364 248.134 428.42 238.018 440.525 179.396L476.729 171.775L481.492 252.757C486.191 221.69 488.807 203.961 493.878 179.396L527.223 174.633C515.171 222.87 500.547 288.96 500.547 288.96C500.547 288.96 479.069 296.658 468.154 296.582C461.573 280.55 458.524 271.58 453.863 255.615C449.268 271.74 448.606 280.737 448.147 296.582L415.754 307.062Z" fill="#9BDBA1" stroke="black" stroke-width="6"/>
<path fill-rule="evenodd" clip-rule="evenodd" d="M478.732 169.151L482.438 232.157C485.455 212.481 487.899 197.702 491.768 178.961L492.074 177.478L530.089 172.047L529.313 175.155C523.292 199.252 516.627 227.818 511.465 250.366C508.885 261.639 506.681 271.404 505.122 278.351C504.342 281.825 503.724 284.594 503.301 286.494C503.089 287.445 502.927 288.178 502.817 288.673L502.65 289.423L502.65 289.425C502.65 289.425 502.65 289.426 500.546 288.96C501.273 290.988 501.273 290.988 501.273 290.988L501.272 290.989L501.206 291.012C501.163 291.027 501.1 291.05 501.018 291.078C500.855 291.136 500.614 291.22 500.306 291.327C499.689 291.54 498.798 291.844 497.695 292.207C495.491 292.935 492.435 293.904 489.032 294.871C482.315 296.782 473.942 298.776 468.139 298.736L466.705 298.726L466.161 297.4C460.63 283.927 457.575 275.397 453.985 263.587C451.197 275.202 450.68 283.506 450.3 296.644L450.256 298.164L413.182 310.158L413.617 306.786C418.811 266.569 422.835 248.954 428.689 223.326C431.428 211.337 434.567 197.593 438.415 178.961L438.7 177.579L478.732 169.151ZM500.546 288.96L501.273 290.988L502.393 290.587L502.65 289.426L500.546 288.96ZM498.703 287.322C498.806 286.862 498.937 286.271 499.096 285.558C499.519 283.656 500.138 280.884 500.918 277.408C502.478 270.456 504.683 260.684 507.265 249.405C512.209 227.809 518.536 200.675 524.359 177.218L495.682 181.315C491.046 203.965 488.47 221.008 484.243 248.972C484.04 250.315 483.833 251.683 483.622 253.079L479.341 252.883L474.725 174.398L442.348 181.214C438.596 199.314 435.531 212.732 432.857 224.436C427.193 249.225 423.285 266.33 418.33 303.964L446.038 295C446.503 279.981 447.279 270.859 451.791 255.024L453.838 247.842L455.931 255.011C460.438 270.45 463.42 279.287 469.586 294.395C474.656 294.141 481.701 292.477 487.854 290.727C491.185 289.78 494.181 288.83 496.345 288.116C497.314 287.796 498.115 287.524 498.703 287.322Z" fill="white"/>
<path fill-rule="evenodd" clip-rule="evenodd" d="M478.732 169.151L482.438 232.157C485.455 212.481 487.899 197.702 491.768 178.961L492.074 177.478L530.089 172.047L529.313 175.155C523.292 199.252 516.627 227.818 511.465 250.366C508.885 261.639 506.681 271.404 505.122 278.351C504.342 281.825 503.724 284.594 503.301 286.494C503.089 287.445 502.927 288.178 502.817 288.673L502.65 289.423L502.65 289.425C502.65 289.425 502.65 289.426 500.546 288.96C501.273 290.988 501.273 290.988 501.273 290.988L501.272 290.989L501.206 291.012C501.163 291.027 501.1 291.05 501.018 291.078C500.855 291.136 500.614 291.22 500.306 291.327C499.689 291.54 498.798 291.844 497.695 292.207C495.491 292.935 492.435 293.904 489.032 294.871C482.315 296.782 473.942 298.776 468.139 298.736L466.705 298.726L466.161 297.4C460.63 283.927 457.575 275.397 453.985 263.587C451.197 275.202 450.68 283.506 450.3 296.644L450.256 298.164L413.182 310.158L413.617 306.786C418.811 266.569 422.835 248.954 428.689 223.326C431.428 211.337 434.567 197.593 438.415 178.961L438.7 177.579L478.732 169.151ZM500.546 288.96L501.273 290.988L502.393 290.587L502.65 289.426L500.546 288.96ZM498.703 287.322C498.806 286.862 498.937 286.271 499.096 285.558C499.519 283.656 500.138 280.884 500.918 277.408C502.478 270.456 504.683 260.684 507.265 249.405C512.209 227.809 518.536 200.675 524.359 177.218L495.682 181.315C491.046 203.965 488.47 221.008 484.243 248.972C484.04 250.315 483.833 251.683 483.622 253.079L479.341 252.883L474.725 174.398L442.348 181.214C438.596 199.314 435.531 212.732 432.857 224.436C427.193 249.225 423.285 266.33 418.33 303.964L446.038 295C446.503 279.981 447.279 270.859 451.791 255.024L453.838 247.842L455.931 255.011C460.438 270.45 463.42 279.287 469.586 294.395C474.656 294.141 481.701 292.477 487.854 290.727C491.185 289.78 494.181 288.83 496.345 288.116C497.314 287.796 498.115 287.524 498.703 287.322Z" fill="#1D1D1D"/>
<path d="M500.546 288.96C502.65 289.426 502.65 289.425 502.65 289.425L502.65 289.423L502.817 288.673C502.927 288.178 503.089 287.445 503.301 286.494C503.724 284.594 504.342 281.825 505.122 278.351C506.681 271.404 508.885 261.639 511.465 250.366C516.627 227.818 523.292 199.252 529.313 175.155L530.089 172.047L492.074 177.478L491.768 178.961C487.899 197.702 485.455 212.481 482.438 232.157L478.732 169.151L438.7 177.579L438.415 178.961C434.567 197.593 431.428 211.337 428.689 223.326C422.835 248.954 418.811 266.569 413.617 306.786L413.182 310.158L450.256 298.164L450.3 296.644C450.68 283.506 451.197 275.202 453.985 263.587C457.575 275.397 460.63 283.927 466.161 297.4L466.705 298.726L468.139 298.736C473.942 298.776 482.315 296.782 489.032 294.871C492.435 293.904 495.491 292.935 497.695 292.207C498.798 291.844 499.689 291.54 500.306 291.327C500.614 291.22 500.855 291.136 501.018 291.078C501.1 291.05 501.163 291.027 501.206 291.012L501.272 290.989L501.273 290.988M500.546 288.96C501.273 290.988 501.273 290.988 501.273 290.988M500.546 288.96L501.273 290.988M500.546 288.96L502.65 289.426L502.393 290.587L501.273 290.988M499.096 285.558C498.937 286.271 498.806 286.862 498.703 287.322C498.115 287.524 497.314 287.796 496.345 288.116C494.181 288.83 491.185 289.78 487.854 290.727C481.701 292.477 474.656 294.141 469.586 294.395C463.42 279.287 460.438 270.45 455.931 255.011L453.838 247.842L451.791 255.024C447.279 270.859 446.503 279.981 446.038 295L418.33 303.964C423.285 266.33 427.193 249.225 432.857 224.436C435.531 212.732 438.596 199.314 442.348 181.214L474.725 174.398L479.341 252.883L483.622 253.079C483.833 251.683 484.04 250.315 484.243 248.972C488.47 221.008 491.046 203.965 495.682 181.315L524.359 177.218C518.536 200.675 512.209 227.809 507.265 249.405C504.683 260.684 502.478 270.456 500.918 277.408C500.138 280.884 499.519 283.656 499.096 285.558Z" stroke="black" stroke-width="6"/>
<path fill-rule="evenodd" clip-rule="evenodd" d="M148.037 202.262C136.663 256.259 130.888 286.102 125.172 343.266C124.342 343.319 123.544 343.367 122.772 343.414C114.448 343.917 109.18 344.235 100.401 348.03C98.1143 347.854 101.878 317.475 109.928 298.488L89.9208 308.968C79.9563 324.71 74.6608 336.202 69.9135 353.746C55.056 356.453 46.57 358.923 30.8516 367.084C48.2207 318.006 64.2333 285.174 84.8513 242.899C89.748 232.859 94.9046 222.286 100.401 210.837L148.037 202.262ZM91.8263 275.622L116.597 267.048C119.756 253.004 122.076 245.274 127.077 231.797C118.538 232.748 114.5 234.406 108.023 238.466C101.639 251.409 98.1069 259.713 91.8263 275.622Z" fill="#C4B0D5" stroke="black" stroke-width="6"/>
<path fill-rule="evenodd" clip-rule="evenodd" d="M150.805 199.575L150.145 202.706C138.779 256.666 133.021 286.425 127.316 343.48L127.134 345.3L125.309 345.416C124.481 345.468 123.685 345.516 122.919 345.563L122.903 345.564C114.633 346.064 109.677 346.367 101.256 350.007L100.767 350.218L100.236 350.177C98.7563 350.063 98.1846 348.802 98.0468 348.462C97.8406 347.954 97.741 347.38 97.6834 346.871C97.5635 345.813 97.5611 344.401 97.6416 342.778C97.8041 339.499 98.3246 335.004 99.1636 329.959C100.542 321.671 102.809 311.724 105.862 303.049L91.4333 310.607C81.7702 325.938 76.629 337.177 71.9932 354.308L71.6379 355.621L70.2999 355.865C55.6287 358.538 47.3508 360.945 31.8446 368.996L27 371.511L28.8212 366.365C46.2312 317.172 62.2889 284.247 82.9025 241.982L82.9155 241.955L82.9162 241.953C87.8131 231.913 92.9666 221.346 98.4591 209.904L98.9357 208.911L150.805 199.575ZM101.866 212.761C96.5452 223.837 91.5428 234.094 86.7881 243.843L86.7878 243.844C66.8919 284.638 51.3284 316.551 34.6938 362.73C47.2672 356.575 55.5114 354.235 68.1933 351.872C72.9144 334.827 78.2838 323.325 88.1009 307.815L88.4099 307.327L114.262 293.786L111.912 299.328C107.979 308.604 105.061 320.761 103.413 330.666C102.591 335.611 102.096 339.931 101.945 342.991C101.904 343.802 101.89 344.501 101.896 345.085C109.684 342.047 114.992 341.726 122.612 341.265L122.643 341.263C122.831 341.252 123.021 341.24 123.212 341.229C128.768 286.243 134.441 256.462 145.271 204.949L101.866 212.761ZM130.313 229.269L129.097 232.546C124.128 245.936 121.836 253.574 118.699 267.52L118.436 268.691L88.1017 279.191L89.823 274.831C96.1164 258.889 99.6721 250.527 106.091 237.513L106.361 236.965L106.879 236.64C110.173 234.576 112.951 233.055 116.047 231.939C119.146 230.821 122.47 230.142 126.839 229.656L130.313 229.269ZM109.684 239.969C104.105 251.308 100.713 259.123 95.5603 272.05L114.761 265.404C117.541 253.173 119.745 245.643 123.823 234.41C121.371 234.813 119.369 235.32 117.508 235.992C114.977 236.904 112.623 238.15 109.684 239.969Z" fill="white"/>
<path fill-rule="evenodd" clip-rule="evenodd" d="M150.805 199.575L150.145 202.706C138.779 256.666 133.021 286.425 127.316 343.48L127.134 345.3L125.309 345.416C124.481 345.468 123.685 345.516 122.919 345.563L122.903 345.564C114.633 346.064 109.677 346.367 101.256 350.007L100.767 350.218L100.236 350.177C98.7563 350.063 98.1846 348.802 98.0468 348.462C97.8406 347.954 97.741 347.38 97.6834 346.871C97.5635 345.813 97.5611 344.401 97.6416 342.778C97.8041 339.499 98.3246 335.004 99.1636 329.959C100.542 321.671 102.809 311.724 105.862 303.049L91.4333 310.607C81.7702 325.938 76.629 337.177 71.9932 354.308L71.6379 355.621L70.2999 355.865C55.6287 358.538 47.3508 360.945 31.8446 368.996L27 371.511L28.8212 366.365C46.2312 317.172 62.2889 284.247 82.9025 241.982L82.9155 241.955L82.9162 241.953C87.8131 231.913 92.9666 221.346 98.4591 209.904L98.9357 208.911L150.805 199.575ZM101.866 212.761C96.5452 223.837 91.5428 234.094 86.7881 243.843L86.7878 243.844C66.8919 284.638 51.3284 316.551 34.6938 362.73C47.2672 356.575 55.5114 354.235 68.1933 351.872C72.9144 334.827 78.2838 323.325 88.1009 307.815L88.4099 307.327L114.262 293.786L111.912 299.328C107.979 308.604 105.061 320.761 103.413 330.666C102.591 335.611 102.096 339.931 101.945 342.991C101.904 343.802 101.89 344.501 101.896 345.085C109.684 342.047 114.992 341.726 122.612 341.265L122.643 341.263C122.831 341.252 123.021 341.24 123.212 341.229C128.768 286.243 134.441 256.462 145.271 204.949L101.866 212.761ZM130.313 229.269L129.097 232.546C124.128 245.936 121.836 253.574 118.699 267.52L118.436 268.691L88.1017 279.191L89.823 274.831C96.1164 258.889 99.6721 250.527 106.091 237.513L106.361 236.965L106.879 236.64C110.173 234.576 112.951 233.055 116.047 231.939C119.146 230.821 122.47 230.142 126.839 229.656L130.313 229.269ZM109.684 239.969C104.105 251.308 100.713 259.123 95.5603 272.05L114.761 265.404C117.541 253.173 119.745 245.643 123.823 234.41C121.371 234.813 119.369 235.32 117.508 235.992C114.977 236.904 112.623 238.15 109.684 239.969Z" fill="#C4B0D5"/>
<path fill-rule="evenodd" clip-rule="evenodd" d="M150.805 199.575L150.145 202.706C138.779 256.666 133.021 286.425 127.316 343.48L127.134 345.3L125.309 345.416C124.481 345.468 123.685 345.516 122.919 345.563L122.903 345.564C114.633 346.064 109.677 346.367 101.256 350.007L100.767 350.218L100.236 350.177C98.7563 350.063 98.1846 348.802 98.0468 348.462C97.8406 347.954 97.741 347.38 97.6834 346.871C97.5635 345.813 97.5611 344.401 97.6416 342.778C97.8041 339.499 98.3246 335.004 99.1636 329.959C100.542 321.671 102.809 311.724 105.862 303.049L91.4333 310.607C81.7702 325.938 76.629 337.177 71.9932 354.308L71.6379 355.621L70.2999 355.865C55.6287 358.538 47.3508 360.945 31.8446 368.996L27 371.511L28.8212 366.365C46.2312 317.172 62.2889 284.247 82.9025 241.982L82.9155 241.955L82.9162 241.953C87.8131 231.913 92.9666 221.346 98.4591 209.904L98.9357 208.911L150.805 199.575ZM101.866 212.761C96.5452 223.837 91.5428 234.094 86.7881 243.843L86.7878 243.844C66.8919 284.638 51.3284 316.551 34.6938 362.73C47.2672 356.575 55.5114 354.235 68.1933 351.872C72.9144 334.827 78.2838 323.325 88.1009 307.815L88.4099 307.327L114.262 293.786L111.912 299.328C107.979 308.604 105.061 320.761 103.413 330.666C102.591 335.611 102.096 339.931 101.945 342.991C101.904 343.802 101.89 344.501 101.896 345.085C109.684 342.047 114.992 341.726 122.612 341.265L122.643 341.263C122.831 341.252 123.021 341.24 123.212 341.229C128.768 286.243 134.441 256.462 145.271 204.949L101.866 212.761ZM130.313 229.269L129.097 232.546C124.128 245.936 121.836 253.574 118.699 267.52L118.436 268.691L88.1017 279.191L89.823 274.831C96.1164 258.889 99.6721 250.527 106.091 237.513L106.361 236.965L106.879 236.64C110.173 234.576 112.951 233.055 116.047 231.939C119.146 230.821 122.47 230.142 126.839 229.656L130.313 229.269ZM109.684 239.969C104.105 251.308 100.713 259.123 95.5603 272.05L114.761 265.404C117.541 253.173 119.745 245.643 123.823 234.41C121.371 234.813 119.369 235.32 117.508 235.992C114.977 236.904 112.623 238.15 109.684 239.969Z" stroke="black" stroke-width="6"/>
<path d="M126.125 344.223C129.461 294.181 134.811 264.188 148.038 203.219C160.57 199.811 167.17 198.967 178.525 198.456C171.774 224.16 169.846 238.69 168.045 265.147C184.979 238.401 194.658 223.366 216.634 195.598C229.113 193.161 235.472 192.679 246.169 192.739L205.202 257.525L234.736 328.027C223.306 330.118 216.88 330.792 205.202 330.885L183.289 278.485C176.968 285.899 173.076 289.945 165.187 296.587C159.629 312.281 158.317 321.296 157.565 337.554C145.619 341.729 138.728 343.126 126.125 344.223Z" fill="#FBC98F" stroke="black" stroke-width="6"/>
<path fill-rule="evenodd" clip-rule="evenodd" d="M216.222 193.483C228.843 191.019 235.344 190.525 246.181 190.585L250.066 190.607L207.622 257.728L237.758 329.664L235.124 330.146C223.582 332.257 217.031 332.946 205.219 333.039L203.772 333.051L182.646 282.532C177.604 288.312 173.744 292.172 167.024 297.856C161.715 312.969 160.452 321.748 159.717 337.654L159.65 339.108L158.276 339.588C146.15 343.826 139.081 345.257 126.312 346.369L123.809 346.588L123.976 344.08C127.322 293.887 132.696 263.778 145.933 202.763L146.21 201.484L147.473 201.141C160.172 197.687 166.931 196.822 178.428 196.304L181.352 196.172L180.609 199.003C174.66 221.651 172.484 235.531 170.816 256.755C185.106 234.28 194.967 219.505 214.945 194.261L215.44 193.636L216.222 193.483ZM217.829 197.56C196.269 224.844 186.654 239.782 169.865 266.299L165.896 265.001C167.637 239.43 169.504 224.882 175.703 200.754C166.563 201.261 160.342 202.166 149.865 204.958C137.073 263.995 131.76 293.801 128.445 341.847C138.868 340.837 145.339 339.469 155.483 335.995C156.257 320.475 157.683 311.326 163.156 295.868L163.352 295.316L163.8 294.939C171.584 288.386 175.393 284.427 181.65 277.088L183.924 274.42L206.63 328.716C216.38 328.592 222.434 328.002 231.711 326.38L202.781 257.322L242.254 194.9C234.094 194.986 228.088 195.585 217.829 197.56Z" fill="white"/>
<path fill-rule="evenodd" clip-rule="evenodd" d="M216.222 193.483C228.843 191.019 235.344 190.525 246.181 190.585L250.066 190.607L207.622 257.728L237.758 329.664L235.124 330.146C223.582 332.257 217.031 332.946 205.219 333.039L203.772 333.051L182.646 282.532C177.604 288.312 173.744 292.172 167.024 297.856C161.715 312.969 160.452 321.748 159.717 337.654L159.65 339.108L158.276 339.588C146.15 343.826 139.081 345.257 126.312 346.369L123.809 346.588L123.976 344.08C127.322 293.887 132.696 263.778 145.933 202.763L146.21 201.484L147.473 201.141C160.172 197.687 166.931 196.822 178.428 196.304L181.352 196.172L180.609 199.003C174.66 221.651 172.484 235.531 170.816 256.755C185.106 234.28 194.967 219.505 214.945 194.261L215.44 193.636L216.222 193.483ZM217.829 197.56C196.269 224.844 186.654 239.782 169.865 266.299L165.896 265.001C167.637 239.43 169.504 224.882 175.703 200.754C166.563 201.261 160.342 202.166 149.865 204.958C137.073 263.995 131.76 293.801 128.445 341.847C138.868 340.837 145.339 339.469 155.483 335.995C156.257 320.475 157.683 311.326 163.156 295.868L163.352 295.316L163.8 294.939C171.584 288.386 175.393 284.427 181.65 277.088L183.924 274.42L206.63 328.716C216.38 328.592 222.434 328.002 231.711 326.38L202.781 257.322L242.254 194.9C234.094 194.986 228.088 195.585 217.829 197.56Z" fill="#F9C7AA"/>
<path fill-rule="evenodd" clip-rule="evenodd" d="M216.222 193.483C228.843 191.019 235.344 190.525 246.181 190.585L250.066 190.607L207.622 257.728L237.758 329.664L235.124 330.146C223.582 332.257 217.031 332.946 205.219 333.039L203.772 333.051L182.646 282.532C177.604 288.312 173.744 292.172 167.024 297.856C161.715 312.969 160.452 321.748 159.717 337.654L159.65 339.108L158.276 339.588C146.15 343.826 139.081 345.257 126.312 346.369L123.809 346.588L123.976 344.08C127.322 293.887 132.696 263.778 145.933 202.763L146.21 201.484L147.473 201.141C160.172 197.687 166.931 196.822 178.428 196.304L181.352 196.172L180.609 199.003C174.66 221.651 172.484 235.531 170.816 256.755C185.106 234.28 194.967 219.505 214.945 194.261L215.44 193.636L216.222 193.483ZM217.829 197.56C196.269 224.844 186.654 239.782 169.865 266.299L165.896 265.001C167.637 239.43 169.504 224.882 175.703 200.754C166.563 201.261 160.342 202.166 149.865 204.958C137.073 263.995 131.76 293.801 128.445 341.847C138.868 340.837 145.339 339.469 155.483 335.995C156.257 320.475 157.683 311.326 163.156 295.868L163.352 295.316L163.8 294.939C171.584 288.386 175.393 284.427 181.65 277.088L183.924 274.42L206.63 328.716C216.38 328.592 222.434 328.002 231.711 326.38L202.781 257.322L242.254 194.9C234.094 194.986 228.088 195.585 217.829 197.56Z" stroke="black" stroke-width="6"/>
</svg>
