<svg width="227" height="51" viewBox="0 0 227 51" fill="none" xmlns="http://www.w3.org/2000/svg">
<rect x="0.390625" y="0.1521" width="222.037" height="47.2557" rx="10" fill="#117226"/>
<rect x="4.92188" y="3.38892" width="222.037" height="47.2557" rx="10" fill="black" fill-opacity="0.15"/>
<path d="M93.2949 17.2146C93.3242 17.2087 93.3505 17.2058 93.374 17.2058C93.4033 17.2 93.4296 17.197 93.4531 17.197C93.5586 17.197 93.6435 17.2322 93.708 17.3025C93.7724 17.3669 93.8164 17.4841 93.8398 17.6541C93.8515 17.7595 93.8691 17.9089 93.8925 18.1023C93.9218 18.2898 93.9511 18.5007 93.9804 18.7351C94.0156 18.9636 94.0507 19.2009 94.0859 19.447C94.1269 19.6931 94.1621 19.9216 94.1914 20.1326C94.2207 20.3376 94.247 20.5164 94.2705 20.6687C94.2939 20.8152 94.3086 20.9089 94.3144 20.95C94.4433 21.9871 94.5576 22.8191 94.6572 23.446C94.7568 24.073 94.8271 24.5359 94.8681 24.8347L95.457 29.5896L95.3691 29.8621C95.3574 29.9031 95.2812 29.9529 95.1406 30.0115C95 30.0701 94.83 30.1316 94.6308 30.196C94.4316 30.2664 94.2148 30.3337 93.9804 30.3982C93.7461 30.4626 93.5293 30.5212 93.33 30.574C93.1308 30.6267 92.9609 30.6677 92.8203 30.697C92.6855 30.7322 92.6152 30.7498 92.6093 30.7498C92.4687 30.7498 92.3574 30.6472 92.2754 30.4421C92.1933 30.2371 92.1259 29.9763 92.0732 29.6599C92.0205 29.3435 91.9765 28.9978 91.9414 28.6228C91.9121 28.2478 91.8769 27.8875 91.8359 27.5417C91.8007 27.2546 91.7685 26.9646 91.7392 26.6716C91.7099 26.3787 91.6777 26.0798 91.6425 25.7751L91.2998 23.2087L88.039 29.1765C87.9394 29.3171 87.8398 29.4197 87.7402 29.4841C87.6406 29.5427 87.5468 29.572 87.4589 29.572C87.33 29.572 87.2275 29.5339 87.1513 29.4578C87.081 29.3816 87.0312 29.2878 87.0019 29.1765C86.8906 28.8074 86.7939 28.4968 86.7119 28.2449C86.6357 27.9871 86.5625 27.7527 86.4921 27.5417C86.4277 27.3308 86.3662 27.1257 86.3076 26.9265C86.249 26.7273 86.1816 26.4988 86.1054 26.241C86.0351 25.9773 85.9531 25.6697 85.8593 25.3181C85.7714 24.9607 85.663 24.5242 85.5341 24.0085L85.2617 25.2742L83.9961 30.6443C83.9785 30.7146 83.9052 30.7498 83.7763 30.7498C83.6533 30.7498 83.4834 30.7263 83.2666 30.6794C83.0556 30.6326 82.833 30.574 82.5986 30.5037C82.3701 30.4392 82.1445 30.3689 81.9218 30.2927C81.705 30.2224 81.5322 30.158 81.4033 30.0994C81.374 30.0876 81.3359 30.0613 81.289 30.0203C81.248 29.9734 81.2275 29.9031 81.2275 29.8093C81.2275 29.7859 81.2363 29.7361 81.2539 29.6599C81.2714 29.5837 81.292 29.4958 81.3154 29.3962C81.3447 29.2908 81.374 29.1853 81.4033 29.0798C81.4384 28.9744 81.4707 28.8806 81.5 28.7986C81.5761 28.5994 81.6435 28.365 81.7021 28.0955C81.7666 27.8259 81.8252 27.5535 81.8779 27.2781C81.9306 27.0027 81.9775 26.739 82.0185 26.4871C82.0654 26.2351 82.1093 26.0242 82.1504 25.8542L83.2314 20.8093L83.5566 19.3855C83.5976 19.2039 83.6357 19.0281 83.6709 18.8582C83.7119 18.6824 83.747 18.5242 83.7763 18.3835C83.8056 18.2429 83.8291 18.1287 83.8466 18.0408C83.8642 17.9529 83.873 17.9031 83.873 17.8914L86.0703 17.2146C86.1523 17.2146 86.2226 17.2234 86.2812 17.241C86.3457 17.2527 86.3867 17.2996 86.4043 17.3816L88.1533 23.0066L90.5527 17.9529L93.2949 17.2146ZM96.4589 29.5105C96.5351 29.3582 96.6142 29.1882 96.6963 29.0007C96.7783 28.8074 96.8545 28.5994 96.9248 28.3767L97.1621 27.7966C97.0566 27.6384 96.9482 27.4685 96.8369 27.2869C96.7314 27.0994 96.6347 26.9089 96.5468 26.7156C96.4589 26.5222 96.3857 26.3289 96.3271 26.1355C96.2744 25.9421 96.248 25.7546 96.248 25.573C96.248 25.5613 96.292 25.5525 96.3798 25.5466C96.4736 25.5349 96.5879 25.5261 96.7226 25.5203C96.8632 25.5144 97.0127 25.5115 97.1709 25.5115C97.3349 25.5056 97.4843 25.5027 97.6191 25.5027C97.7597 25.4968 97.874 25.4939 97.9619 25.4939C98.0556 25.488 98.1025 25.4851 98.1025 25.4851C98.2373 25.1335 98.3691 24.7996 98.498 24.4832C98.6269 24.1667 98.7558 23.8474 98.8847 23.5251C99.0136 23.2029 99.1425 22.8748 99.2714 22.5408C99.4004 22.2009 99.5293 21.8376 99.6582 21.4509C99.9043 20.7244 100.144 20.0857 100.379 19.5349C100.613 18.9841 100.833 18.4714 101.038 17.9968C101.061 17.9382 101.1 17.8855 101.152 17.8386C101.211 17.7859 101.272 17.7419 101.337 17.7068C101.401 17.6716 101.463 17.6423 101.521 17.6189C101.586 17.5955 101.636 17.5779 101.671 17.5662C101.694 17.5603 101.782 17.5339 101.935 17.4871C102.093 17.4402 102.271 17.3904 102.471 17.3376C102.67 17.2849 102.866 17.238 103.06 17.197C103.259 17.156 103.417 17.1355 103.534 17.1355H103.692C103.786 17.1355 103.874 17.1589 103.956 17.2058C104.044 17.2468 104.103 17.3318 104.132 17.4607C104.413 18.1814 104.712 18.9695 105.028 19.825C105.351 20.6746 105.664 21.6121 105.969 22.6375C106.133 23.1882 106.294 23.7097 106.452 24.2019C106.61 24.6941 106.769 25.1746 106.927 25.6433C107.085 26.1121 107.243 26.5808 107.401 27.0496C107.565 27.5183 107.732 28.0017 107.902 28.4998C107.955 28.7107 108.008 28.8777 108.061 29.0007C108.119 29.1238 108.172 29.2205 108.219 29.2908C108.266 29.3611 108.304 29.4138 108.333 29.449C108.362 29.4783 108.377 29.5105 108.377 29.5457C108.377 29.5808 108.321 29.616 108.21 29.6511L106.32 30.2664C106.18 30.3191 106.036 30.3718 105.89 30.4246C105.743 30.4773 105.605 30.5242 105.477 30.5652C105.348 30.6062 105.233 30.6384 105.134 30.6619C105.04 30.6912 104.973 30.7058 104.932 30.7058H104.879C104.797 30.7058 104.738 30.6794 104.703 30.6267C104.668 30.5798 104.644 30.533 104.633 30.4861C104.574 30.2927 104.516 30.1199 104.457 29.9675C104.398 29.8093 104.34 29.6541 104.281 29.5017C104.228 29.3435 104.173 29.1765 104.114 29.0007C104.061 28.825 104.009 28.6169 103.956 28.3767C103.944 28.3474 103.912 28.324 103.859 28.3064C103.807 28.283 103.742 28.2654 103.666 28.2537C103.596 28.2419 103.519 28.2361 103.437 28.2361C103.355 28.2302 103.279 28.2273 103.209 28.2273C102.986 28.2273 102.805 28.2302 102.664 28.2361C102.529 28.2361 102.409 28.239 102.304 28.2449C102.198 28.2449 102.096 28.2478 101.996 28.2537C101.902 28.2537 101.785 28.2537 101.644 28.2537C101.475 28.2537 101.299 28.2537 101.117 28.2537C100.941 28.2478 100.78 28.2419 100.634 28.2361L100.133 28.2185C99.9804 28.6404 99.8281 29.0359 99.6757 29.405C99.5234 29.7742 99.3593 30.155 99.1836 30.5476C99.1718 30.5945 99.1425 30.6326 99.0957 30.6619C99.0546 30.6912 99.0107 30.7058 98.9638 30.7058C98.9287 30.7058 98.9082 30.7029 98.9023 30.697C98.3339 30.4919 97.8564 30.2898 97.4697 30.0906C97.083 29.8914 96.7461 29.698 96.4589 29.5105ZM102.383 21.6091C102.242 22.1306 102.102 22.6052 101.961 23.033C101.826 23.4548 101.7 23.8298 101.583 24.158C101.472 24.4861 101.375 24.7644 101.293 24.9929C101.211 25.2156 101.152 25.3884 101.117 25.5115V25.5906C101.117 25.6257 101.114 25.6492 101.108 25.6609H103.218C103.153 25.3738 103.083 25.0837 103.007 24.7908C102.936 24.4978 102.866 24.1902 102.796 23.8679C102.726 23.5457 102.655 23.2 102.585 22.8308C102.515 22.4617 102.447 22.0544 102.383 21.6091ZM109.353 26.8826C109.353 26.8767 109.35 26.8708 109.344 26.865C109.344 26.8591 109.344 26.8533 109.344 26.8474C109.344 26.7478 109.396 26.698 109.502 26.698C109.555 26.698 109.613 26.7244 109.678 26.7771C109.994 27.0759 110.346 27.3132 110.732 27.489C111.119 27.6648 111.541 27.7527 111.998 27.7527C112.121 27.7527 112.262 27.741 112.42 27.7175C112.578 27.6882 112.728 27.6443 112.868 27.5857C113.009 27.5212 113.126 27.4392 113.22 27.3396C113.319 27.24 113.369 27.114 113.369 26.9617C113.369 26.7917 113.328 26.6394 113.246 26.5046C113.164 26.3699 113.056 26.2556 112.921 26.1619C112.868 26.1267 112.789 26.0681 112.684 25.9861C112.578 25.9041 112.458 25.8103 112.323 25.7048C112.188 25.5994 112.048 25.488 111.901 25.3708C111.755 25.2478 111.614 25.1335 111.479 25.0281C111.351 24.9167 111.233 24.8171 111.128 24.7292C111.022 24.6414 110.943 24.574 110.891 24.5271C110.545 24.2693 110.269 24.0085 110.064 23.7449C109.865 23.4812 109.713 23.2058 109.607 22.9187C109.502 22.6316 109.435 22.3357 109.405 22.031C109.376 21.7205 109.361 21.3923 109.361 21.0466C109.361 20.531 109.484 20.0417 109.73 19.5789C109.977 19.116 110.322 18.7146 110.768 18.3748C111.219 18.0291 111.758 17.7566 112.385 17.5574C113.012 17.3523 113.709 17.2498 114.477 17.2498C114.57 17.2498 114.711 17.2615 114.898 17.2849C115.086 17.3025 115.291 17.3347 115.514 17.3816C115.742 17.4285 115.974 17.4929 116.208 17.575C116.442 17.657 116.656 17.7625 116.85 17.8914C116.914 17.9382 116.964 17.9851 116.999 18.032C117.04 18.0789 117.066 18.1521 117.078 18.2517C117.107 18.7263 117.131 19.1951 117.148 19.658C117.166 20.115 117.189 20.6013 117.219 21.1169C117.219 21.2166 117.198 21.2839 117.157 21.3191C117.116 21.3484 117.063 21.363 116.999 21.363C116.935 21.363 116.885 21.3455 116.85 21.3103C116.68 21.1404 116.504 20.9734 116.322 20.8093C116.141 20.6453 115.95 20.5017 115.751 20.3787C115.552 20.2498 115.338 20.1472 115.109 20.071C114.887 19.9949 114.644 19.9568 114.38 19.9568C114.222 19.9568 114.063 19.9714 113.905 20.0007C113.747 20.0242 113.603 20.071 113.475 20.1414C113.346 20.2117 113.24 20.3083 113.158 20.4314C113.082 20.5544 113.044 20.7097 113.044 20.8972C113.044 21.0964 113.067 21.2693 113.114 21.4158C113.167 21.5623 113.293 21.7 113.492 21.8289L115.602 23.2615C115.988 23.5369 116.302 23.8123 116.542 24.0876C116.782 24.3572 116.97 24.6267 117.104 24.8962C117.239 25.1658 117.33 25.4324 117.377 25.696C117.43 25.9539 117.456 26.2087 117.456 26.4607C117.456 26.8708 117.389 27.2576 117.254 27.6208C117.119 27.9841 116.935 28.321 116.7 28.6316C116.466 28.9363 116.19 29.2117 115.874 29.4578C115.563 29.698 115.229 29.906 114.872 30.0818C114.515 30.2517 114.143 30.3806 113.756 30.4685C113.375 30.5623 113 30.6091 112.631 30.6091C112.344 30.6091 112.06 30.6033 111.778 30.5916C111.503 30.5857 111.233 30.5623 110.97 30.5212C110.706 30.4861 110.451 30.4275 110.205 30.3455C109.959 30.2693 109.725 30.1609 109.502 30.0203L109.353 26.8826ZM129.769 17.5837C129.758 17.7419 129.737 17.9763 129.708 18.2869C129.679 18.5916 129.644 18.9402 129.603 19.3328C129.567 19.7195 129.529 20.1267 129.488 20.5544C129.447 20.9822 129.406 21.3923 129.365 21.7849C129.33 22.1716 129.298 22.5232 129.269 22.8396C129.239 23.156 129.219 23.3933 129.207 23.5515C129.084 24.7996 128.873 25.8718 128.574 26.7683C128.281 27.6589 127.894 28.3884 127.414 28.9568C126.934 29.5251 126.356 29.9412 125.683 30.2048C125.015 30.4744 124.241 30.6091 123.362 30.6091C122.759 30.6091 122.19 30.4978 121.657 30.2751C121.124 30.0583 120.658 29.7507 120.26 29.3523C119.861 28.9539 119.545 28.4763 119.311 27.9197C119.082 27.3572 118.968 26.7332 118.968 26.0476C118.968 25.9597 118.974 25.8015 118.985 25.573C119.003 25.3386 119.023 25.0544 119.047 24.7205C119.076 24.3865 119.105 24.0085 119.135 23.5867C119.17 23.1589 119.205 22.7048 119.24 22.2244L119.346 20.7654C119.381 20.2322 119.407 19.7898 119.425 19.4382C119.442 19.0808 119.46 18.7937 119.478 18.5769C119.501 18.3601 119.533 18.2019 119.574 18.1023C119.615 18.0027 119.68 17.9382 119.768 17.9089L122.765 17.241C122.841 17.2175 122.92 17.2058 123.002 17.2058C123.096 17.2058 123.157 17.2322 123.186 17.2849C123.222 17.3376 123.239 17.4373 123.239 17.5837L122.571 24.5095C122.56 24.7146 122.539 24.9373 122.51 25.1775C122.48 25.4177 122.466 25.6638 122.466 25.9158C122.466 26.0681 122.483 26.2351 122.519 26.4167C122.56 26.5984 122.63 26.7712 122.729 26.9353C122.829 27.0935 122.964 27.2283 123.134 27.3396C123.31 27.4451 123.535 27.4978 123.811 27.4978C124.144 27.4978 124.414 27.4275 124.619 27.2869C124.824 27.1404 124.988 26.95 125.111 26.7156C125.234 26.4753 125.322 26.2058 125.375 25.907C125.434 25.6023 125.48 25.2917 125.516 24.9753C125.545 24.6062 125.58 24.1726 125.621 23.6746C125.662 23.1765 125.703 22.6433 125.744 22.075L125.999 18.5681C126.011 18.4626 126.017 18.3748 126.017 18.3044C126.022 18.2341 126.031 18.1755 126.043 18.1287C126.055 18.0818 126.078 18.0466 126.113 18.0232C126.154 17.9998 126.216 17.9822 126.298 17.9705L129.295 17.241C129.371 17.2175 129.45 17.2058 129.532 17.2058C129.614 17.2058 129.673 17.2322 129.708 17.2849C129.749 17.3318 129.769 17.4314 129.769 17.5837ZM135.544 17.575C135.532 17.6628 135.52 17.8035 135.509 17.9968C135.497 18.1843 135.479 18.4011 135.456 18.6472C135.438 18.8933 135.421 19.157 135.403 19.4382C135.386 19.7136 135.365 19.9832 135.342 20.2468C135.324 20.5046 135.304 20.7419 135.28 20.9587C135.263 21.1755 135.248 21.3484 135.236 21.4773L135.685 21.0203L136.933 19.4734C137.085 19.28 137.237 19.0925 137.39 18.9109C137.542 18.7234 137.677 18.5564 137.794 18.4099C137.917 18.2576 138.017 18.1316 138.093 18.032C138.169 17.9324 138.213 17.8767 138.225 17.865L142.127 17.5398C142.139 17.5339 142.165 17.531 142.206 17.531H142.276C142.411 17.531 142.478 17.5662 142.478 17.6365C142.478 17.6775 142.458 17.7273 142.417 17.7859C142.382 17.8386 142.326 17.9089 142.25 17.9968C142.156 18.1082 142.019 18.2693 141.837 18.4802C141.661 18.6853 141.468 18.9138 141.257 19.1658C141.046 19.4119 140.826 19.6697 140.598 19.9392C140.375 20.2029 140.167 20.449 139.974 20.6775C139.78 20.9001 139.613 21.0935 139.473 21.2576C139.338 21.4216 139.253 21.5271 139.218 21.574L138.664 22.1013C138.289 22.4587 137.809 22.9041 137.223 23.4373C137.404 23.6248 137.598 23.8298 137.803 24.0525C138.014 24.2693 138.213 24.4802 138.4 24.6853C138.594 24.8845 138.767 25.0662 138.919 25.2302C139.077 25.3943 139.194 25.5173 139.27 25.5994L141.986 28.7458C142.016 28.781 142.054 28.8103 142.101 28.8337C142.147 28.8572 142.194 28.8777 142.241 28.8953C142.288 28.9128 142.326 28.9333 142.355 28.9568C142.391 28.9744 142.408 28.9978 142.408 29.0271C142.408 29.0623 142.37 29.1179 142.294 29.1941C142.247 29.241 142.159 29.3113 142.03 29.405C141.901 29.4929 141.749 29.5896 141.573 29.6951C141.403 29.8005 141.219 29.9089 141.02 30.0203C140.82 30.1316 140.627 30.2312 140.439 30.3191C140.258 30.4128 140.088 30.489 139.93 30.5476C139.777 30.6062 139.66 30.6355 139.578 30.6355C139.455 30.6355 139.326 30.5798 139.191 30.4685C139.057 30.363 138.895 30.2019 138.708 29.9851C138.52 29.7625 138.298 29.4812 138.04 29.1414C137.782 28.8015 137.472 28.4031 137.108 27.946C136.897 27.6824 136.692 27.4246 136.493 27.1726C136.294 26.9148 136.106 26.6746 135.931 26.4519C135.755 26.2234 135.594 26.0212 135.447 25.8455C135.307 25.6638 135.189 25.5173 135.096 25.406C135.049 25.4529 134.999 25.4998 134.946 25.5466C134.894 25.5876 134.844 25.6316 134.797 25.6785L134.489 29.449C134.483 29.5017 134.472 29.5544 134.454 29.6072C134.442 29.6599 134.404 29.698 134.34 29.7214L131.853 30.6179C131.788 30.6414 131.703 30.6707 131.598 30.7058C131.492 30.741 131.39 30.7585 131.29 30.7585C131.202 30.7585 131.129 30.7351 131.07 30.6882C131.012 30.6414 130.982 30.5564 130.982 30.4333C131.012 30.0876 131.047 29.6394 131.088 29.0886C131.135 28.5378 131.182 27.9109 131.228 27.2078C131.281 26.4988 131.334 25.7283 131.387 24.8962C131.445 24.0583 131.507 23.1794 131.571 22.2595L131.817 18.5593C131.823 18.4539 131.829 18.366 131.835 18.2957C131.841 18.2253 131.85 18.1667 131.861 18.1199C131.873 18.073 131.894 18.0378 131.923 18.0144C131.952 17.991 131.996 17.9734 132.055 17.9617L135.096 17.2322C135.172 17.2087 135.251 17.197 135.333 17.197C135.415 17.197 135.471 17.2234 135.5 17.2761C135.529 17.323 135.544 17.4226 135.544 17.575Z" fill="white"/>
</svg>
