<svg width="319" height="122" viewBox="0 0 319 122" fill="none" xmlns="http://www.w3.org/2000/svg">
<mask id="mask0" mask-type="alpha" maskUnits="userSpaceOnUse" x="10" y="10" width="309" height="112">
<rect x="10" y="10" width="308.133" height="112" rx="15" fill="#C3B5B3"/>
</mask>
<g mask="url(#mask0)">
<rect x="10" y="10" width="308.133" height="112" rx="15" fill="#C3B5B3"/>
<rect x="164.066" y="10" width="154.067" height="112" rx="15" fill="#C3B5B3"/>
<rect x="19.7109" y="14.5461" width="9.71007" height="14.4649" rx="4.85504" fill="#C3B5B3"/>
</g>
<mask id="mask1" mask-type="alpha" maskUnits="userSpaceOnUse" x="0" y="0" width="309" height="112">
<rect width="308.133" height="112" rx="15" fill="#63A29A"/>
</mask>
<g mask="url(#mask1)">
<rect width="308.133" height="112" rx="15" fill="#9BDBA1"/>
<path d="M0 0H293C301.284 0 308 6.71573 308 15V97C308 105.284 301.284 112 293 112H0V0Z" fill="#5EDA6A"/>
</g>
<path d="M121.25 45.5312C121.229 47.3229 121.052 48.9271 120.719 50.3438C120.406 51.7604 119.948 53.0417 119.344 54.1875C118.76 55.3125 118.042 56.3333 117.188 57.25C116.354 58.1458 115.396 58.9896 114.312 59.7812C112.229 61.2812 109.948 62.4167 107.469 63.1875C104.99 63.9375 102.5 64.3125 100 64.3125C99.5833 64.3125 99.1667 64.3021 98.75 64.2812C98.3542 64.2604 97.9479 64.2292 97.5312 64.1875L96.5 75.5938L95.9688 76.5625C95.9271 76.6458 95.5729 76.8125 94.9062 77.0625C94.2396 77.3125 93.4062 77.6042 92.4062 77.9375L90.4375 78.5938C89.8125 78.8229 89.2604 79.0312 88.7812 79.2188C88.3021 79.4062 87.8542 79.5729 87.4375 79.7188C87.0208 79.8646 86.6146 79.9688 86.2188 80.0312C85.8229 80.1146 85.4062 80.1562 84.9688 80.1562C84.6771 80.1562 84.4479 80.0833 84.2812 79.9375C84.1146 79.7917 84.0312 79.5104 84.0312 79.0938L84.375 73.75C84.4375 72.6875 84.5104 71.625 84.5938 70.5625C84.6979 69.4792 84.7917 68.25 84.875 66.875L85.4688 59.4062C85.5938 57.8854 85.7083 56.3646 85.8125 54.8438C85.9167 53.3229 86.0208 51.875 86.125 50.5C86.2292 49.125 86.3229 47.8438 86.4062 46.6562C86.4896 45.4479 86.5625 44.3958 86.625 43.5C85.5 43.75 84.5938 43.9375 83.9062 44.0625C83.2396 44.1667 82.7292 44.2188 82.375 44.2188C81.9375 44.2188 81.7188 44.0312 81.7188 43.6562C82.0104 42.6354 82.2812 41.6354 82.5312 40.6562C82.7604 39.8229 82.9896 38.9688 83.2188 38.0938C83.4688 37.1979 83.6771 36.4479 83.8438 35.8438C83.9479 35.4688 84.0625 35.1875 84.1875 35C84.3333 34.7917 84.5104 34.6354 84.7188 34.5312C84.9479 34.4062 85.2292 34.3021 85.5625 34.2188C85.9167 34.1146 86.3438 33.9792 86.8438 33.8125C87.2396 33.6875 87.7917 33.5521 88.5 33.4062C89.2292 33.2396 90.0521 33.0833 90.9688 32.9375C91.9062 32.7708 92.9167 32.6146 94 32.4688C95.0833 32.3229 96.1771 32.1979 97.2812 32.0938C98.4062 31.9688 99.5104 31.875 100.594 31.8125C101.677 31.7292 102.698 31.6875 103.656 31.6875C106.031 31.6875 108.281 31.9062 110.406 32.3438C112.531 32.7812 114.396 33.5312 116 34.5938C117.604 35.6354 118.875 37.0521 119.812 38.8438C120.771 40.6146 121.25 42.8438 121.25 45.5312ZM98.4062 54.9062C98.4062 55.1354 98.4479 55.3438 98.5312 55.5312C98.6146 55.6979 98.8438 55.7812 99.2188 55.7812C99.8021 55.7812 100.49 55.6562 101.281 55.4062C102.094 55.1354 102.896 54.7396 103.688 54.2188C104.5 53.6979 105.25 53.0521 105.938 52.2812C106.625 51.5104 107.146 50.6042 107.5 49.5625C107.646 49.1458 107.76 48.6146 107.844 47.9688C107.948 47.3229 108 46.5625 108 45.6875C108 44.2292 107.49 43.1562 106.469 42.4688C105.469 41.7812 104.156 41.4375 102.531 41.4375C102.26 41.4375 101.948 41.4583 101.594 41.5C101.26 41.5208 100.938 41.5729 100.625 41.6562C100.333 41.7396 100.083 41.8438 99.875 41.9688C99.6667 42.0729 99.5521 42.2188 99.5312 42.4062L99.4688 43.0938C99.4479 43.3646 99.4062 43.8125 99.3438 44.4375C99.2812 45.0417 99.2083 45.7396 99.125 46.5312C99.0625 47.3229 98.9896 48.1562 98.9062 49.0312C98.8438 49.9062 98.7708 50.7396 98.6875 51.5312C98.625 52.3229 98.5625 53.0208 98.5 53.625C98.4583 54.2292 98.4271 54.6562 98.4062 54.9062ZM140.344 33.2188C140.323 33.7188 140.281 34.3438 140.219 35.0938C140.156 35.8229 140.083 36.6042 140 37.4375C139.938 38.25 139.854 39.0833 139.75 39.9375C139.667 40.7708 139.583 41.5417 139.5 42.25C139.438 42.9583 139.385 43.5729 139.344 44.0938C139.302 44.5938 139.281 44.9167 139.281 45.0625C139.198 46.3542 139.104 47.5521 139 48.6562C138.917 49.7604 138.823 50.8542 138.719 51.9375C138.615 53.0208 138.5 54.1458 138.375 55.3125C138.271 56.4583 138.156 57.7292 138.031 59.125C137.906 60.5208 137.76 62.0729 137.594 63.7812C137.448 65.4896 137.292 67.4479 137.125 69.6562L150.062 68.3438C150.646 68.2812 151.125 68.25 151.5 68.25C151.958 68.25 152.24 68.3229 152.344 68.4688C152.469 68.6146 152.531 68.8438 152.531 69.1562C152.531 69.1979 152.521 69.2604 152.5 69.3438C152.479 69.4062 152.427 69.5417 152.344 69.75C152.281 69.9583 152.177 70.2604 152.031 70.6562C151.906 71.0521 151.729 71.6042 151.5 72.3125L150.812 74.375C150.583 75.0417 150.365 75.6458 150.156 76.1875C149.969 76.7083 149.729 77.1667 149.438 77.5625C149.146 77.9375 148.781 78.2396 148.344 78.4688C147.906 78.6979 147.344 78.8438 146.656 78.9062C146.219 78.9479 145.625 78.9792 144.875 79C144.125 79.0417 143.26 79.0729 142.281 79.0938C141.302 79.1354 140.24 79.1771 139.094 79.2188C137.969 79.2604 136.812 79.3125 135.625 79.375C134.458 79.4167 133.281 79.4375 132.094 79.4375C130.906 79.4583 129.781 79.4792 128.719 79.5C127.656 79.5208 126.677 79.5417 125.781 79.5625C124.885 79.5833 124.146 79.6042 123.562 79.625C123.021 79.625 122.625 79.5833 122.375 79.5C122.146 79.4167 122.031 79.2812 122.031 79.0938C122.031 78.8646 122.104 78.5312 122.25 78.0938C122.396 77.6771 122.583 77.2083 122.812 76.6875C123.042 76.1458 123.292 75.5938 123.562 75.0312C123.854 74.4479 124.135 73.8854 124.406 73.3438L125.25 62.1875C125.417 60.2917 125.583 58.3646 125.75 56.4062C125.917 54.4479 126.062 52.5521 126.188 50.7188L126.719 42.4375C126.844 40.4792 126.927 39.0625 126.969 38.1875C127.01 37.2917 127.031 36.8021 127.031 36.7188C127.073 36.3438 127.104 36.0312 127.125 35.7812C127.146 35.5312 127.177 35.3229 127.219 35.1562C127.281 34.9896 127.365 34.8646 127.469 34.7812C127.573 34.6979 127.729 34.6354 127.938 34.5938L138.906 32C139.135 31.9167 139.417 31.875 139.75 31.875C139.979 31.875 140.135 31.9479 140.219 32.0938C140.323 32.2188 140.375 32.4688 140.375 32.8438C140.375 32.8854 140.365 32.9479 140.344 33.0312C140.344 33.0938 140.344 33.1562 140.344 33.2188ZM153.438 75.7188C153.708 75.1771 153.99 74.5729 154.281 73.9062C154.573 73.2188 154.844 72.4792 155.094 71.6875L155.938 69.625C155.562 69.0625 155.177 68.4583 154.781 67.8125C154.406 67.1458 154.062 66.4688 153.75 65.7812C153.438 65.0938 153.177 64.4062 152.969 63.7188C152.781 63.0312 152.688 62.3646 152.688 61.7188C152.688 61.6771 152.844 61.6458 153.156 61.625C153.49 61.5833 153.896 61.5521 154.375 61.5312C154.875 61.5104 155.406 61.5 155.969 61.5C156.552 61.4792 157.083 61.4688 157.562 61.4688C158.062 61.4479 158.469 61.4375 158.781 61.4375C159.115 61.4167 159.281 61.4062 159.281 61.4062C159.76 60.1562 160.229 58.9688 160.688 57.8438C161.146 56.7188 161.604 55.5833 162.062 54.4375C162.521 53.2917 162.979 52.125 163.438 50.9375C163.896 49.7292 164.354 48.4375 164.812 47.0625C165.688 44.4792 166.542 42.2083 167.375 40.25C168.208 38.2917 168.99 36.4688 169.719 34.7812C169.802 34.5729 169.938 34.3854 170.125 34.2188C170.333 34.0312 170.552 33.875 170.781 33.75C171.01 33.625 171.229 33.5208 171.438 33.4375C171.667 33.3542 171.844 33.2917 171.969 33.25C172.052 33.2292 172.365 33.1354 172.906 32.9688C173.469 32.8021 174.104 32.625 174.812 32.4375C175.521 32.25 176.219 32.0833 176.906 31.9375C177.615 31.7917 178.177 31.7188 178.594 31.7188H179.156C179.49 31.7188 179.802 31.8021 180.094 31.9688C180.406 32.1146 180.615 32.4167 180.719 32.875C181.719 35.4375 182.781 38.2396 183.906 41.2812C185.052 44.3021 186.167 47.6354 187.25 51.2812C187.833 53.2396 188.406 55.0938 188.969 56.8438C189.531 58.5938 190.094 60.3021 190.656 61.9688C191.219 63.6354 191.781 65.3021 192.344 66.9688C192.927 68.6354 193.521 70.3542 194.125 72.125C194.312 72.875 194.5 73.4688 194.688 73.9062C194.896 74.3438 195.083 74.6875 195.25 74.9375C195.417 75.1875 195.552 75.375 195.656 75.5C195.76 75.6042 195.812 75.7188 195.812 75.8438C195.812 75.9688 195.615 76.0938 195.219 76.2188L188.5 78.4062C188 78.5938 187.49 78.7812 186.969 78.9688C186.448 79.1562 185.958 79.3229 185.5 79.4688C185.042 79.6146 184.635 79.7292 184.281 79.8125C183.948 79.9167 183.708 79.9688 183.562 79.9688H183.375C183.083 79.9688 182.875 79.875 182.75 79.6875C182.625 79.5208 182.542 79.3542 182.5 79.1875C182.292 78.5 182.083 77.8854 181.875 77.3438C181.667 76.7812 181.458 76.2292 181.25 75.6875C181.062 75.125 180.865 74.5312 180.656 73.9062C180.469 73.2812 180.281 72.5417 180.094 71.6875C180.052 71.5833 179.938 71.5 179.75 71.4375C179.562 71.3542 179.333 71.2917 179.062 71.25C178.812 71.2083 178.542 71.1875 178.25 71.1875C177.958 71.1667 177.688 71.1562 177.438 71.1562C176.646 71.1562 176 71.1667 175.5 71.1875C175.021 71.1875 174.594 71.1979 174.219 71.2188C173.844 71.2188 173.479 71.2292 173.125 71.25C172.792 71.25 172.375 71.25 171.875 71.25C171.271 71.25 170.646 71.25 170 71.25C169.375 71.2292 168.802 71.2083 168.281 71.1875L166.5 71.125C165.958 72.625 165.417 74.0312 164.875 75.3438C164.333 76.6562 163.75 78.0104 163.125 79.4062C163.083 79.5729 162.979 79.7083 162.812 79.8125C162.667 79.9167 162.51 79.9688 162.344 79.9688C162.219 79.9688 162.146 79.9583 162.125 79.9375C160.104 79.2083 158.406 78.4896 157.031 77.7812C155.656 77.0729 154.458 76.3854 153.438 75.7188ZM174.5 47.625C174 49.4792 173.5 51.1667 173 52.6875C172.521 54.1875 172.073 55.5208 171.656 56.6875C171.26 57.8542 170.917 58.8438 170.625 59.6562C170.333 60.4479 170.125 61.0625 170 61.5V61.7812C170 61.9062 169.99 61.9896 169.969 62.0312H177.469C177.24 61.0104 176.99 59.9792 176.719 58.9375C176.469 57.8958 176.219 56.8021 175.969 55.6562C175.719 54.5104 175.469 53.2812 175.219 51.9688C174.969 50.6562 174.729 49.2083 174.5 47.625ZM195.375 36.375C195.5 36.2917 195.708 36.1875 196 36.0625C196.312 35.9167 196.667 35.7604 197.062 35.5938C197.479 35.4271 197.917 35.25 198.375 35.0625C198.854 34.8542 199.333 34.6562 199.812 34.4688L203.438 33.0312C203.708 32.9062 203.958 32.8438 204.188 32.8438C204.354 32.8438 204.531 32.8958 204.719 33C204.927 33.0833 205.156 33.25 205.406 33.5L212.625 47.5L212.812 47.0312L215.906 41.3125C216.302 40.6042 216.688 39.9062 217.062 39.2188C217.458 38.5312 217.802 37.9167 218.094 37.375C218.406 36.8333 218.667 36.3958 218.875 36.0625C219.083 35.7292 219.208 35.5625 219.25 35.5625L229.969 32.875C230.219 32.8125 230.427 32.7812 230.594 32.7812C231.073 32.7812 231.312 33 231.312 33.4375C231.292 33.5417 231.271 33.6875 231.25 33.875C231.229 34.0417 231.167 34.2292 231.062 34.4375L221.875 51.4688C221.417 52.3229 220.948 53.1771 220.469 54.0312C220.01 54.8854 219.562 55.6979 219.125 56.4688C218.688 57.2188 218.292 57.9062 217.938 58.5312C217.604 59.1562 217.333 59.6667 217.125 60.0625L216.906 61.0938L215.156 72.8125C215.094 73.1667 215.042 73.4583 215 73.6875C214.958 73.9167 214.896 74.1042 214.812 74.25C214.75 74.3958 214.656 74.5208 214.531 74.625C214.427 74.7292 214.271 74.8333 214.062 74.9375L205.188 79.5938C204.854 79.7604 204.5 79.8958 204.125 80C203.771 80.1042 203.427 80.1562 203.094 80.1562C202.74 80.1562 202.438 80.0729 202.188 79.9062C201.938 79.7604 201.812 79.5104 201.812 79.1562V79.0312C201.896 77.8438 202.042 76.4688 202.25 74.9062C202.479 73.3229 202.719 71.7812 202.969 70.2812L204.719 58.6875C204.385 57.9792 203.948 57.0417 203.406 55.875C202.865 54.7083 202.281 53.4479 201.656 52.0938C201.031 50.7396 200.375 49.3438 199.688 47.9062C199.021 46.4688 198.385 45.1146 197.781 43.8438C197.198 42.5521 196.667 41.4167 196.188 40.4375C195.729 39.4583 195.385 38.7396 195.156 38.2812C195.052 37.9688 195 37.6458 195 37.3125C195 37.125 195.021 36.9479 195.062 36.7812C195.125 36.5938 195.229 36.4583 195.375 36.375Z" fill="#FAFAFA"/>
</svg>
