<svg width="51" height="60" viewBox="0 0 51 60" fill="none" xmlns="http://www.w3.org/2000/svg">
<path d="M47.2132 23.1616C46.1106 12.6151 36.6672 4.95926 26.1207 6.06186C15.5742 7.16445 7.91835 16.6079 9.02094 27.1544L10.4523 40.8453C11.5549 51.3918 20.9983 59.0476 31.5448 57.945C42.0913 56.8424 49.7471 47.3989 48.6445 36.8524L47.2132 23.1616Z" fill="#45837C"/>
<path d="M40.7386 19.925C39.636 9.37849 30.1926 1.72269 19.646 2.82528C9.09954 3.92788 1.44374 13.3713 2.54634 23.9179L3.97766 37.6087C5.08026 48.1552 14.5237 55.811 25.0702 54.7084C35.6167 53.6058 43.2725 44.1624 42.1699 33.6158L40.7386 19.925Z" fill="#AE7558"/>
<path d="M42.0335 19.925C40.9309 9.37849 31.4875 1.72269 20.941 2.82528C10.3945 3.92788 2.73866 13.3713 3.84126 23.9179L5.27258 37.6087C6.37518 48.1552 15.8186 55.811 26.3651 54.7084C36.9117 53.6058 44.5675 44.1624 43.4649 33.6158L42.0335 19.925Z" fill="#C08162"/>
<circle r="3.88403" transform="matrix(-1 0 0 1 27.4148 7.62597)" fill="#D1A58C"/>
</svg>
