<svg width="26" height="23" viewBox="0 0 26 23" fill="none" xmlns="http://www.w3.org/2000/svg">
<path d="M1.10152 18.4911C0.063406 18.7428 7.32925 8.80005 7.32925 8.80005L12 14.5895C12 14.5895 8.10757 20.5048 7.32922 21.7634C6.55087 23.022 5.90189 18.8687 5.25332 18.4911C4.60476 18.1135 2.13963 18.2394 1.10152 18.4911Z" fill="#FF5876" stroke="#1D1D1D" stroke-width="1.5"/>
<path d="M25.0774 18.4911C26.3231 18.7428 17.6041 8.80005 17.6041 8.80005L11.9992 14.5895C11.9992 14.5895 16.6701 20.5048 17.6041 21.7634C18.5382 23.022 19.317 18.8687 20.0952 18.4911C20.8735 18.1135 23.8317 18.2394 25.0774 18.4911Z" fill="#FF5876" stroke="#1D1D1D" stroke-width="1.5"/>
<path d="M20.0504 8.06667C20.0504 12.1408 16.9063 15.3833 13.1004 15.3833C9.29451 15.3833 6.15039 12.1408 6.15039 8.06667C6.15039 3.99252 9.29451 0.75 13.1004 0.75C16.9063 0.75 20.0504 3.99252 20.0504 8.06667Z" fill="#FFCF4D" stroke="#1D1D1D" stroke-width="1.5"/>
<circle cx="13.1007" cy="8.06672" r="4.01667" fill="#FF9517" stroke="#1D1D1D" stroke-width="1.5"/>
<rect x="11.6328" y="6.96667" width="2.93333" height="2.2" rx="1.1" fill="#1D1D1D"/>
</svg>
